<svg id="award" xmlns="http://www.w3.org/2000/svg" width="18.581" height="21.699" viewBox="0 0 18.581 21.699">
  <g id="Group_1826" data-name="Group 1826">
    <g id="Group_1825" data-name="Group 1825">
      <path id="Path_1575" data-name="Path 1575" d="M54.994,2.092a1.57,1.57,0,0,0-1.2-.554H52.28V1.064A1.066,1.066,0,0,0,51.216,0H40.935a1.065,1.065,0,0,0-1.064,1.064v.474H38.354a1.57,1.57,0,0,0-1.2.554,1.551,1.551,0,0,0-.351,1.255,8.125,8.125,0,0,0,4.128,5.8,10.715,10.715,0,0,0,.678,1.36,6.327,6.327,0,0,0,2.908,2.745,2.294,2.294,0,0,1-1.771,2.454l-.006,0a.5.5,0,0,0-.385.488v2.3h-.932a1.508,1.508,0,0,0-1.507,1.507V21.2a.5.5,0,0,0,.5.5H51.778a.5.5,0,0,0,.5-.5V20.007A1.508,1.508,0,0,0,50.774,18.5h-.932V16.2a.5.5,0,0,0-.386-.488l-.006,0a2.292,2.292,0,0,1-1.769-2.475,6.364,6.364,0,0,0,2.86-2.724,10.72,10.72,0,0,0,.678-1.36,8.126,8.126,0,0,0,4.128-5.8A1.551,1.551,0,0,0,54.994,2.092ZM37.8,3.187a.541.541,0,0,1,.125-.444.567.567,0,0,1,.433-.2h1.516v.924A15.78,15.78,0,0,0,40.406,7.6,7.112,7.112,0,0,1,37.8,3.187ZM50.774,19.505a.5.5,0,0,1,.5.5v.687H40.923v-.687a.5.5,0,0,1,.5-.5ZM48.838,16.7v1.8H43.361V16.7Zm-4.159-1a3.325,3.325,0,0,0,.339-.443,3.267,3.267,0,0,0,.518-1.724,3.937,3.937,0,0,0,1.127-.007,3.306,3.306,0,0,0,.862,2.174H44.679Zm6.6-12.228A12.976,12.976,0,0,1,49.676,10c-.983,1.654-2.262,2.565-3.6,2.565s-2.618-.911-3.6-2.565a12.975,12.975,0,0,1-1.6-6.529v-2.4a.06.06,0,0,1,.06-.06H51.216a.06.06,0,0,1,.06.06Zm3.078-.28A7.112,7.112,0,0,1,51.745,7.6a15.782,15.782,0,0,0,.535-4.135V2.543H53.8a.567.567,0,0,1,.433.2A.541.541,0,0,1,54.354,3.187Z" transform="translate(-36.785)"/>
    </g>
  </g>
  <g id="Group_1828" data-name="Group 1828" transform="translate(6.217 2.941)">
    <g id="Group_1827" data-name="Group 1827">
      <path id="Path_1576" data-name="Path 1576" d="M189.6,71.606a.5.5,0,0,0-.405-.342l-1.515-.22L187,69.671a.5.5,0,0,0-.9,0l-.678,1.373-1.515.22a.5.5,0,0,0-.278.857l1.1,1.069-.259,1.509a.5.5,0,0,0,.729.529l1.355-.713,1.355.713a.5.5,0,0,0,.729-.529l-.259-1.509,1.1-1.069A.5.5,0,0,0,189.6,71.606Zm-2.114,1.049a.5.5,0,0,0-.144.445l.131.767-.688-.362a.5.5,0,0,0-.467,0l-.688.362.131-.767a.5.5,0,0,0-.144-.445l-.557-.543.77-.112a.5.5,0,0,0,.378-.275l.344-.7.344.7a.5.5,0,0,0,.378.275l.77.112Z" transform="translate(-183.479 -69.391)"/>
    </g>
  </g>
</svg>
