<svg xmlns="http://www.w3.org/2000/svg" width="22.78" height="26.034" viewBox="0 0 22.78 26.034">
  <path id="Icon_awesome-calculator" data-name="Icon awesome-calculator" d="M20.339,0H2.441A2.5,2.5,0,0,0,0,2.441V23.593a2.5,2.5,0,0,0,2.441,2.441h17.9a2.5,2.5,0,0,0,2.441-2.441V2.441A2.5,2.5,0,0,0,20.339,0ZM6.509,22.129a.7.7,0,0,1-.651.651H3.905a.7.7,0,0,1-.651-.651V20.176a.7.7,0,0,1,.651-.651H5.858a.7.7,0,0,1,.651.651Zm0-6.509a.7.7,0,0,1-.651.651H3.905a.7.7,0,0,1-.651-.651V13.668a.7.7,0,0,1,.651-.651H5.858a.7.7,0,0,1,.651.651Zm6.509,6.509a.7.7,0,0,1-.651.651H10.414a.7.7,0,0,1-.651-.651V20.176a.7.7,0,0,1,.651-.651h1.953a.7.7,0,0,1,.651.651Zm0-6.509a.7.7,0,0,1-.651.651H10.414a.7.7,0,0,1-.651-.651V13.668a.7.7,0,0,1,.651-.651h1.953a.7.7,0,0,1,.651.651Zm6.509,6.509a.7.7,0,0,1-.651.651H16.922a.7.7,0,0,1-.651-.651V13.668a.7.7,0,0,1,.651-.651h1.953a.7.7,0,0,1,.651.651v8.461Zm0-13.017a.7.7,0,0,1-.651.651H3.905a.7.7,0,0,1-.651-.651V3.905a.7.7,0,0,1,.651-.651h14.97a.7.7,0,0,1,.651.651Z"/>
</svg>
