<svg xmlns="http://www.w3.org/2000/svg" width="61.575" height="59.449" viewBox="0 0 61.575 59.449">
  <g id="calendar" transform="translate(0 -0.496)">
    <path id="Path_1306" data-name="Path 1306" d="M50.959,6.866a3.185,3.185,0,0,0-3.185-3.185H44.589a3.185,3.185,0,1,0-6.37,0H33.973a3.185,3.185,0,0,0-6.37,0H23.356a3.185,3.185,0,0,0-6.37,0H12.74a3.185,3.185,0,1,0-6.37,0H3.185A3.185,3.185,0,0,0,0,6.866V51.456a1.062,1.062,0,0,0,1.062,1.062H4.247V55.7a1.062,1.062,0,0,0,1.062,1.062H33.265c.014,0,.024-.007.037-.007A18.034,18.034,0,1,0,50.959,25.472ZM40.343,3.681a1.062,1.062,0,0,1,2.123,0V6.866H40.343Zm-10.617,0a1.062,1.062,0,0,1,2.123,0V6.866H29.726Zm-10.617,0a1.062,1.062,0,1,1,2.123,0V6.866H19.11Zm-10.617,0a1.062,1.062,0,1,1,2.123,0V6.866H8.493ZM2.123,6.866A1.062,1.062,0,0,1,3.185,5.8H6.37V7.928A1.062,1.062,0,0,0,7.432,8.989h4.247A1.062,1.062,0,0,0,12.74,7.928V5.8h4.247V7.928a1.062,1.062,0,0,0,1.062,1.062h4.247a1.062,1.062,0,0,0,1.062-1.062V5.8H27.6V7.928a1.062,1.062,0,0,0,1.062,1.062h4.247a1.062,1.062,0,0,0,1.062-1.062V5.8H38.22V7.928a1.062,1.062,0,0,0,1.062,1.062h4.247a1.062,1.062,0,0,0,1.062-1.062V5.8h3.185a1.062,1.062,0,0,1,1.062,1.062v5.308H2.123ZM6.37,52.517h22.6a18.052,18.052,0,0,0,1.792,2.123H6.37ZM59.453,41.9A15.925,15.925,0,1,1,43.528,25.976,15.925,15.925,0,0,1,59.453,41.9ZM43.528,23.853A18.036,18.036,0,0,0,27.611,50.394H2.123V14.3H48.836V24.652a18,18,0,0,0-5.308-.8Zm0,0"/>
    <path id="Path_1307" data-name="Path 1307" d="M51.185,136.5a3.185,3.185,0,1,0,3.185,3.185A3.185,3.185,0,0,0,51.185,136.5Zm0,4.247a1.062,1.062,0,1,1,1.062-1.062A1.062,1.062,0,0,1,51.185,140.743Zm0,0" transform="translate(-41.63 -117.952)"/>
    <path id="Path_1308" data-name="Path 1308" d="M131.185,136.5a3.185,3.185,0,1,0,3.185,3.185A3.185,3.185,0,0,0,131.185,136.5Zm0,4.247a1.062,1.062,0,1,1,1.062-1.062A1.062,1.062,0,0,1,131.185,140.743Zm0,0" transform="translate(-111.014 -117.952)"/>
    <path id="Path_1309" data-name="Path 1309" d="M211.185,136.5a3.185,3.185,0,1,0,3.185,3.185A3.185,3.185,0,0,0,211.185,136.5Zm0,4.247a1.062,1.062,0,1,1,1.062-1.062A1.062,1.062,0,0,1,211.185,140.743Zm0,0" transform="translate(-180.397 -117.952)"/>
    <path id="Path_1310" data-name="Path 1310" d="M51.185,200.5a3.185,3.185,0,1,0,3.185,3.185A3.185,3.185,0,0,0,51.185,200.5Zm0,4.247a1.062,1.062,0,1,1,1.062-1.062A1.062,1.062,0,0,1,51.185,204.743Zm0,0" transform="translate(-41.63 -173.459)"/>
    <path id="Path_1311" data-name="Path 1311" d="M131.185,200.5a3.185,3.185,0,1,0,3.185,3.185A3.185,3.185,0,0,0,131.185,200.5Zm0,4.247a1.062,1.062,0,1,1,1.062-1.062A1.062,1.062,0,0,1,131.185,204.743Zm0,0" transform="translate(-111.014 -173.459)"/>
    <path id="Path_1312" data-name="Path 1312" d="M51.185,264.5a3.185,3.185,0,1,0,3.185,3.185A3.185,3.185,0,0,0,51.185,264.5Zm0,4.247a1.062,1.062,0,1,1,1.062-1.062A1.062,1.062,0,0,1,51.185,268.743Zm0,0" transform="translate(-41.63 -228.965)"/>
    <path id="Path_1313" data-name="Path 1313" d="M131.185,264.5a3.185,3.185,0,1,0,3.185,3.185A3.185,3.185,0,0,0,131.185,264.5Zm0,4.247a1.062,1.062,0,1,1,1.062-1.062A1.062,1.062,0,0,1,131.185,268.743Zm0,0" transform="translate(-111.014 -228.965)"/>
    <path id="Path_1314" data-name="Path 1314" d="M224,222.3a13.8,13.8,0,1,0,13.8-13.8A13.8,13.8,0,0,0,224,222.3Zm25.48,0h-2.123a1.062,1.062,0,0,0,0,2.123h1.921a11.693,11.693,0,0,1-10.414,9.5v-2.069a1.062,1.062,0,0,0-2.123,0v2.069a11.693,11.693,0,0,1-10.414-9.5h1.921a1.062,1.062,0,1,0,0-2.123h-2.123a11.688,11.688,0,0,1,10.617-11.624v2.069a1.062,1.062,0,0,0,2.123,0v-2.069A11.688,11.688,0,0,1,249.48,222.3Zm0,0" transform="translate(-194.274 -180.397)"/>
    <path id="Path_1315" data-name="Path 1315" d="M307.411,277.292l-1.468-2.2a1.062,1.062,0,1,0-1.767,1.178l2.123,3.185a1.065,1.065,0,0,0,.73.461.944.944,0,0,0,.153.011,1.06,1.06,0,0,0,.68-.245l6.37-5.308a1.062,1.062,0,0,0-1.359-1.633Zm0,0" transform="translate(-263.655 -235.901)"/>
  </g>
</svg>
