<svg xmlns="http://www.w3.org/2000/svg" width="692.13" height="297.43" viewBox="0 0 692.13 297.43">
  <g id="Group_1982" data-name="Group 1982" transform="translate(-3726 -3063)">
    <g id="Group_1976" data-name="Group 1976" transform="translate(3726.42 2977.364)">
      <g id="Object" transform="translate(0 0)">
        <g id="Group_1973" data-name="Group 1973" transform="translate(0)">
          <g id="Group_1972" data-name="Group 1972">
            <g id="Group_1940" data-name="Group 1940" transform="translate(198.58 85.637)">
              <g id="Group_1853" data-name="Group 1853" transform="translate(0.114 8.727)">
                <g id="Group_1827" data-name="Group 1827" transform="translate(0 28.12)">
                  <g id="Group_1805" data-name="Group 1805" transform="translate(146.508)">
                    <g id="Group_1803" data-name="Group 1803" transform="translate(0 21.112)">
                      <path id="Path_2522" data-name="Path 2522" d="M604.1,426c-.212,0-.212-.122-.212-.181v-57.83c0-.059,0-.18.211-.18s.212.122.212.18v57.83c0,.095-.028.119-.041.129a.275.275,0,0,1-.17.051Z" transform="translate(-603.889 -367.814)"/>
                    </g>
                    <g id="Group_1804" data-name="Group 1804">
                      <path id="Path_2523" data-name="Path 2523" d="M604.1,322.2c-.212,0-.212-.122-.212-.181v-9.179c0-.059,0-.181.211-.181s.212.122.212.181v9.179c0,.095-.028.119-.041.129a.274.274,0,0,1-.17.051Z" transform="translate(-603.889 -312.658)"/>
                    </g>
                  </g>
                  <g id="Group_1808" data-name="Group 1808" transform="translate(68.862 32.13)">
                    <g id="Group_1806" data-name="Group 1806" transform="translate(14.929 14.929)">
                      <path id="Path_2524" data-name="Path 2524" d="M481.1,476.914c-.012,0-.049,0-.112-.063L440.1,435.961c-.072-.073-.074-.114-.049-.174a.313.313,0,0,1,.237-.188c.013,0,.049,0,.112.063l40.891,40.892c.073.073.074.114.049.174a.31.31,0,0,1-.237.188Z" transform="translate(-440.038 -435.598)"/>
                    </g>
                    <g id="Group_1807" data-name="Group 1807">
                      <path id="Path_2525" data-name="Path 2525" d="M407.7,403.513c-.013,0-.049,0-.112-.063l-6.491-6.491c-.073-.073-.074-.114-.049-.174a.312.312,0,0,1,.237-.188c.012,0,.049,0,.112.063l6.491,6.491c.072.073.074.114.049.174A.313.313,0,0,1,407.7,403.513Z" transform="translate(-401.037 -396.597)"/>
                    </g>
                  </g>
                  <g id="Group_1811" data-name="Group 1811" transform="translate(0 91.297)">
                    <g id="Group_1809" data-name="Group 1809" transform="translate(57.846)">
                      <path id="Path_2526" data-name="Path 2526" d="M372.437,599.87c-.059,0-.18,0-.18-.211s.121-.212.18-.212h57.83c.059,0,.18,0,.18.211s-.122.212-.18.212Z" transform="translate(-372.257 -599.447)"/>
                    </g>
                    <g id="Group_1810" data-name="Group 1810">
                      <path id="Path_2527" data-name="Path 2527" d="M221.315,599.87c-.059,0-.181,0-.181-.211s.122-.212.181-.212h9.18c.059,0,.18,0,.18.211s-.121.212-.18.212Z" transform="translate(-221.134 -599.447)"/>
                    </g>
                  </g>
                  <g id="Group_1814" data-name="Group 1814" transform="translate(68.862 94.643)">
                    <g id="Group_1812" data-name="Group 1812" transform="translate(14.929)">
                      <path id="Path_2528" data-name="Path 2528" d="M440.29,697.777a.311.311,0,0,1-.236-.188c-.025-.06-.024-.1.048-.175l40.892-40.891c.063-.063.1-.063.112-.063a.311.311,0,0,1,.236.188c.026.06.024.1-.048.174L440.4,697.714C440.339,697.777,440.3,697.777,440.29,697.777Z" transform="translate(-440.039 -656.46)"/>
                    </g>
                    <g id="Group_1813" data-name="Group 1813" transform="translate(0 49.329)">
                      <path id="Path_2529" data-name="Path 2529" d="M401.289,792.251a.312.312,0,0,1-.236-.188c-.025-.06-.025-.1.048-.174l6.491-6.491c.064-.063.1-.063.112-.063a.312.312,0,0,1,.236.188c.025.061.024.1-.048.175l-6.491,6.491c-.063.063-.1.063-.112.063Z" transform="translate(-401.038 -785.334)"/>
                    </g>
                  </g>
                  <g id="Group_1817" data-name="Group 1817" transform="translate(146.508 103.715)">
                    <g id="Group_1815" data-name="Group 1815" transform="translate(0 0)">
                      <path id="Path_2530" data-name="Path 2530" d="M604.1,738.352c-.212,0-.212-.122-.212-.18V680.343c0-.059,0-.181.211-.181s.212.122.212.181v57.829c0,.094-.028.119-.041.129a.273.273,0,0,1-.17.051Z" transform="translate(-603.889 -680.162)"/>
                    </g>
                    <g id="Group_1816" data-name="Group 1816" transform="translate(0 69.762)">
                      <path id="Path_2531" data-name="Path 2531" d="M604.1,871.957c-.212,0-.212-.122-.212-.18V862.6c0-.059,0-.181.211-.181s.212.122.212.181v9.179c0,.095-.028.119-.041.129a.272.272,0,0,1-.17.051Z" transform="translate(-603.889 -862.417)"/>
                    </g>
                  </g>
                  <g id="Group_1820" data-name="Group 1820" transform="translate(168.331 94.643)">
                    <g id="Group_1818" data-name="Group 1818" transform="translate(0)">
                      <path id="Path_2532" data-name="Path 2532" d="M701.969,697.777c-.012,0-.049,0-.112-.063l-40.892-40.891c-.072-.073-.074-.114-.049-.175a.312.312,0,0,1,.237-.188c.012,0,.049,0,.112.063l40.892,40.891c.073.073.074.115.049.175a.31.31,0,0,1-.237.188Z" transform="translate(-660.902 -656.461)"/>
                    </g>
                    <g id="Group_1819" data-name="Group 1819" transform="translate(49.329 49.329)">
                      <path id="Path_2533" data-name="Path 2533" d="M796.441,792.251c-.012,0-.049,0-.112-.063l-6.491-6.491c-.072-.073-.074-.114-.049-.174a.313.313,0,0,1,.237-.188c.012,0,.049,0,.112.063l6.49,6.491c.073.073.074.114.049.174a.312.312,0,0,1-.236.188Z" transform="translate(-789.775 -785.335)"/>
                    </g>
                  </g>
                  <g id="Group_1823" data-name="Group 1823" transform="translate(177.403 91.297)">
                    <g id="Group_1821" data-name="Group 1821" transform="translate(0)">
                      <path id="Path_2534" data-name="Path 2534" d="M684.785,599.87c-.059,0-.181,0-.181-.211s.122-.212.181-.212h57.83c.058,0,.181,0,.181.211s-.122.212-.181.212Z" transform="translate(-684.604 -599.447)"/>
                    </g>
                    <g id="Group_1822" data-name="Group 1822" transform="translate(69.763)">
                      <path id="Path_2535" data-name="Path 2535" d="M867.04,599.87c-.059,0-.18,0-.18-.211s.121-.212.18-.212h46.252c.058,0,.181,0,.181.211s-.122.212-.181.212Z" transform="translate(-866.86 -599.447)"/>
                    </g>
                  </g>
                  <g id="Group_1826" data-name="Group 1826" transform="translate(168.332 32.129)">
                    <g id="Group_1824" data-name="Group 1824" transform="translate(0 14.928)">
                      <path id="Path_2536" data-name="Path 2536" d="M661.154,476.914a.311.311,0,0,1-.236-.188c-.025-.06-.024-.1.048-.174l40.892-40.892c.064-.063.1-.063.112-.063a.311.311,0,0,1,.236.188c.025.06.025.1-.048.175l-40.892,40.891c-.063.063-.1.063-.112.063Z" transform="translate(-660.903 -435.597)"/>
                    </g>
                    <g id="Group_1825" data-name="Group 1825" transform="translate(49.329)">
                      <path id="Path_2537" data-name="Path 2537" d="M790.028,403.512a.312.312,0,0,1-.237-.188c-.025-.06-.024-.1.048-.174l6.491-6.491c.064-.063.1-.063.112-.063a.311.311,0,0,1,.236.188c.025.06.025.1-.048.175l-6.49,6.491c-.063.063-.1.063-.112.063Z" transform="translate(-789.776 -396.596)"/>
                    </g>
                  </g>
                </g>
                <g id="Group_1852" data-name="Group 1852" transform="translate(8.612)">
                  <g id="Group_1830" data-name="Group 1830" transform="translate(0 67.988)">
                    <g id="Group_1828" data-name="Group 1828" transform="translate(32.226 13.349)">
                      <path id="Path_2538" data-name="Path 2538" d="M397.569,514.3a.249.249,0,0,1-.091-.022l-69.541-28.8c-.064-.026-.134-.056-.106-.2.02-.1.1-.215.177-.215a.248.248,0,0,1,.091.022l69.54,28.8c.063.026.135.055.106.2-.021.1-.1.215-.177.215Z" transform="translate(-327.825 -485.062)"/>
                    </g>
                    <g id="Group_1829" data-name="Group 1829">
                      <path id="Path_2539" data-name="Path 2539" d="M264.191,459.054a.25.25,0,0,1-.091-.022l-20.354-8.43c-.064-.026-.134-.056-.106-.2.02-.1.1-.215.177-.215a.25.25,0,0,1,.091.022l20.353,8.431c.077.032.132.066.106.2-.02.1-.1.215-.176.215Z" transform="translate(-243.634 -450.188)"/>
                    </g>
                  </g>
                  <g id="Group_1833" data-name="Group 1833" transform="translate(0.001 128.682)">
                    <g id="Group_1831" data-name="Group 1831" transform="translate(32.226)">
                      <path id="Path_2540" data-name="Path 2540" d="M328.009,667.787c-.078,0-.156-.113-.176-.214-.028-.144.043-.173.105-.2l69.541-28.8a.254.254,0,0,1,.092-.023c.078,0,.156.113.176.214.028.144-.043.174-.106.2l-69.54,28.8a.254.254,0,0,1-.092.022Z" transform="translate(-327.827 -638.547)"/>
                    </g>
                    <g id="Group_1832" data-name="Group 1832" transform="translate(0 33.722)">
                      <path id="Path_2541" data-name="Path 2541" d="M243.818,735.514c-.078,0-.156-.113-.176-.215-.028-.144.043-.173.106-.2l20.354-8.43a.255.255,0,0,1,.092-.023c.078,0,.155.113.176.214.028.143-.043.173-.106.2l-20.353,8.431a.256.256,0,0,1-.092.023Z" transform="translate(-243.636 -726.647)"/>
                    </g>
                  </g>
                  <g id="Group_1836" data-name="Group 1836" transform="translate(80.764 137.106)">
                    <g id="Group_1834" data-name="Group 1834" transform="translate(13.349)">
                      <path id="Path_2542" data-name="Path 2542" d="M489.775,763.857a.329.329,0,0,1-.252-.124c-.014-.02-.036-.054,0-.149l28.8-69.54c.039-.095.077-.112.143-.112a.329.329,0,0,1,.252.125c.014.02.036.054,0,.149l-28.8,69.54C489.878,763.84,489.84,763.857,489.775,763.857Z" transform="translate(-489.504 -693.931)"/>
                    </g>
                    <g id="Group_1835" data-name="Group 1835" transform="translate(0 81.414)">
                      <path id="Path_2543" data-name="Path 2543" d="M454.9,927.364a.33.33,0,0,1-.252-.125c-.014-.02-.037-.054,0-.149l8.431-20.353c.039-.1.077-.112.142-.112a.329.329,0,0,1,.252.124c.013.02.036.054,0,.149l-8.43,20.354c-.039.1-.077.112-.142.112Z" transform="translate(-454.631 -906.626)"/>
                    </g>
                  </g>
                  <g id="Group_1839" data-name="Group 1839" transform="translate(152.862 137.107)">
                    <g id="Group_1837" data-name="Group 1837" transform="translate(0)">
                      <path id="Path_2544" data-name="Path 2544" d="M671.96,763.858c-.065,0-.1-.017-.143-.111l-28.8-69.541c-.039-.1-.017-.129,0-.149a.328.328,0,0,1,.252-.124c.065,0,.1.017.143.111l28.8,69.541c.039.1.017.129,0,.149a.327.327,0,0,1-.252.124Z" transform="translate(-642.99 -693.933)"/>
                    </g>
                    <g id="Group_1838" data-name="Group 1838" transform="translate(33.722 81.413)">
                      <path id="Path_2545" data-name="Path 2545" d="M739.686,927.364c-.065,0-.1-.016-.143-.111L731.112,906.9c-.039-.1-.017-.129,0-.149a.328.328,0,0,1,.251-.124c.066,0,.1.017.144.112l8.431,20.353c.039.1.017.129,0,.15A.331.331,0,0,1,739.686,927.364Z" transform="translate(-731.09 -906.626)"/>
                    </g>
                  </g>
                  <g id="Group_1842" data-name="Group 1842" transform="translate(174.061 128.682)">
                    <g id="Group_1840" data-name="Group 1840">
                      <path id="Path_2546" data-name="Path 2546" d="M768.117,667.787a.248.248,0,0,1-.091-.022l-69.541-28.8c-.064-.026-.134-.056-.106-.2.02-.1.1-.214.176-.214a.249.249,0,0,1,.091.022l69.541,28.8c.063.026.134.056.106.2-.02.1-.1.214-.176.214Z" transform="translate(-698.373 -638.548)"/>
                    </g>
                    <g id="Group_1841" data-name="Group 1841" transform="translate(81.413 33.722)">
                      <path id="Path_2547" data-name="Path 2547" d="M931.623,735.514a.251.251,0,0,1-.091-.022l-20.354-8.431c-.062-.026-.134-.056-.106-.2.02-.1.1-.215.177-.215a.25.25,0,0,1,.091.022l20.353,8.43c.064.026.134.056.106.2-.02.1-.1.215-.177.215Z" transform="translate(-911.066 -726.648)"/>
                    </g>
                  </g>
                  <g id="Group_1845" data-name="Group 1845" transform="translate(174.061 67.988)">
                    <g id="Group_1843" data-name="Group 1843" transform="translate(0 13.348)">
                      <path id="Path_2548" data-name="Path 2548" d="M698.555,514.3c-.078,0-.155-.113-.176-.214-.028-.144.042-.173.106-.2l69.541-28.8a.252.252,0,0,1,.092-.022c.078,0,.155.113.176.214.028.144-.043.173-.106.2l-69.541,28.8a.254.254,0,0,1-.092.023Z" transform="translate(-698.373 -485.061)"/>
                    </g>
                    <g id="Group_1844" data-name="Group 1844" transform="translate(81.413)">
                      <path id="Path_2549" data-name="Path 2549" d="M911.249,459.054c-.078,0-.156-.113-.176-.214-.028-.144.043-.173.106-.2l20.354-8.431a.253.253,0,0,1,.092-.022c.078,0,.155.113.176.214.028.144-.042.173-.106.2l-20.353,8.43a.254.254,0,0,1-.092.023Z" transform="translate(-911.066 -450.188)"/>
                    </g>
                  </g>
                  <g id="Group_1848" data-name="Group 1848" transform="translate(152.863)">
                    <g id="Group_1846" data-name="Group 1846" transform="translate(0 32.226)">
                      <path id="Path_2550" data-name="Path 2550" d="M643.262,393.311a.331.331,0,0,1-.253-.125c-.013-.02-.036-.054,0-.149l28.8-69.541c.039-.095.077-.111.142-.111a.329.329,0,0,1,.252.124c.014.02.036.054,0,.15L643.4,393.2c-.039.095-.077.112-.142.112Z" transform="translate(-642.991 -323.385)"/>
                    </g>
                    <g id="Group_1847" data-name="Group 1847" transform="translate(33.722)">
                      <path id="Path_2551" data-name="Path 2551" d="M731.361,259.932a.329.329,0,0,1-.252-.125c-.014-.02-.036-.054,0-.149l8.431-20.353c.039-.095.077-.112.142-.112a.329.329,0,0,1,.252.125c.014.02.037.054,0,.15L731.5,259.82c-.039.1-.077.112-.143.112Z" transform="translate(-731.09 -239.193)"/>
                    </g>
                  </g>
                  <g id="Group_1851" data-name="Group 1851" transform="translate(80.764 0)">
                    <g id="Group_1849" data-name="Group 1849" transform="translate(13.349 32.226)">
                      <path id="Path_2552" data-name="Path 2552" d="M518.473,393.311c-.065,0-.1-.017-.143-.111l-28.8-69.54c-.039-.1-.016-.129,0-.149a.331.331,0,0,1,.253-.124c.065,0,.1.017.143.111l28.8,69.541c.039.1.017.129,0,.149A.33.33,0,0,1,518.473,393.311Z" transform="translate(-489.504 -323.385)"/>
                    </g>
                    <g id="Group_1850" data-name="Group 1850">
                      <path id="Path_2553" data-name="Path 2553" d="M463.227,259.932c-.065,0-.1-.016-.143-.111l-8.431-20.353c-.039-.1-.016-.129,0-.149a.331.331,0,0,1,.252-.124c.066,0,.1.017.144.112l8.43,20.353c.039.1.017.129,0,.149a.327.327,0,0,1-.251.124Z" transform="translate(-454.63 -239.194)"/>
                    </g>
                  </g>
                </g>
              </g>
              <g id="Group_1904" data-name="Group 1904">
                <g id="Group_1878" data-name="Group 1878" transform="translate(39.139 39.139)">
                  <g id="Group_1856" data-name="Group 1856" transform="translate(124.406 15.678)">
                    <g id="Group_1854" data-name="Group 1854" transform="translate(0 17.653)">
                      <path id="Path_2554" data-name="Path 2554" d="M648.373,454.482a.328.328,0,0,1-.255-.158c-.017-.03-.037-.069.023-.161l31.72-48.354c.057-.087.1-.087.122-.087a.328.328,0,0,1,.255.158c.016.031.037.069-.023.161L648.5,454.395c-.057.087-.1.087-.123.087Z" transform="translate(-648.1 -405.722)"/>
                    </g>
                    <g id="Group_1855" data-name="Group 1855" transform="translate(38.265)">
                      <path id="Path_2555" data-name="Path 2555" d="M748.341,367.684a.328.328,0,0,1-.255-.158c-.016-.03-.037-.069.023-.161l5.035-7.675c.057-.087.1-.087.124-.087a.328.328,0,0,1,.254.157c.016.031.037.069-.024.162l-5.034,7.676c-.057.087-.1.087-.123.087Z" transform="translate(-748.068 -359.603)"/>
                    </g>
                  </g>
                  <g id="Group_1859" data-name="Group 1859" transform="translate(85.147)">
                    <g id="Group_1857" data-name="Group 1857" transform="translate(4.294 20.671)">
                      <path id="Path_2556" data-name="Path 2556" d="M568.694,429.637c-.133,0-.157-.061-.173-.141l-11.762-56.621c-.02-.094,0-.124.015-.137a.309.309,0,0,1,.226-.09c.133,0,.157.061.173.141l11.762,56.621c.02.094-.005.125-.015.137a.31.31,0,0,1-.225.09Z" transform="translate(-556.751 -372.648)"/>
                    </g>
                    <g id="Group_1858" data-name="Group 1858">
                      <path id="Path_2557" data-name="Path 2557" d="M547.581,328c-.134,0-.157-.061-.173-.141l-1.867-8.987c-.02-.094,0-.124.015-.137a.309.309,0,0,1,.225-.09c.134,0,.157.061.173.141l1.867,8.987c.02.095,0,.124-.015.138a.311.311,0,0,1-.225.089Z" transform="translate(-545.533 -318.645)"/>
                    </g>
                  </g>
                  <g id="Group_1862" data-name="Group 1862" transform="translate(15.677 37.076)">
                    <g id="Group_1860" data-name="Group 1860" transform="translate(17.653 11.58)">
                      <path id="Path_2558" data-name="Path 2558" d="M458.707,504.49a.216.216,0,0,1-.1-.04l-48.354-31.72c-.075-.049-.106-.09-.077-.188.034-.117.139-.207.2-.207a.215.215,0,0,1,.1.04l48.354,31.72c.085.056.1.1.077.188C458.878,504.4,458.774,504.49,458.707,504.49Z" transform="translate(-410.163 -472.336)"/>
                    </g>
                    <g id="Group_1861" data-name="Group 1861">
                      <path id="Path_2559" data-name="Path 2559" d="M371.91,447.552a.221.221,0,0,1-.1-.04l-7.675-5.035c-.086-.056-.1-.1-.077-.188.035-.117.139-.207.206-.207a.216.216,0,0,1,.1.041l7.675,5.035c.075.049.106.09.077.188C372.08,447.462,371.976,447.552,371.91,447.552Z" transform="translate(-364.043 -442.082)"/>
                    </g>
                  </g>
                  <g id="Group_1865" data-name="Group 1865" transform="translate(0 92.629)">
                    <g id="Group_1863" data-name="Group 1863" transform="translate(20.671)">
                      <path id="Path_2560" data-name="Path 2560" d="M377.254,628.043c-.137,0-.161-.211-.161-.214-.019-.175.077-.2.139-.208l56.63-11.762a.225.225,0,0,1,.216.206c.018.175-.077.2-.139.208l-56.621,11.762Z" transform="translate(-377.091 -615.859)"/>
                    </g>
                    <g id="Group_1864" data-name="Group 1864" transform="translate(0 14.189)">
                      <path id="Path_2561" data-name="Path 2561" d="M323.25,655.218c-.138,0-.161-.212-.162-.214-.018-.175.077-.2.139-.208l9-1.867a.225.225,0,0,1,.215.206c.018.176-.077.2-.139.209l-8.987,1.867Z" transform="translate(-323.086 -652.929)"/>
                    </g>
                  </g>
                  <g id="Group_1868" data-name="Group 1868" transform="translate(47.249 96.344)">
                    <g id="Group_1866" data-name="Group 1866" transform="translate(11.58)">
                      <path id="Path_2562" data-name="Path 2562" d="M477.05,715.651a.328.328,0,0,1-.255-.158c-.016-.031-.037-.069.023-.161l31.719-48.354c.057-.087.1-.087.123-.087a.327.327,0,0,1,.255.158c.017.031.037.069-.023.161l-31.719,48.355C477.116,715.651,477.074,715.651,477.05,715.651Z" transform="translate(-476.778 -666.891)"/>
                    </g>
                    <g id="Group_1867" data-name="Group 1867" transform="translate(0 58.332)">
                      <path id="Path_2563" data-name="Path 2563" d="M446.8,827.365a.329.329,0,0,1-.255-.158c-.016-.031-.037-.069.024-.162l5.034-7.675c.057-.087.1-.087.124-.087a.327.327,0,0,1,.255.158c.016.031.037.069-.023.161l-5.035,7.676C446.862,827.365,446.821,827.365,446.8,827.365Z" transform="translate(-446.524 -819.284)"/>
                    </g>
                  </g>
                  <g id="Group_1871" data-name="Group 1871" transform="translate(113.759 100.775)">
                    <g id="Group_1869" data-name="Group 1869">
                      <path id="Path_2564" data-name="Path 2564" d="M632.226,735.456c-.134,0-.157-.061-.173-.141l-11.762-56.621c-.02-.094,0-.125.015-.137a.309.309,0,0,1,.225-.089c.134,0,.156.061.173.14l11.762,56.621c.02.095,0,.124-.015.137a.312.312,0,0,1-.226.09Z" transform="translate(-620.283 -678.468)"/>
                    </g>
                    <g id="Group_1870" data-name="Group 1870" transform="translate(14.189 68.304)">
                      <path id="Path_2565" data-name="Path 2565" d="M659.4,866.268c-.133,0-.157-.061-.173-.141l-1.867-8.988c-.02-.094,0-.124.015-.138a.311.311,0,0,1,.225-.089c.134,0,.157.061.173.141l1.868,8.987c.02.094,0,.124-.015.138a.311.311,0,0,1-.226.089Z" transform="translate(-657.352 -856.913)"/>
                    </g>
                  </g>
                  <g id="Group_1874" data-name="Group 1874" transform="translate(133.299 97.623)">
                    <g id="Group_1872" data-name="Group 1872">
                      <path id="Path_2566" data-name="Path 2566" d="M719.877,675.813a.216.216,0,0,1-.1-.04l-48.354-31.72c-.085-.056-.1-.1-.077-.187.034-.116.139-.207.205-.207a.216.216,0,0,1,.1.041l48.354,31.719c.086.056.1.1.077.188-.035.117-.139.207-.206.207Z" transform="translate(-671.332 -643.659)"/>
                    </g>
                    <g id="Group_1873" data-name="Group 1873" transform="translate(58.331 38.265)">
                      <path id="Path_2567" data-name="Path 2567" d="M831.591,749.1a.216.216,0,0,1-.1-.041l-7.675-5.035c-.086-.056-.1-.1-.077-.188.035-.117.139-.207.206-.207a.219.219,0,0,1,.1.04l7.675,5.035c.085.056.1.1.077.188-.034.117-.139.207-.2.207Z" transform="translate(-823.724 -743.627)"/>
                    </g>
                  </g>
                  <g id="Group_1877" data-name="Group 1877" transform="translate(137.73 69.333)">
                    <g id="Group_1875" data-name="Group 1875" transform="translate(0 4.294)">
                      <path id="Path_2568" data-name="Path 2568" d="M683.072,564.512c-.138,0-.161-.211-.162-.214-.018-.176.077-.2.139-.209l56.631-11.762c.193,0,.214.2.215.206.018.176-.077.2-.139.209l-56.62,11.762Z" transform="translate(-682.908 -552.328)"/>
                    </g>
                    <g id="Group_1876" data-name="Group 1876" transform="translate(68.304)">
                      <path id="Path_2569" data-name="Path 2569" d="M861.517,543.4c-.138,0-.161-.211-.161-.213-.018-.176.077-.2.139-.209l9-1.867a.225.225,0,0,1,.215.207c.018.175-.076.2-.139.208l-8.987,1.867Z" transform="translate(-861.354 -541.109)"/>
                    </g>
                  </g>
                </g>
                <g id="Group_1903" data-name="Group 1903">
                  <g id="Group_1881" data-name="Group 1881" transform="translate(62.633 23.218)">
                    <g id="Group_1879" data-name="Group 1879" transform="translate(19.624 28.837)">
                      <path id="Path_2570" data-name="Path 2570" d="M478.245,415.025c-.024,0-.064,0-.122-.085l-42.346-62.228c-.064-.093-.043-.131-.026-.162a.325.325,0,0,1,.254-.16c.024,0,.064,0,.122.085L478.473,414.7c.064.093.043.131.027.162A.327.327,0,0,1,478.245,415.025Z" transform="translate(-435.734 -352.39)"/>
                    </g>
                    <g id="Group_1880" data-name="Group 1880">
                      <path id="Path_2571" data-name="Path 2571" d="M397.024,295.672c-.024,0-.064,0-.121-.085l-12.395-18.213c-.064-.092-.043-.131-.026-.162a.327.327,0,0,1,.255-.161c.024,0,.064,0,.121.085l12.395,18.213c.064.092.043.131.026.162A.326.326,0,0,1,397.024,295.672Z" transform="translate(-384.465 -277.052)"/>
                    </g>
                  </g>
                  <g id="Group_1884" data-name="Group 1884" transform="translate(0 102.646)">
                    <g id="Group_1882" data-name="Group 1882" transform="translate(34.268 6.515)">
                      <path id="Path_2572" data-name="Path 2572" d="M384.449,558.1,310.5,544.044c-.064-.012-.159-.03-.142-.207,0-.009.021-.215.161-.215l74.006,14.064c.063.012.158.03.142.208,0,.008-.022.214-.162.214C384.509,558.108,384.47,558.106,384.449,558.1Z" transform="translate(-310.36 -543.622)"/>
                    </g>
                    <g id="Group_1883" data-name="Group 1883">
                      <path id="Path_2573" data-name="Path 2573" d="M242.622,531.139l-21.643-4.114c-.063-.012-.158-.03-.142-.207,0-.009.021-.215.162-.215l21.7,4.121c.064.012.159.03.142.207,0,.009-.021.214-.162.214A.545.545,0,0,1,242.622,531.139Z" transform="translate(-220.835 -526.602)"/>
                    </g>
                  </g>
                  <g id="Group_1887" data-name="Group 1887" transform="translate(23.218 141.682)">
                    <g id="Group_1885" data-name="Group 1885" transform="translate(28.838 0)">
                      <path id="Path_2574" data-name="Path 2574" d="M357.05,699.72c-.066,0-.171-.09-.207-.206-.026-.086-.009-.13.074-.187l62.228-42.347a.213.213,0,0,1,.1-.042c.066,0,.171.09.207.206.027.086.01.13-.074.187l-62.228,42.347a.22.22,0,0,1-.1.043Z" transform="translate(-356.832 -656.938)"/>
                    </g>
                    <g id="Group_1886" data-name="Group 1886" transform="translate(0 49.577)">
                      <path id="Path_2575" data-name="Path 2575" d="M281.711,799.288c-.067,0-.172-.09-.207-.206-.026-.087-.009-.13.074-.187L299.791,786.5a.213.213,0,0,1,.105-.042c.066,0,.171.09.207.206.026.087.009.13-.074.187l-18.213,12.394a.215.215,0,0,1-.1.043Z" transform="translate(-281.492 -786.458)"/>
                    </g>
                  </g>
                  <g id="Group_1890" data-name="Group 1890" transform="translate(118.74 148.132)">
                    <g id="Group_1888" data-name="Group 1888" transform="translate(6.515 0)">
                      <path id="Path_2576" data-name="Path 2576" d="M548.311,774.251a.308.308,0,0,1-.224-.088c-.01-.013-.035-.042-.017-.136l14.058-73.945c.013-.068.028-.144.175-.144a.306.306,0,0,1,.224.087c.01.013.035.042.017.136l-14.058,73.945c-.013.068-.028.145-.175.145Z" transform="translate(-548.064 -699.938)"/>
                    </g>
                    <g id="Group_1889" data-name="Group 1889" transform="translate(0 86.57)">
                      <path id="Path_2577" data-name="Path 2577" d="M531.292,948.115a.307.307,0,0,1-.224-.088c-.01-.012-.035-.042-.017-.136l4.115-21.643c.013-.068.028-.144.175-.144a.306.306,0,0,1,.224.087c.01.013.035.042.017.136l-4.114,21.642c-.013.068-.028.144-.175.144Z" transform="translate(-531.045 -926.105)"/>
                    </g>
                  </g>
                  <g id="Group_1893" data-name="Group 1893" transform="translate(168.628 142.021)">
                    <g id="Group_1891" data-name="Group 1891" transform="translate(0 0)">
                      <path id="Path_2578" data-name="Path 2578" d="M703.891,746.608c-.024,0-.064,0-.121-.085L661.423,684.3c-.064-.093-.043-.131-.026-.162a.325.325,0,0,1,.255-.16c.024,0,.064,0,.122.085l42.346,62.228c.064.093.043.131.027.162A.327.327,0,0,1,703.891,746.608Z" transform="translate(-661.38 -683.973)"/>
                    </g>
                    <g id="Group_1892" data-name="Group 1892" transform="translate(49.577 72.852)">
                      <path id="Path_2579" data-name="Path 2579" d="M803.459,892.921c-.024,0-.064,0-.122-.085l-12.393-18.213c-.064-.092-.042-.131-.026-.162a.326.326,0,0,1,.255-.161c.024,0,.064,0,.122.085L803.687,892.6c.063.093.043.131.026.162A.326.326,0,0,1,803.459,892.921Z" transform="translate(-790.9 -874.301)"/>
                    </g>
                  </g>
                  <g id="Group_1896" data-name="Group 1896" transform="translate(185.087 133.065)">
                    <g id="Group_1894" data-name="Group 1894" transform="translate(0 0)">
                      <path id="Path_2580" data-name="Path 2580" d="M778.469,633.011l-73.945-14.058c-.064-.012-.159-.03-.143-.208,0-.009.022-.214.162-.214L778.548,632.6c.064.012.159.03.143.207,0,.009-.022.214-.162.214A.573.573,0,0,1,778.469,633.011Z" transform="translate(-704.379 -618.531)"/>
                    </g>
                    <g id="Group_1895" data-name="Group 1895" transform="translate(86.57 16.458)">
                      <path id="Path_2581" data-name="Path 2581" d="M952.333,666.066l-21.642-4.115c-.064-.012-.159-.03-.143-.207,0-.009.022-.214.162-.214l21.7,4.121c.063.012.159.03.142.208,0,.009-.022.214-.162.214C952.393,666.072,952.354,666.069,952.333,666.066Z" transform="translate(-930.546 -661.529)"/>
                    </g>
                  </g>
                  <g id="Group_1899" data-name="Group 1899" transform="translate(178.976 52.624)">
                    <g id="Group_1897" data-name="Group 1897" transform="translate(0 19.624)">
                      <path id="Path_2582" data-name="Path 2582" d="M688.633,474.073c-.067,0-.171-.09-.207-.206-.026-.087-.01-.131.074-.187l62.228-42.347a.221.221,0,0,1,.1-.043c.067,0,.171.09.207.206.027.087.01.131-.074.187l-62.227,42.347A.22.22,0,0,1,688.633,474.073Z" transform="translate(-688.414 -431.291)"/>
                    </g>
                    <g id="Group_1898" data-name="Group 1898" transform="translate(72.852)">
                      <path id="Path_2583" data-name="Path 2583" d="M878.96,392.853c-.066,0-.171-.09-.207-.206-.027-.087-.01-.131.074-.187l18.213-12.394a.212.212,0,0,1,.105-.042c.066,0,.171.09.207.206.026.086.01.13-.074.187l-18.213,12.394a.213.213,0,0,1-.1.042Z" transform="translate(-878.741 -380.024)"/>
                    </g>
                  </g>
                  <g id="Group_1902" data-name="Group 1902" transform="translate(153.927)">
                    <g id="Group_1900" data-name="Group 1900" transform="translate(0 34.267)">
                      <path id="Path_2584" data-name="Path 2584" d="M623.22,380.23a.307.307,0,0,1-.224-.087c-.01-.013-.035-.042-.017-.136l14.058-73.945c.013-.068.028-.145.176-.145a.307.307,0,0,1,.223.087c.01.013.035.042.017.136l-14.058,73.946c-.013.067-.027.144-.175.144Z" transform="translate(-622.973 -305.917)"/>
                    </g>
                    <g id="Group_1901" data-name="Group 1901" transform="translate(16.458)">
                      <path id="Path_2585" data-name="Path 2585" d="M666.217,238.4a.307.307,0,0,1-.223-.087c-.01-.013-.035-.042-.017-.136l4.114-21.643c.013-.067.028-.144.176-.144a.305.305,0,0,1,.223.087c.011.013.036.042.018.137l-4.115,21.642c-.013.068-.028.144-.175.144Z" transform="translate(-665.97 -216.394)"/>
                    </g>
                  </g>
                </g>
              </g>
              <g id="Group_1939" data-name="Group 1939" transform="translate(7.626 18.904)">
                <g id="Group_1929" data-name="Group 1929" transform="translate(11.278)">
                  <g id="Group_1907" data-name="Group 1907" transform="translate(74.802 0)">
                    <g id="Group_1905" data-name="Group 1905" transform="translate(34.074 82.261)">
                      <path id="Path_2586" data-name="Path 2586" d="M564.311,503.972c-.065,0-.1-.017-.143-.111l-9.484-22.9c-.039-.1-.017-.129,0-.149a.327.327,0,0,1,.251-.124c.066,0,.1.017.143.112l9.484,22.9c.039.1.017.129,0,.149A.327.327,0,0,1,564.311,503.972Z" transform="translate(-554.662 -480.69)"/>
                    </g>
                    <g id="Group_1906" data-name="Group 1906">
                      <path id="Path_2587" data-name="Path 2587" d="M493.911,334.01c-.065,0-.1-.016-.143-.111l-28.1-67.845c-.04-.1-.017-.13,0-.15a.327.327,0,0,1,.252-.124c.064,0,.1.017.143.111l28.1,67.844c.039.1.017.129,0,.15A.327.327,0,0,1,493.911,334.01Z" transform="translate(-465.643 -265.781)"/>
                    </g>
                  </g>
                  <g id="Group_1910" data-name="Group 1910" transform="translate(0 61.755)">
                    <g id="Group_1908" data-name="Group 1908" transform="translate(82.261 34.074)">
                      <path id="Path_2588" data-name="Path 2588" d="M508.232,560.139a.254.254,0,0,1-.092-.022l-22.9-9.484c-.063-.026-.134-.056-.106-.2.02-.1.1-.214.176-.214a.253.253,0,0,1,.091.022l22.9,9.484c.063.026.134.056.106.2-.02.1-.1.215-.176.215Z" transform="translate(-485.13 -550.22)"/>
                    </g>
                    <g id="Group_1909" data-name="Group 1909">
                      <path id="Path_2589" data-name="Path 2589" d="M338.269,489.739a.26.26,0,0,1-.091-.022l-67.844-28.1c-.063-.026-.134-.056-.106-.2.02-.1.1-.214.176-.214a.258.258,0,0,1,.091.022l67.844,28.1c.064.026.134.056.106.2C338.426,489.626,338.348,489.739,338.269,489.739Z" transform="translate(-270.221 -461.202)"/>
                    </g>
                  </g>
                  <g id="Group_1913" data-name="Group 1913" transform="translate(0 113.157)">
                    <g id="Group_1911" data-name="Group 1911" transform="translate(82.261)">
                      <path id="Path_2590" data-name="Path 2590" d="M485.312,633.784c-.078,0-.155-.113-.176-.214-.028-.143.043-.173.106-.2l22.9-9.484a.254.254,0,0,1,.092-.023c.078,0,.156.113.176.214.028.144-.042.173-.105.2l-22.9,9.484a.255.255,0,0,1-.092.023Z" transform="translate(-485.13 -623.863)"/>
                    </g>
                    <g id="Group_1912" data-name="Group 1912" transform="translate(0 15.456)">
                      <path id="Path_2591" data-name="Path 2591" d="M270.4,692.781c-.079,0-.156-.113-.176-.214-.028-.144.043-.173.106-.2l67.844-28.1a.262.262,0,0,1,.092-.022c.078,0,.155.113.176.214.028.144-.043.173-.106.2l-67.844,28.1A.26.26,0,0,1,270.4,692.781Z" transform="translate(-270.223 -664.243)"/>
                    </g>
                  </g>
                  <g id="Group_1916" data-name="Group 1916" transform="translate(74.803 113.361)">
                    <g id="Group_1914" data-name="Group 1914" transform="translate(34.074)">
                      <path id="Path_2592" data-name="Path 2592" d="M554.934,681.766a.33.33,0,0,1-.253-.124c-.013-.02-.036-.054,0-.149l9.484-22.9c.039-.095.077-.112.142-.112a.33.33,0,0,1,.252.125c.013.02.036.054,0,.149l-9.484,22.9c-.039.1-.077.112-.142.112Z" transform="translate(-554.663 -658.483)"/>
                    </g>
                    <g id="Group_1915" data-name="Group 1915" transform="translate(0 37.314)">
                      <path id="Path_2593" data-name="Path 2593" d="M465.915,824.2a.332.332,0,0,1-.252-.125c-.013-.02-.036-.054,0-.149l28.1-67.844c.039-.1.077-.112.142-.112a.33.33,0,0,1,.252.124c.013.021.036.054,0,.15l-28.1,67.844c-.039.1-.077.112-.143.112Z" transform="translate(-465.645 -755.967)"/>
                    </g>
                  </g>
                  <g id="Group_1919" data-name="Group 1919" transform="translate(137.065 113.361)">
                    <g id="Group_1917" data-name="Group 1917">
                      <path id="Path_2594" data-name="Path 2594" d="M637.956,681.766c-.065,0-.1-.016-.143-.111l-9.484-22.9c-.04-.1-.016-.129,0-.149a.329.329,0,0,1,.252-.124c.065,0,.1.017.143.111l9.485,22.9c.039.1.017.129,0,.149A.329.329,0,0,1,637.956,681.766Z" transform="translate(-628.306 -658.484)"/>
                    </g>
                    <g id="Group_1918" data-name="Group 1918" transform="translate(15.456 37.315)">
                      <path id="Path_2595" data-name="Path 2595" d="M696.953,824.2c-.066,0-.1-.016-.144-.111l-28.1-67.844c-.039-.1-.016-.129,0-.15a.329.329,0,0,1,.252-.124c.065,0,.1.016.143.111l28.1,67.844c.039.1.017.129,0,.149a.329.329,0,0,1-.252.124Z" transform="translate(-668.686 -755.969)"/>
                    </g>
                  </g>
                  <g id="Group_1922" data-name="Group 1922" transform="translate(150.315 113.157)">
                    <g id="Group_1920" data-name="Group 1920">
                      <path id="Path_2596" data-name="Path 2596" d="M686.025,633.784a.251.251,0,0,1-.091-.022l-22.9-9.484c-.062-.026-.134-.055-.106-.2.021-.1.1-.215.177-.215a.25.25,0,0,1,.091.022l22.9,9.484c.063.026.135.055.106.2-.021.1-.1.215-.177.215Z" transform="translate(-662.923 -623.864)"/>
                    </g>
                    <g id="Group_1921" data-name="Group 1921" transform="translate(37.315 15.456)">
                      <path id="Path_2597" data-name="Path 2597" d="M828.456,692.781a.257.257,0,0,1-.091-.022l-67.844-28.1c-.063-.026-.134-.056-.106-.2.02-.1.1-.215.177-.215a.26.26,0,0,1,.091.022l67.844,28.1c.064.026.135.056.106.2-.02.1-.1.215-.177.215Z" transform="translate(-760.408 -664.244)"/>
                    </g>
                  </g>
                  <g id="Group_1925" data-name="Group 1925" transform="translate(150.316 61.754)">
                    <g id="Group_1923" data-name="Group 1923" transform="translate(0 34.074)">
                      <path id="Path_2598" data-name="Path 2598" d="M663.107,560.139c-.078,0-.156-.113-.176-.215-.028-.144.043-.173.105-.2l22.9-9.484a.256.256,0,0,1,.092-.023c.078,0,.156.113.176.214.028.144-.043.174-.106.2l-22.9,9.484A.255.255,0,0,1,663.107,560.139Z" transform="translate(-662.925 -550.219)"/>
                    </g>
                    <g id="Group_1924" data-name="Group 1924" transform="translate(37.314)">
                      <path id="Path_2599" data-name="Path 2599" d="M760.592,489.739c-.079,0-.156-.113-.176-.214-.028-.144.043-.173.106-.2l67.844-28.1a.253.253,0,0,1,.092-.022c.079,0,.155.113.176.214.028.144-.042.173-.106.2l-67.844,28.1a.261.261,0,0,1-.092.022Z" transform="translate(-760.41 -461.201)"/>
                    </g>
                  </g>
                  <g id="Group_1928" data-name="Group 1928" transform="translate(137.065)">
                    <g id="Group_1926" data-name="Group 1926" transform="translate(0 82.261)">
                      <path id="Path_2600" data-name="Path 2600" d="M628.578,503.972a.329.329,0,0,1-.252-.124c-.014-.02-.037-.054,0-.15l9.484-22.9c.039-.1.077-.112.143-.112a.329.329,0,0,1,.252.124c.014.02.036.054,0,.15l-9.485,22.9c-.039.095-.077.112-.142.112Z" transform="translate(-628.307 -480.689)"/>
                    </g>
                    <g id="Group_1927" data-name="Group 1927" transform="translate(15.456)">
                      <path id="Path_2601" data-name="Path 2601" d="M668.957,334.01a.329.329,0,0,1-.252-.124c-.014-.021-.036-.055,0-.15l28.1-67.844c.039-.1.077-.112.143-.112a.329.329,0,0,1,.252.124c.014.021.036.055,0,.15L669.1,333.9c-.039.1-.077.112-.142.112Z" transform="translate(-668.686 -265.78)"/>
                    </g>
                  </g>
                </g>
                <g id="Group_1938" data-name="Group 1938" transform="translate(0 25.455)">
                  <g id="Group_1930" data-name="Group 1930" transform="translate(138.997)">
                    <path id="Path_2602" data-name="Path 2602" d="M604.1,414.338c-.212,0-.212-.122-.212-.18v-81.7c0-.059,0-.18.211-.18s.212.122.212.18v81.7c0,.095-.028.119-.041.129A.275.275,0,0,1,604.1,414.338Z" transform="translate(-603.889 -332.282)"/>
                  </g>
                  <g id="Group_1931" data-name="Group 1931" transform="translate(66.662 29.929)">
                    <path id="Path_2603" data-name="Path 2603" d="M472.856,468.664c-.013,0-.049,0-.112-.063l-57.767-57.767c-.073-.073-.074-.114-.049-.175a.31.31,0,0,1,.237-.188c.012,0,.049,0,.112.063L473.044,468.3c.072.073.073.114.049.175a.312.312,0,0,1-.237.188Z" transform="translate(-414.913 -410.472)"/>
                  </g>
                  <g id="Group_1932" data-name="Group 1932" transform="translate(0 83.786)">
                    <path id="Path_2604" data-name="Path 2604" d="M240.938,599.87c-.059,0-.181,0-.181-.211s.122-.212.181-.212H359.367c.059,0,.181,0,.181.211s-.122.212-.181.212Z" transform="translate(-240.757 -599.447)"/>
                  </g>
                  <g id="Group_1933" data-name="Group 1933" transform="translate(66.663 79.873)">
                    <path id="Path_2605" data-name="Path 2605" d="M415.165,695.69a.31.31,0,0,1-.236-.188c-.026-.061-.024-.1.048-.175l57.767-57.767c.063-.063.1-.063.112-.063a.312.312,0,0,1,.236.188c.025.06.024.1-.048.174l-57.767,57.768c-.064.063-.1.063-.112.063Z" transform="translate(-414.915 -637.497)"/>
                  </g>
                  <g id="Group_1934" data-name="Group 1934" transform="translate(138.997 85.939)">
                    <path id="Path_2606" data-name="Path 2606" d="M604.1,735.4c-.212,0-.212-.122-.212-.181v-81.7c0-.059,0-.181.211-.181s.212.122.212.181v81.7c0,.095-.028.119-.041.13A.274.274,0,0,1,604.1,735.4Z" transform="translate(-603.889 -653.344)"/>
                  </g>
                  <g id="Group_1935" data-name="Group 1935" transform="translate(153.561 79.873)">
                    <path id="Path_2607" data-name="Path 2607" d="M699.882,695.69c-.013,0-.05,0-.113-.063L642,637.86c-.072-.073-.073-.114-.049-.174a.313.313,0,0,1,.237-.188c.012,0,.049,0,.112.063l57.767,57.767c.072.073.074.114.049.174a.313.313,0,0,1-.237.188Z" transform="translate(-641.938 -637.498)"/>
                  </g>
                  <g id="Group_1936" data-name="Group 1936" transform="translate(159.627 83.786)">
                    <path id="Path_2608" data-name="Path 2608" d="M657.968,599.87c-.059,0-.181,0-.181-.211s.122-.212.181-.212h81.7c.059,0,.181,0,.181.211s-.122.212-.181.212Z" transform="translate(-657.787 -599.447)"/>
                  </g>
                  <g id="Group_1937" data-name="Group 1937" transform="translate(153.561 29.929)">
                    <path id="Path_2609" data-name="Path 2609" d="M642.19,468.664a.312.312,0,0,1-.236-.188c-.025-.06-.024-.1.048-.175l57.767-57.768c.063-.063.1-.063.112-.063a.311.311,0,0,1,.236.188c.025.06.024.1-.048.174L642.3,468.6c-.064.063-.1.063-.113.063Z" transform="translate(-641.939 -410.471)"/>
                  </g>
                </g>
              </g>
            </g>
            <g id="Group_1971" data-name="Group 1971" transform="translate(-0.42 120.636)">
              <g id="Group_1941" data-name="Group 1941" transform="translate(7.077 7.462)">
                <path id="Path_2610" data-name="Path 2610" d="M750.549,724.262a38.381,38.381,0,0,1,1.471-4.7,32.017,32.017,0,0,1,5.5-10.142c5.982-7.4,14.786-11.953,23.627-15.027a127.939,127.939,0,0,1,29.271-5.959c1.689-.169,3.381-.307,5.074-.431-.548-.1-1.1-.193-1.644-.287q-5.922-1.011-11.862-1.917c-17.854-2.723-35.814-4.747-53.817-6.175,0,.592-.005,1.185,0,1.777.037,9.509.15,19.029.654,28.526.2,3.828.418,7.691.969,11.49.142-.089.286-.17.424-.265-.051.542-.1,1.083-.146,1.625C750.2,723.233,750.379,723.745,750.549,724.262Z" transform="translate(-298.629 -543.695)"/>
                <path id="Path_2611" data-name="Path 2611" d="M523.929,774.373c-.269.078-.135.519,0,0Z" transform="translate(-241.659 -567.751)"/>
                <path id="Path_2612" data-name="Path 2612" d="M928.2,722.919a1.99,1.99,0,0,1,.785-.244c18.251-1.848,38.551-9.384,51.359-23.4-12-.195-24.251-3.158-35.687-6.225-14.775-3.963-29.653-9.054-42.916-16.8a1.9,1.9,0,0,1-.616-.2c-12.777-7.065-24.982-15.168-37.744-22.209-1.058,5.6-2.4,11.122-5.482,16.022A31.6,31.6,0,0,1,842.931,682.6a27.877,27.877,0,0,1-3.326,1.042,10.959,10.959,0,0,1-2.611.877c-5.259,1.059-11.3.261-16.667.589-13.952.853-28.454,2.893-41.318,8.636a44.54,44.54,0,0,0-14.765,10.052c-3.208,3.476-4.768,7.267-6.242,11.413,11.473-8.553,26.565-9.319,40.237-6.979,13.134,2.247,25.724,7.274,37.632,13.132,8.2,4.034,16.052,8.662,23.891,13.344q6.256,3.736,12.514,7.47c.969.578,8.985,5.282,8.018,5.8a1.868,1.868,0,0,1,1.887,0c23.015,15.8,53.989,27.32,82.72,24.357-17.139-10.189-30.111-28.366-37.433-46.589a1.759,1.759,0,0,1-.2-.486c-.028-.07-.059-.14-.087-.21A1.528,1.528,0,0,1,928.2,722.919Z" transform="translate(-301.127 -537.146)"/>
                <path id="Path_2613" data-name="Path 2613" d="M640,626.138q23.923,1.985,47.7,5.429c7.232,1.048,14.963,1.655,22.021,3.554l-1.235.641.891-.376a13.594,13.594,0,0,0,1.488-.067c1.4.078,2.919,1.062,4.3,1.409a18.908,18.908,0,0,0,10.158-.284c17.7-5.367,18.012-28.322,21.083-43.166,1.753-8.48,4.968-17.6,2.774-26.256a26.022,26.022,0,0,0-15.449-17.553q-12.723-4.786-25.6-9.138C636.2,516.07,560.387,500.8,484.453,497.937c-35.948-1.358-72.186-.027-107.806,5.185-14.272,2.089-29.837,3.919-43.467,8.807-18.821,6.749-17.092,27.4-17.984,43.779L311.918,615.9c-.871,16-4.64,34.873,12.144,44.125,13.991,7.712,29.251-1.452,42.87-5.833,16.291-5.239,32.827-9.711,49.508-13.529C489.52,623.937,565.377,619.942,640,626.138Z" transform="translate(-187.624 -497.44)"/>
                <path id="Path_2614" data-name="Path 2614" d="M270.583,764.077l7.385-3.662q8.945-4.438,17.89-8.882a327.065,327.065,0,0,1,32.733-14.351c22.888-8.38,50.688-15.277,74.472-6.182a48.245,48.245,0,0,1,17.244,11.036c.035.035.066.075.1.11a18.635,18.635,0,0,0-1.516-2.623,33.671,33.671,0,0,0-10.323-9.053c-19.54-11.768-45.086-13.987-67.342-15.4a365.223,365.223,0,0,0-41.17-.507,2.009,2.009,0,0,1-1.318-.363A33.072,33.072,0,0,1,261.4,679.76c.087-3.264.236-6.529.407-9.795-5.37,2.713-10.759,5.373-16.217,7.859a2.868,2.868,0,0,1-.806.219c-17.055,8.3-35.819,13.134-54.388,16.6-14.439,2.7-29.882,5.254-44.736,4.294,14.4,18.654,39.12,29.812,61.457,33.791a1.907,1.907,0,0,1,1.627,2.332,2.387,2.387,0,0,1-.248,1.058c-10.611,21.848-28.458,43.095-50.565,54.134a136.34,136.34,0,0,0,26.014,1.129c27.467-1.035,54.047-9.271,77.772-23.039a2.305,2.305,0,0,1,2.329,0C262.762,767.525,269.525,764.6,270.583,764.077Z" transform="translate(-145.66 -541.242)"/>
                <path id="Path_2615" data-name="Path 2615" d="M488.414,727.523c.411-9.625.472-19.265.418-28.9-.025-4.367-.087-8.735-.161-13.1a644.55,644.55,0,0,0-79.783,16.337q-13.267,3.62-26.353,7.865c-3.573,1.164-7.166,2.588-10.782,3.953,10.895-.05,21.813.418,32.634,1.279,20.935,1.666,44.007,4.328,62.59,14.87,7.087,4.021,12.822,9.363,16.084,16.9a24.065,24.065,0,0,0,2.34,4.731v-.006a26.33,26.33,0,0,1,.833-2.612C488,741.979,488.114,734.555,488.414,727.523Z" transform="translate(-203.063 -545.192)"/>
              </g>
              <g id="Group_1942" data-name="Group 1942" transform="translate(128.276 147.774)">
                <path id="Path_2616" data-name="Path 2616" d="M310.115,705.039l-2.014-1.251a30.873,30.873,0,0,1,4.732-5.865,39.868,39.868,0,0,1,16.259-9.119,97.482,97.482,0,0,1,18.155-3.305l.254,2.357a93.747,93.747,0,0,0-17.713,3.214,37.528,37.528,0,0,0-15.306,8.556A28.428,28.428,0,0,0,310.115,705.039Z" transform="translate(-308.101 -685.498)" fill="#666"/>
              </g>
              <g id="Group_1943" data-name="Group 1943" transform="translate(152.714 152.468)">
                <path id="Path_2617" data-name="Path 2617" d="M342.119,702.921l-1.264-2.006c6.873-4.333,15.006-5.47,22.871-6.57a98.162,98.162,0,0,0,13.6-2.556l.66,2.276a99.844,99.844,0,0,1-13.931,2.627C356.086,697.807,348.562,698.86,342.119,702.921Z" transform="translate(-340.855 -691.789)" fill="#666"/>
              </g>
              <g id="Group_1944" data-name="Group 1944" transform="translate(130.077 109.195)">
                <path id="Path_2618" data-name="Path 2618" d="M310.646,644.736c-.425-1.146.193-2.328,1.653-3.162,11.308-6.469,24.854-7.167,36.8-7.782l.122,2.367c-11.687.6-24.933,1.283-35.75,7.472a1.689,1.689,0,0,0-.6.5.331.331,0,0,0,0-.217Z" transform="translate(-310.514 -633.792)" fill="#666"/>
              </g>
              <g id="Group_1945" data-name="Group 1945" transform="translate(129.135 82.103)">
                <path id="Path_2619" data-name="Path 2619" d="M310.086,612.883l-.833-2.22a230.056,230.056,0,0,1,54.923-13.184l.266,2.356A227.71,227.71,0,0,0,310.086,612.883Z" transform="translate(-309.253 -597.48)" fill="#666"/>
              </g>
              <g id="Group_1946" data-name="Group 1946" transform="translate(160.529 101.575)">
                <path id="Path_2620" data-name="Path 2620" d="M351.744,627.333,351.33,625a92.232,92.232,0,0,1,20.991-1.292l-.125,2.367A89.907,89.907,0,0,0,351.744,627.333Z" transform="translate(-351.33 -623.579)" fill="#666"/>
              </g>
              <g id="Group_1947" data-name="Group 1947" transform="translate(153.495 126.531)">
                <rect id="Rectangle_3545" data-name="Rectangle 3545" width="7.135" height="2.37" transform="translate(0 0.697) rotate(-5.603)" fill="#666"/>
              </g>
              <g id="Group_1948" data-name="Group 1948" transform="translate(204.484 104.292)">
                <path id="Path_2621" data-name="Path 2621" d="M410.63,636.786l-.389-2.338c16.6-2.761,33.478-5.192,50.157-7.228l.287,2.353C444.04,631.6,427.2,634.031,410.63,636.786Z" transform="translate(-410.241 -627.22)" fill="#666"/>
              </g>
              <g id="Group_1949" data-name="Group 1949" transform="translate(134.857 34.954)">
                <path id="Path_2622" data-name="Path 2622" d="M317.444,545.895l-.523-2.311c15.847-3.592,32.234-7.306,48.679-9.3l.284,2.353C349.56,538.617,333.235,542.317,317.444,545.895Z" transform="translate(-316.921 -534.287)" fill="#666"/>
              </g>
              <g id="Group_1950" data-name="Group 1950" transform="translate(173.541 40.117)">
                <path id="Path_2623" data-name="Path 2623" d="M369.255,547.295l-.486-2.32a192.181,192.181,0,0,1,28.256-3.768l.137,2.367A189.818,189.818,0,0,0,369.255,547.295Z" transform="translate(-368.769 -541.207)" fill="#666"/>
              </g>
              <g id="Group_1951" data-name="Group 1951" transform="translate(217.08 19.903)">
                <rect id="Rectangle_3546" data-name="Rectangle 3546" width="34.696" height="2.37" transform="translate(0 4.438) rotate(-7.35)" fill="#666"/>
              </g>
              <g id="Group_1952" data-name="Group 1952" transform="translate(303.377 27.37)">
                <rect id="Rectangle_3547" data-name="Rectangle 3547" width="48.208" height="2.371" transform="translate(0 0.895) rotate(-1.064)" fill="#666"/>
              </g>
              <g id="Group_1953" data-name="Group 1953" transform="translate(277.098 46.643)">
                <path id="Path_2624" data-name="Path 2624" d="M508.047,554.857l-.482-2.321a123.539,123.539,0,0,1,30.7-2.457l-.107,2.368A121.284,121.284,0,0,0,508.047,554.857Z" transform="translate(-507.565 -549.954)" fill="#666"/>
              </g>
              <g id="Group_1954" data-name="Group 1954" transform="translate(349.208 50.978)">
                <path id="Path_2625" data-name="Path 2625" d="M683.757,566.589a330.6,330.6,0,0,0-79.506-8.414l-.037-2.37a333.471,333.471,0,0,1,80.076,8.474Z" transform="translate(-604.213 -555.764)" fill="#666"/>
              </g>
              <g id="Group_1955" data-name="Group 1955" transform="translate(428.724 51.093)">
                <path id="Path_2626" data-name="Path 2626" d="M726.031,560.322a55.767,55.767,0,0,1-15.244-2.123l.648-2.28a53.439,53.439,0,0,0,17.38,1.961l.122,2.367Q727.482,560.321,726.031,560.322Z" transform="translate(-710.787 -555.918)" fill="#666"/>
              </g>
              <g id="Group_1956" data-name="Group 1956" transform="translate(436.1 41.825)">
                <path id="Path_2627" data-name="Path 2627" d="M768.267,550.042a194.67,194.67,0,0,0-47.5-4.033l-.09-2.368a196.727,196.727,0,0,1,48.082,4.082Z" transform="translate(-720.673 -543.496)" fill="#666"/>
              </g>
              <g id="Group_1957" data-name="Group 1957" transform="translate(245.873 124.054)">
                <path id="Path_2628" data-name="Path 2628" d="M466.182,665.562l-.468-2.324,35.437-7.119c6.279-1.261,12.772-2.573,19.364-2.4l-.06,2.37c-6.328-.157-12.686,1.116-18.836,2.351Z" transform="translate(-465.714 -653.707)" fill="#666"/>
              </g>
              <g id="Group_1958" data-name="Group 1958" transform="translate(296.906 116.653)">
                <rect id="Rectangle_3548" data-name="Rectangle 3548" width="16.371" height="2.371" transform="translate(0 2.462) rotate(-8.65)" fill="#666"/>
              </g>
              <g id="Group_1959" data-name="Group 1959" transform="translate(355.124 88.895)">
                <path id="Path_2629" data-name="Path 2629" d="M659.116,609.9c-15.553-.913-31.337-1.166-46.912-.753l-.063-2.369c15.639-.418,31.493-.163,47.113.756Z" transform="translate(-612.142 -606.584)" fill="#666"/>
              </g>
              <g id="Group_1960" data-name="Group 1960" transform="translate(333.63 79.059)">
                <path id="Path_2630" data-name="Path 2630" d="M583.736,596.695l-.4-2.336a66.039,66.039,0,0,1,14.872-.857l-.132,2.367A63.677,63.677,0,0,0,583.736,596.695Z" transform="translate(-583.334 -593.4)" fill="#666"/>
              </g>
              <g id="Group_1961" data-name="Group 1961" transform="translate(313.206 70.663)">
                <path id="Path_2631" data-name="Path 2631" d="M566.32,584.77c-3.461,0-6.925-.085-10.36-.254l.117-2.368c5.606.277,11.292.325,16.9.146l.077,2.369Q569.7,584.769,566.32,584.77Z" transform="translate(-555.96 -582.147)" fill="#666"/>
              </g>
              <g id="Group_1962" data-name="Group 1962" transform="translate(372.511 111.747)">
                <path id="Path_2632" data-name="Path 2632" d="M718.271,646.9a339.308,339.308,0,0,0-82.738-7.077l-.088-2.37a342.012,342.012,0,0,1,83.314,7.127Z" transform="translate(-635.445 -637.212)" fill="#666"/>
              </g>
              <g id="Group_1963" data-name="Group 1963" transform="translate(472.754 116.764)">
                <path id="Path_2633" data-name="Path 2633" d="M793.638,648.983a51.942,51.942,0,0,0-23.515-2.2l-.324-2.348a54.341,54.341,0,0,1,24.594,2.3Z" transform="translate(-769.799 -643.935)" fill="#666"/>
              </g>
              <g id="Group_1964" data-name="Group 1964" transform="translate(499.617 114.398)">
                <rect id="Rectangle_3549" data-name="Rectangle 3549" width="2.371" height="9.162" transform="translate(0 2.357) rotate(-83.723)" fill="#666"/>
              </g>
              <g id="Group_1965" data-name="Group 1965" transform="translate(514.747 129.468)">
                <path id="Path_2634" data-name="Path 2634" d="M849.684,668.673a59.738,59.738,0,0,0-23.6-5.339l.04-2.37a62.132,62.132,0,0,1,24.546,5.553Z" transform="translate(-826.082 -660.963)" fill="#666"/>
              </g>
              <g id="Group_1966" data-name="Group 1966" transform="translate(530.906 105.072)">
                <path id="Path_2635" data-name="Path 2635" d="M881.012,635.425a89.63,89.63,0,0,0-33.154-4.685l-.118-2.367a91.945,91.945,0,0,1,34.041,4.81Z" transform="translate(-847.74 -628.265)" fill="#666"/>
              </g>
              <g id="Group_1967" data-name="Group 1967" transform="translate(558.369 98.7)">
                <path id="Path_2636" data-name="Path 2636" d="M891.8,624.5a27.95,27.95,0,0,0-7.253-2.446l.442-2.329a30.367,30.367,0,0,1,7.868,2.652Z" transform="translate(-884.548 -619.725)" fill="#666"/>
              </g>
              <g id="Group_1968" data-name="Group 1968" transform="translate(511.619 69.089)">
                <path id="Path_2637" data-name="Path 2637" d="M877.719,596.349c-9.37-4.806-19.057-9.776-29.6-11.4a100.88,100.88,0,0,0-10.9-.869c-5.063-.219-10.3-.446-15.334-1.747l.592-2.295c4.8,1.239,9.9,1.46,14.843,1.674a102.639,102.639,0,0,1,11.161.895c10.916,1.683,20.778,6.741,30.314,11.633Z" transform="translate(-821.889 -580.038)" fill="#666"/>
              </g>
              <g id="Group_1969" data-name="Group 1969" transform="translate(546.672 66.842)">
                <path id="Path_2638" data-name="Path 2638" d="M876.445,581.045a30.728,30.728,0,0,0-7.575-1.657l.21-2.361a33.128,33.128,0,0,1,8.16,1.783Z" transform="translate(-868.87 -577.027)" fill="#666"/>
              </g>
              <g id="Group_1970" data-name="Group 1970" transform="translate(503.061 58.285)">
                <path id="Path_2639" data-name="Path 2639" d="M826.128,572.06a144.279,144.279,0,0,0-15.709-4.181l.48-2.322a146.825,146.825,0,0,1,15.968,4.251Z" transform="translate(-810.419 -565.557)" fill="#666"/>
              </g>
              <path id="Path_2640" data-name="Path 2640" d="M826.525,653.253c-12.981.509-26.306-2.718-38.752-6.057-14.7-3.942-29.46-8.967-42.6-16.75a1.76,1.76,0,0,0-.637-.219c-12.942-7.2-25.319-15.477-38.315-22.559.277-1.543.557-3.083.872-4.607,3.38-16.341,10.687-35.023.572-50.369a34.681,34.681,0,0,0-16.319-12.959c-76.238-28.682-157.482-46.616-238.855-51.214a612.137,612.137,0,0,0-116.6,4.083c-16.011,2.17-32.846,4.381-48.285,9.322-14.618,4.678-22.342,17.634-23.21,32.363-1.3,22.023-2.4,44.059-3.6,66.088-.328,6.01-.74,12.03-1.1,18.051-5.951,2.967-11.927,5.9-17.987,8.677a2.625,2.625,0,0,0-.884.244c-16.878,8.339-35.629,13.065-54.059,16.506-15.6,2.914-32.38,5.607-48.284,3.7-1.734-.207-2.884,2.115-1.992,3.472,13.932,21.184,39.88,34.329,64.186,39.268-11.332,21.953-30.169,43.315-53.316,52.232-1.986.765-2.388,3.849,0,4.45,12.862,3.237,26.936,3.316,40.057,2.347a169.012,169.012,0,0,0,40.233-7.94,174.757,174.757,0,0,0,19.967-7.974c4.083-1.924,7.936-4.338,12.007-6.255l-.2-1.1a2.306,2.306,0,0,0,1.165.315c1.47-.677,3.107-1.274,4.606-2.016,28.22-13.958,56.249-29.776,87.308-36.47,16.492-3.554,35.327-4.827,50.883,2.975a41.949,41.949,0,0,1,13.03,10.02c2.05,2.376,3.9,7.651,6.646,8.936a2.381,2.381,0,0,0,3.158-.827,6.114,6.114,0,0,0,.889-3.23,4.813,4.813,0,0,0,2.132-1.927c2.936-4.5,2.859-11.821,3.273-16.939.766-9.459.93-18.971.991-28.457.05-7.939-.019-15.881-.163-23.822,51.514-6.908,103.852-7.935,155.636-4.069.007,9.092.109,18.187.5,27.269.216,5.072-.3,12.49,1.281,18.095-.057.624-.111,1.247-.175,1.87-.231,2.236-1.208,5.112-.043,7.183a1.884,1.884,0,0,0,2.111.859c2.3-.868,3.612-4.095,5.268-5.9a32.823,32.823,0,0,1,8.6-6.646c11.556-6.24,25.628-5.494,38.035-2.65,24.783,5.68,46.413,19.675,67.964,32.528,3.651,2.178,7.7,4.2,11.254,6.033,1.059.546,4.358,3.573,6.376,4.8q5.125,3.1,10.505,5.754a136.953,136.953,0,0,0,33.242,11.414c12.716,2.581,26.609,4,39.52,1.8a1.886,1.886,0,0,0,.446-3.416c-18.257-8.772-32.3-27.079-40.1-45.693,19.835-2.539,41.534-11.241,54.086-27.4C828.757,655.271,828.309,653.183,826.525,653.253ZM417.9,695.7a48.245,48.245,0,0,0-17.244-11.036c-23.784-9.1-51.584-2.2-74.472,6.182a327.084,327.084,0,0,0-32.733,14.351q-8.948,4.436-17.89,8.882-3.692,1.832-7.385,3.662c-1.058.525-7.821,3.448-6.537,4.265a2.305,2.305,0,0,0-2.329,0c-23.725,13.769-50.3,22-77.772,23.039a136.33,136.33,0,0,1-26.014-1.129c22.107-11.039,39.953-32.286,50.565-54.134a2.387,2.387,0,0,0,.248-1.058,1.907,1.907,0,0,0-1.627-2.332c-22.337-3.978-47.06-15.136-61.457-33.791,14.854.96,30.3-1.6,44.736-4.294,18.568-3.467,37.333-8.306,54.388-16.6a2.866,2.866,0,0,0,.806-.219c5.459-2.486,10.848-5.146,16.217-7.859-.171,3.266-.32,6.531-.407,9.795a33.072,33.072,0,0,0,37.335,34.444,2.009,2.009,0,0,0,1.318.363,365.238,365.238,0,0,1,41.17.507c22.257,1.41,47.8,3.629,67.342,15.4a33.669,33.669,0,0,1,10.323,9.053A18.638,18.638,0,0,1,418,695.805C417.963,695.77,417.933,695.73,417.9,695.7Zm7.624,5.829c-.135.518-.269.078,0,0Zm3.081-24.292c-.3,7.032-.418,14.457-2.179,21.313a26.336,26.336,0,0,0-.833,2.612v.006a24.068,24.068,0,0,1-2.34-4.731c-3.262-7.535-9-12.877-16.084-16.9-18.583-10.543-41.655-13.2-62.59-14.87-10.821-.861-21.739-1.329-32.634-1.279,3.616-1.365,7.209-2.789,10.782-3.953q13.076-4.26,26.353-7.865a644.571,644.571,0,0,1,79.783-16.337c.074,4.368.137,8.736.161,13.1C429.075,657.966,429.015,667.607,428.6,677.232ZM372.068,638.12c-16.681,3.817-33.217,8.289-49.508,13.529-13.62,4.381-28.879,13.545-42.87,5.833-16.784-9.252-13.015-28.125-12.144-44.125l3.277-60.187c.892-16.384-.837-37.03,17.984-43.779,13.63-4.888,29.195-6.718,43.467-8.807,35.62-5.212,71.858-6.543,107.806-5.185,75.934,2.867,151.746,18.133,223.677,42.393q12.879,4.343,25.6,9.138a26.022,26.022,0,0,1,15.449,17.553c2.194,8.658-1.021,17.777-2.774,26.256-3.071,14.845-3.378,37.8-21.083,43.166a18.908,18.908,0,0,1-10.158.284c-1.384-.346-2.9-1.331-4.3-1.409a13.593,13.593,0,0,1-1.488.067l-.891.376,1.235-.641c-7.058-1.9-14.789-2.506-22.021-3.555q-23.758-3.446-47.7-5.429C521.005,617.4,445.148,621.4,372.068,638.12Zm224.573,32.648a38.389,38.389,0,0,0-1.471,4.7c-.169-.518-.345-1.03-.482-1.485.049-.542.095-1.083.146-1.625-.138.095-.283.176-.424.265-.551-3.8-.765-7.662-.969-11.49-.5-9.5-.616-19.017-.654-28.526,0-.592,0-1.185,0-1.777,18,1.428,35.963,3.451,53.817,6.175q5.938.907,11.862,1.917c.548.094,1.1.191,1.644.287-1.693.124-3.384.261-5.074.431a127.93,127.93,0,0,0-29.271,5.959c-8.841,3.074-17.645,7.624-23.627,15.027A32.019,32.019,0,0,0,596.642,670.768Zm174.465,9.662a1.991,1.991,0,0,0-.785.244,1.528,1.528,0,0,0-1.017,2.122c.028.07.059.14.087.21a1.763,1.763,0,0,0,.2.486c7.322,18.222,20.294,36.4,37.433,46.589-28.731,2.964-59.706-8.554-82.721-24.357a1.868,1.868,0,0,0-1.887,0c.966-.514-7.05-5.219-8.018-5.8q-6.258-3.732-12.514-7.47c-7.839-4.682-15.693-9.309-23.891-13.344-11.908-5.858-24.5-10.885-37.632-13.132-13.673-2.34-28.764-1.574-40.237,6.979,1.474-4.145,3.034-7.936,6.242-11.412A44.537,44.537,0,0,1,621.134,651.5c12.864-5.743,27.366-7.784,41.318-8.636,5.367-.328,11.408.47,16.667-.589a10.96,10.96,0,0,0,2.611-.877,27.878,27.878,0,0,0,3.325-1.042,31.6,31.6,0,0,0,14.967-12.747c3.084-4.9,4.424-10.422,5.482-16.022,12.761,7.041,24.966,15.145,37.744,22.21a1.9,1.9,0,0,0,.616.2c13.262,7.749,28.14,12.841,42.916,16.8,11.436,3.067,23.684,6.031,35.687,6.226C809.658,671.046,789.358,678.582,771.107,680.43Z" transform="translate(-136.175 -487.439)" fill="#fff"/>
            </g>
          </g>
        </g>
      </g>
    </g>
    <g id="Group_1977" data-name="Group 1977" transform="translate(3887.417 3110.895)">
      <text id="Club_info" data-name="Club info" transform="translate(340.583 89.105)" fill="#fff" font-size="47" font-family="Gotham-Bold, Gotham" font-weight="700" letter-spacing="0.01em"><tspan x="-219.913" y="0">Club info</tspan></text>
      <g id="football-club-flag" transform="translate(19 10.241)">
        <g id="Group_1975" data-name="Group 1975" transform="translate(0)">
          <path id="Path_2641" data-name="Path 2641" d="M138.822,368.232a.68.68,0,0,0,1,.676l34.794-13.941a3.031,3.031,0,0,1,2,0l34.654,13.952a.68.68,0,0,0,1-.676V297.7H138.822Zm40.471-59.381a15.579,15.579,0,0,1,11.945-4.862,14.651,14.651,0,0,1,10.5,3.821,13.956,13.956,0,0,1,3.606,6.482l-7.041,1.685a7.284,7.284,0,0,0-7.427-5.914,8,8,0,0,0-6.353,2.812c-1.621,1.878-2.436,4.9-2.436,9.1q0,6.681,2.4,9.509a7.8,7.8,0,0,0,6.246,2.833,7.094,7.094,0,0,0,4.872-1.8,10.442,10.442,0,0,0,2.93-5.667l6.89,2.189q-1.577,5.763-5.27,8.564a16.591,16.591,0,0,1-20.9-2q-4.524-4.8-4.518-13.1Q174.759,313.713,179.293,308.851Zm-33.3-4.261h24.148v5.956H153.107v8.339h14.7v5.956h-14.7v14.971h-7.115Z" transform="translate(-132.973 -265.75)" fill="#fff"/>
          <path id="Path_2642" data-name="Path 2642" d="M166.4,22.881h-5.227L133.7,8.586a6.931,6.931,0,1,0-13.662-1.653,6.862,6.862,0,0,0,.215,1.7L92.564,22.881H87.381a3.059,3.059,0,1,0,0,6.117H166.4a3.059,3.059,0,1,0,0-6.117ZM126.961,3.209a3.715,3.715,0,0,1,3.713,3.713v.1a3.728,3.728,0,0,1-1.47,2.866,3.719,3.719,0,0,1-5.956-2.844V6.922A3.721,3.721,0,0,1,126.961,3.209ZM99.53,22.881l22.2-11.408a6.92,6.92,0,0,0,10.5-.032l21.915,11.441Z" transform="translate(-84.322)" fill="#fff"/>
          <rect id="Rectangle_3550" data-name="Rectangle 3550" width="70.722" height="47.492" transform="translate(7.227 34.093)" fill="#fff"/>
        </g>
      </g>
    </g>
  </g>
</svg>
