<svg xmlns="http://www.w3.org/2000/svg" width="56.791" height="56.788" viewBox="0 0 56.791 56.788">
  <g id="Group_1654" data-name="Group 1654" transform="translate(8245.001 -4779)">
    <g id="club" transform="translate(-8245.001 4779)">
      <path id="Path_1301" data-name="Path 1301" d="M6.628,56.808H50.165A2.843,2.843,0,0,0,53,53.969V21.333a2.95,2.95,0,0,0,2.384-5.34L29.874.437a2.828,2.828,0,0,0-2.956,0L1.4,16a2.956,2.956,0,0,0,2.39,5.348V53.969a2.843,2.843,0,0,0,2.84,2.84Zm16.089-1.893H11.361V35.986H22.718Zm28.393-.947a.947.947,0,0,1-.946.947H24.61V35.986a1.9,1.9,0,0,0-1.893-1.893H11.361a1.9,1.9,0,0,0-1.893,1.893V54.915H6.628a.947.947,0,0,1-.946-.947V20.312L27.9,6.783a.946.946,0,0,1,.985,0L51.111,20.313ZM3.519,19.414a1.064,1.064,0,0,1-1.128-1.8L27.9,2.053a.943.943,0,0,1,.985,0L54.4,17.605a1.064,1.064,0,0,1,.372,1.405,1.049,1.049,0,0,1-.66.526,1.061,1.061,0,0,1-.842-.127L29.873,5.166a2.831,2.831,0,0,0-2.952,0h0Zm0,0" transform="translate(0.001 -0.02)"/>
      <path id="Path_1302" data-name="Path 1302" d="M121.392,347.046h3.786a1.9,1.9,0,0,0,1.893-1.893V343.26a1.9,1.9,0,0,0-1.893-1.893h-3.786a1.9,1.9,0,0,0-1.893,1.893v1.893A1.9,1.9,0,0,0,121.392,347.046Zm0-3.786h3.786v1.893h-3.787Zm0,0" transform="translate(-106.246 -303.508)"/>
      <path id="Path_1303" data-name="Path 1303" d="M120.446,411.529v.946a.946.946,0,1,0,1.893,0v-.946a.946.946,0,1,0,0-1.893h-1.893a.946.946,0,0,0,0,1.893Zm0,0" transform="translate(-106.246 -364.206)"/>
      <path id="Path_1304" data-name="Path 1304" d="M166.947,107.227a5.678,5.678,0,1,0,4.658,9.84v3.342h-.947a.946.946,0,0,0,0,1.893h3.786a.946.946,0,1,0,0-1.893H173.5v-3.342a5.676,5.676,0,1,0,4.664-9.835,5.675,5.675,0,0,0-11.215-.006Zm9.345.3a1.9,1.9,0,0,0,1.576,1.569,3.786,3.786,0,1,1-3.261,6.425,2.86,2.86,0,0,0-4.1-.007,3.788,3.788,0,1,1-3.262-6.419,1.9,1.9,0,0,0,1.57-1.576,3.785,3.785,0,0,1,7.48.009Zm0,0" transform="translate(-144.155 -91.068)"/>
      <path id="Path_1305" data-name="Path 1305" d="M257.924,309.127v9.465h-.946a.946.946,0,1,0,0,1.893h17.036a.946.946,0,1,0,0-1.893h-.946v-9.465a1.9,1.9,0,0,0-1.893-1.893H259.817a1.9,1.9,0,0,0-1.893,1.893Zm6.625,9.465h-4.732v-3.786h4.732Zm1.893-3.786h1.893a.946.946,0,1,0,0-1.893h-1.893v-3.786h4.732v9.465h-4.732Zm-1.893-1.893h-4.732v-3.786h4.732Zm0,0" transform="translate(-227.635 -273.161)"/>
    </g>
  </g>
</svg>
