<svg xmlns="http://www.w3.org/2000/svg" width="23.847" height="24.333" viewBox="0 0 23.847 24.333">
  <g id="Group_1843" data-name="Group 1843" transform="translate(-245 -357)">
    <g id="Group_1829" data-name="Group 1829" transform="translate(245 357)">
      <g id="Group_1614" data-name="Group 1614" transform="translate(0 0)">
        <g id="surface1">
          <path id="Path_1630" data-name="Path 1630" d="M.536,6.723a.984.984,0,0,0-.015.146v1a.992.992,0,0,0,.644.926v1.473a.926.926,0,0,0,.882.922V19.7a.926.926,0,0,0-.882.922v1.469a1,1,0,0,0-.644.935V24a.331.331,0,0,0,.331.331H23.158A.331.331,0,0,0,23.489,24v-.979a1,1,0,0,0-.644-.935V20.612a.926.926,0,0,0-.882-.922v-8.5a.926.926,0,0,0,.882-.922V8.8a.992.992,0,0,0,.644-.926V6.875a.961.961,0,0,0-.015-.146.329.329,0,0,0,.267-.6L12.157.039a.331.331,0,0,0-.309,0L.265,6.121a.331.331,0,0,0,.271.6Zm1.29,2.646V8.859H5.641v.505Zm8.494,1.824V19.7a.926.926,0,0,0-.882.922v1.407H6.3V20.621a.926.926,0,0,0-.882-.922V11.19a.926.926,0,0,0,.882-.922V8.859H9.434v1.407a.926.926,0,0,0,.882.924ZM10.1,9.369V8.859h3.815v.505Zm8.494,1.824V19.7a.926.926,0,0,0-.882.922v1.407h-3.14V20.621a.926.926,0,0,0-.882-.922V11.19a.926.926,0,0,0,.882-.922V8.859h3.136v1.407a.926.926,0,0,0,.882.924Zm-.22-1.824V8.859h3.815v.505Zm3.815,12.154v.5H18.368v-.5Zm-8.273,0v.5H10.1v-.5ZM10.646,10.535H10.36a.264.264,0,0,1-.265-.265v-.24H13.91v.24a.264.264,0,0,1-.265.265Zm2.384.661v8.5H10.977V11.2Zm-2.384,9.16h3a.264.264,0,0,1,.265.265v.24H10.1v-.24a.264.264,0,0,1,.265-.265Zm-5.01,1.167v.5H1.822v-.5ZM1.822,10.277V10.03H5.637v.24a.265.265,0,0,1-.265.265H2.08a.265.265,0,0,1-.258-.267Zm2.933.926v8.492H2.7V11.2ZM1.822,20.628a.265.265,0,0,1,.265-.265H5.372a.265.265,0,0,1,.265.265v.24H1.822Zm21.005,2.41v.648H1.178v-.648A.342.342,0,0,1,1.52,22.7H22.485a.342.342,0,0,1,.342.335Zm-.644-2.41v.24H18.368v-.24a.265.265,0,0,1,.265-.265h3.292a.265.265,0,0,1,.258.258ZM19.25,19.7V11.2H21.3v8.5Zm2.933-9.424a.264.264,0,0,1-.265.265H18.635a.264.264,0,0,1-.265-.265V10.03h3.815ZM12,.7l9.85,5.177H2.153ZM1.178,6.875a.331.331,0,0,1,.331-.331H22.5a.331.331,0,0,1,.331.331v1a.331.331,0,0,1-.331.331H1.509a.331.331,0,0,1-.331-.331Zm0,0" transform="translate(-0.089 -0.001)" fill="#1d2128"/>
        </g>
      </g>
    </g>
  </g>
</svg>
