<svg id="school" xmlns="http://www.w3.org/2000/svg" width="48.671" height="48.671" viewBox="0 0 48.671 48.671">
  <g id="Group_1641" data-name="Group 1641" transform="translate(0 0)">
    <g id="Group_1640" data-name="Group 1640" transform="translate(0 0)">
      <path id="Path_1297" data-name="Path 1297" d="M47.86,0H.811A.811.811,0,0,0,0,.811H0V17.035H1.622V1.622H47.049V19.468H18.657v1.622h29.2a.811.811,0,0,0,.811-.811h0V.811A.811.811,0,0,0,47.86,0Z" transform="translate(0 0)"/>
    </g>
  </g>
  <g id="Group_1643" data-name="Group 1643" transform="translate(27.149 3.706)">
    <g id="Group_1642" data-name="Group 1642" transform="translate(0)">
      <rect id="Rectangle_3585" data-name="Rectangle 3585" width="16.12" height="1.697" transform="translate(0 0)"/>
    </g>
  </g>
  <g id="Group_1645" data-name="Group 1645" transform="translate(28.846 8.796)">
    <g id="Group_1644" data-name="Group 1644" transform="translate(0 0)">
      <rect id="Rectangle_3586" data-name="Rectangle 3586" width="16.12" height="1.697"/>
    </g>
  </g>
  <g id="Group_1647" data-name="Group 1647" transform="translate(25.452 13.886)">
    <g id="Group_1646" data-name="Group 1646" transform="translate(0 0)">
      <rect id="Rectangle_3587" data-name="Rectangle 3587" width="16.968" height="1.697"/>
    </g>
  </g>
  <g id="Group_1649" data-name="Group 1649" transform="translate(0 3.245)">
    <g id="Group_1648" data-name="Group 1648" transform="translate(0)">
      <path id="Path_1298" data-name="Path 1298" d="M25.893,35.749a2.618,2.618,0,0,0-3.422-1.411l-.068.029-6.577,3.412a4.011,4.011,0,0,0,.4-1.723,4.056,4.056,0,1,0-7.28,2.434H8.91a5.567,5.567,0,0,0-5.171,3.6L1.574,49.555a2.6,2.6,0,1,0,4.879,1.787l.848-2.7v11.74A4.044,4.044,0,0,0,2.037,66.5,3.737,3.737,0,0,0,0,69.818v6.8a.811.811,0,0,0,.811.811H8.923a.811.811,0,0,0,.811-.811h0v-6.8a3.728,3.728,0,0,0-1.448-2.937h6.14a3.728,3.728,0,0,0-1.448,2.937v6.8a.811.811,0,0,0,.811.811H21.9a.811.811,0,0,0,.811-.811h0v-6.8A3.737,3.737,0,0,0,20.677,66.5a4.052,4.052,0,0,0-3.642-6.87V43.038l7.447-3.867A2.618,2.618,0,0,0,25.893,35.749ZM12.168,33.622a2.434,2.434,0,1,1-2.434,2.434A2.434,2.434,0,0,1,12.168,33.622Zm-7.3,27.55a2.434,2.434,0,1,1-2.434,2.434A2.434,2.434,0,0,1,4.867,61.173ZM8.112,75.8H1.622V69.818a2.128,2.128,0,0,1,2.126-2.125H5.986a2.128,2.128,0,0,1,2.126,2.125Zm12.979-5.986V75.8H14.6V69.818a2.128,2.128,0,0,1,2.126-2.125h2.238A2.128,2.128,0,0,1,21.091,69.818Zm-3.245-8.645a2.434,2.434,0,1,1-2.434,2.434A2.436,2.436,0,0,1,17.846,61.173ZM24.409,37.1a1.043,1.043,0,0,1-.612.6L15.85,41.825a.811.811,0,0,0-.438.72V60.382a4,4,0,0,0-1.262,4.876H12.979V51.468H11.357v13.79H8.563a4.018,4.018,0,0,0,.357-1.622h0V43.357a.811.811,0,0,0-1.585-.243L4.916,50.821a.975.975,0,0,1-1.353.539,1,1,0,0,1-.453-1.288l2.165-7.464a3.919,3.919,0,0,1,3.635-2.5h5.744a.808.808,0,0,0,.374-.091l8.062-4.185a1,1,0,0,1,1.277.473A.987.987,0,0,1,24.409,37.1Z" transform="translate(0 -32)"/>
    </g>
  </g>
  <g id="Group_1651" data-name="Group 1651" transform="translate(25.958 30.786)">
    <g id="Group_1650" data-name="Group 1650">
      <path id="Path_1299" data-name="Path 1299" d="M263.7,310.58a4.056,4.056,0,1,0-5.735-.075l.075.075A3.737,3.737,0,0,0,256,313.894v6.8a.811.811,0,0,0,.811.811h8.112a.811.811,0,0,0,.811-.811h0v-6.8A3.737,3.737,0,0,0,263.7,310.58Zm-2.83-5.33a2.434,2.434,0,1,1-2.434,2.434A2.434,2.434,0,0,1,260.867,305.249Zm3.245,14.631h-6.49v-5.986a2.128,2.128,0,0,1,2.126-2.125h2.238a2.128,2.128,0,0,1,2.126,2.125Z" transform="translate(-256 -303.618)"/>
    </g>
  </g>
  <g id="Group_1653" data-name="Group 1653" transform="translate(38.937 30.786)">
    <g id="Group_1652" data-name="Group 1652">
      <path id="Path_1300" data-name="Path 1300" d="M391.7,310.58a4.056,4.056,0,1,0-5.736-.075l.075.075A3.737,3.737,0,0,0,384,313.894v6.8a.811.811,0,0,0,.811.811h8.112a.811.811,0,0,0,.811-.811h0v-6.8A3.737,3.737,0,0,0,391.7,310.58Zm-2.83-5.33a2.434,2.434,0,1,1-2.434,2.434A2.434,2.434,0,0,1,388.867,305.249Zm3.245,14.631h-6.489v-5.986a2.128,2.128,0,0,1,2.126-2.125h2.238a2.128,2.128,0,0,1,2.126,2.125Z" transform="translate(-384 -303.618)"/>
    </g>
  </g>
</svg>
