<svg xmlns="http://www.w3.org/2000/svg" width="28" height="31" viewBox="0 0 28 31">
  <path id="Icon_awesome-bell" data-name="Icon awesome-bell" d="M13.5,30a3.8,3.8,0,0,0,3.855-3.75H9.645A3.8,3.8,0,0,0,13.5,30Zm12.981-8.772c-1.164-1.216-3.343-3.046-3.343-9.04A9.325,9.325,0,0,0,15.427,3.1V1.875a1.928,1.928,0,0,0-3.855,0V3.1a9.325,9.325,0,0,0-7.711,9.091c0,5.994-2.179,7.824-3.343,9.04A1.8,1.8,0,0,0,0,22.5a1.9,1.9,0,0,0,1.935,1.875H25.065A1.9,1.9,0,0,0,27,22.5,1.8,1.8,0,0,0,26.481,21.228Z" transform="translate(0.5 0.5)" fill="none" stroke="#fff" stroke-width="1"/>
</svg>
