<svg xmlns="http://www.w3.org/2000/svg" width="29.241" height="29.243" viewBox="0 0 29.241 29.243">
  <path id="Icon_ionic-ios-female" data-name="Icon ionic-ios-female" d="M4.331,32.625a.935.935,0,0,0,.675-.281l3.15-3.15,2.6,2.6a.947.947,0,0,0,.675.281.935.935,0,0,0,.675-.281.955.955,0,0,0,0-1.35l-2.6-2.6,3.516-3.516a11.886,11.886,0,1,0-1.35-1.35L8.156,26.494l-2.6-2.6a.947.947,0,0,0-.675-.281.935.935,0,0,0-.675.281.955.955,0,0,0,0,1.35l2.6,2.6-3.15,3.15a.956.956,0,0,0,.675,1.631ZM13.676,8.212a9.973,9.973,0,1,1-2.918,7.052A9.925,9.925,0,0,1,13.676,8.212Z" transform="translate(-3.377 -3.382)"/>
</svg>
