<svg id="Group_1859" data-name="Group 1859" xmlns="http://www.w3.org/2000/svg" width="31.337" height="21.406" viewBox="0 0 31.337 21.406">
  <g id="Group_1858" data-name="Group 1858" transform="translate(0.306 0.306)">
    <path id="Path_1602" data-name="Path 1602" d="M20.617,54.257a1.317,1.317,0,0,1,1.322-1.322h5.288V50.817l-2.864-2.081a.615.615,0,0,1,.71-1l2.154,1.555v-6.7A1.588,1.588,0,0,0,25.636,41H4.091A1.588,1.588,0,0,0,2.5,42.591V57.77a1.588,1.588,0,0,0,1.591,1.591H20.617Z" transform="translate(-2.5 -41)" fill="#fff"/>
    <path id="Path_1603" data-name="Path 1603" d="M151.822,138.5h9.964a1.317,1.317,0,0,1,1.322,1.322v6.206a1.317,1.317,0,0,1-1.322,1.322h-9.964a1.317,1.317,0,0,1-1.322-1.322v-6.206A1.317,1.317,0,0,1,151.822,138.5Z" transform="translate(-132.383 -126.565)" fill="#fff"/>
    <path id="Path_1604" data-name="Path 1604" d="M19.3,191l-1.053,1.457a.613.613,0,1,0,.992.722v-.012L20.822,191Z" transform="translate(-16.22 -172.638)" fill="#fff"/>
  </g>
  <path id="Path_1612" data-name="Path 1612" d="M163.6,138.5Z" transform="translate(-143.573 -126.259)" fill="#087ebf"/>
  <circle id="Ellipse_184" data-name="Ellipse 184" cx="4.162" cy="4.162" r="4.162" transform="translate(8.508 5.325)" fill="#fff"/>
  <path id="Path_1613" data-name="Path 1613" d="M98.593,104.011l-2.448-1.493a.159.159,0,0,0-.22.049.177.177,0,0,0-.024.086v3a.162.162,0,0,0,.159.159.227.227,0,0,0,.086-.024l2.448-1.493a.159.159,0,0,0,.049-.22A.267.267,0,0,0,98.593,104.011Z" transform="translate(-84.161 -94.659)" fill="#eaeaea"/>
  <path id="Path_1614" data-name="Path 1614" d="M170.6,148.5H160.561c-.037,0-.061.049-.061.1v1.212h10.16V148.6C170.66,148.549,170.636,148.5,170.6,148.5Z" transform="translate(-140.853 -135.035)" fill="#fff"/>
  <circle id="Ellipse_185" data-name="Ellipse 185" cx="0.759" cy="0.759" r="0.759" transform="translate(27.824 15.865)" fill="#edf4fc"/>
  <circle id="Ellipse_186" data-name="Ellipse 186" cx="0.759" cy="0.759" r="0.759" transform="translate(27.885 18.362)" fill="#edf4fc"/>
  <path id="Path_1615" data-name="Path 1615" d="M179.249,96.243l5.8,4.2h1.738a1.386,1.386,0,0,1,.441.073l-.037-.037-7.222-5.227a.61.61,0,0,0-.857.135.6.6,0,0,0,.135.857Z" transform="translate(-157.08 -88.201)" fill="#edf4fc"/>
  <path id="Path_1618" data-name="Path 1618" d="M206.606,168.3a.3.3,0,0,0-.306.306v3.574a.306.306,0,0,0,.612,0v-3.574A.319.319,0,0,0,206.606,168.3Z" transform="translate(-181.046 -152.411)"/>
  <path id="Path_1619" data-name="Path 1619" d="M215.806,168.3a.3.3,0,0,0-.306.306v3.574a.306.306,0,0,0,.612,0v-3.574A.3.3,0,0,0,215.806,168.3Z" transform="translate(-189.12 -152.411)"/>
  <path id="Path_1620" data-name="Path 1620" d="M197.306,168.3a.3.3,0,0,0-.306.306v3.574a.306.306,0,0,0,.612,0v-3.574A.3.3,0,0,0,197.306,168.3Z" transform="translate(-172.885 -152.411)"/>
  <path id="Path_1621" data-name="Path 1621" d="M188.006,168.3a.3.3,0,0,0-.306.306v3.574a.306.306,0,1,0,.612,0v-3.574A.3.3,0,0,0,188.006,168.3Z" transform="translate(-164.723 -152.411)"/>
  <path id="Path_1622" data-name="Path 1622" d="M169.606,168.3a.3.3,0,0,0-.306.306v3.574a.306.306,0,0,0,.612,0v-3.574A.319.319,0,0,0,169.606,168.3Z" transform="translate(-148.576 -152.411)"/>
  <path id="Path_1623" data-name="Path 1623" d="M178.806,168.3a.3.3,0,0,0-.306.306v3.574a.306.306,0,0,0,.612,0v-3.574A.3.3,0,0,0,178.806,168.3Z" transform="translate(-156.649 -152.411)"/>
  <path id="Path_1624" data-name="Path 1624" d="M160.306,168.3a.3.3,0,0,0-.306.306v3.574a.306.306,0,0,0,.612,0v-3.574A.3.3,0,0,0,160.306,168.3Z" transform="translate(-140.414 -152.411)"/>
  <path id="Path_1625" data-name="Path 1625" d="M30.309,50.545c-.012,0-.012-.012-.024-.012l-4.945-3.587V40.4a1.9,1.9,0,0,0-1.9-1.9H1.9A1.907,1.907,0,0,0,0,40.4V55.576a1.9,1.9,0,0,0,1.9,1.9h.894l-.7.967A.919.919,0,1,0,3.574,59.53a.012.012,0,0,1,.012-.012l1.481-2.044H18.117v.8A1.635,1.635,0,0,0,19.745,59.9h9.964a1.635,1.635,0,0,0,1.628-1.628V52.063a1.64,1.64,0,0,0-1.028-1.518ZM18.117,52.063v3.574H16.648V50.007a4.435,4.435,0,0,0,0-4.04V40.336h3.06v10.1A1.636,1.636,0,0,0,18.117,52.063ZM5.631,40.336h3.06v5.631a4.435,4.435,0,0,0,0,4.04v5.631H5.631ZM12.67,51.843a3.856,3.856,0,1,1,3.844-4.076c0,.073.012.147.012.22A3.871,3.871,0,0,1,12.67,51.843Zm3.366-6.782a4.451,4.451,0,0,0-3.06-1.518V40.336h3.06Zm-3.672-1.53A4.451,4.451,0,0,0,9.3,45.049V40.336h3.06ZM9.3,50.913a4.451,4.451,0,0,0,3.06,1.518v3.195H9.3Zm3.672,1.53a4.451,4.451,0,0,0,3.06-1.518V55.65h-3.06ZM20.32,40.336H23.43a.066.066,0,0,1,.061.061v5.215l-.441-.318a.919.919,0,0,0-1.089,1.481l.012.012,1.518,1.1v2.546H20.308v-10.1Zm3.795,7.994.612.441v1.665h-.612Zm1.224.894,1.677,1.212H25.339Zm-1.347-1.738L22.352,46.3a.309.309,0,0,1-.061-.428.322.322,0,0,1,.428-.073l6.4,4.639H28.081ZM3.085,59.163a.309.309,0,0,1-.428.061.3.3,0,0,1-.061-.416l.967-1.334h.759ZM1.9,56.862A1.285,1.285,0,0,1,.612,55.576V40.4A1.285,1.285,0,0,1,1.9,39.112H23.43A1.285,1.285,0,0,1,24.715,40.4v6.108l-.612-.441V40.4a.679.679,0,0,0-.673-.673H1.9a.679.679,0,0,0-.673.673V55.576a.679.679,0,0,0,.673.673h16.22v.612Zm0-1.224a.066.066,0,0,1-.061-.061V40.4a.066.066,0,0,1,.061-.061H5.019v15.3ZM30.725,58.27a1.014,1.014,0,0,1-1.016,1.016H19.745a1.014,1.014,0,0,1-1.016-1.016V52.063a1.014,1.014,0,0,1,1.016-1.016h9.964a1.014,1.014,0,0,1,1.016,1.016Z" transform="translate(0 -38.5)"/>
  <path id="Path_1626" data-name="Path 1626" d="M96.558,101.609l-2.448-1.493a.461.461,0,0,0-.637.159.441.441,0,0,0-.073.245v3a.465.465,0,0,0,.465.465.441.441,0,0,0,.245-.073l2.448-1.493a.461.461,0,0,0,.159-.637A.436.436,0,0,0,96.558,101.609Zm-2.546,1.628v-2.473L96.032,102Z" transform="translate(-81.967 -92.514)"/>
  <path id="Path_1627" data-name="Path 1627" d="M168.4,146H158.363a.385.385,0,0,0-.367.4v1.224a.3.3,0,0,0,.306.306h10.16a.3.3,0,0,0,.306-.306v-1.212A.388.388,0,0,0,168.4,146Zm-9.793.612h7.124v.7h-7.124Zm9.548.7h-1.812v-.7h1.812Z" transform="translate(-138.654 -132.841)"/>
  <path id="Path_1628" data-name="Path 1628" d="M225.865,167.73a1.065,1.065,0,1,0-1.065-1.065A1.066,1.066,0,0,0,225.865,167.73Zm0-1.518a.452.452,0,0,1,.453.453.46.46,0,0,1-.453.453.453.453,0,1,1,0-.906Z" transform="translate(-197.282 -150.041)"/>
  <path id="Path_1629" data-name="Path 1629" d="M226.365,186a1.065,1.065,0,1,0,1.065,1.065A1.066,1.066,0,0,0,226.365,186Zm0,1.518a.452.452,0,0,1-.453-.453.46.46,0,0,1,.453-.453.453.453,0,0,1,0,.906Z" transform="translate(-197.721 -167.944)"/>
</svg>
