<svg xmlns="http://www.w3.org/2000/svg" width="23.939" height="23.939" viewBox="0 0 23.939 23.939">
  <path id="Icon_metro-qrcode" data-name="Icon metro-qrcode" d="M10.052,3.424H4.067V9.409h5.985Zm1.5-1.5v8.977H2.571V1.928ZM5.563,4.92H8.556V7.913H5.563Zm19.451-1.5H19.029V9.409h5.985V3.424Zm1.5-1.5v8.977H17.533V1.928H26.51ZM20.525,4.92h2.992V7.913H20.525ZM10.052,18.386H4.067v5.985h5.985Zm1.5-1.5v8.977H2.571V16.89ZM5.563,19.882H8.556v2.992H5.563ZM13.044,1.928h1.5v1.5h-1.5Zm1.5,1.5h1.5v1.5h-1.5Zm-1.5,1.5h1.5v1.5h-1.5Zm1.5,1.5h1.5v1.5h-1.5Zm-1.5,1.5h1.5v1.5h-1.5Zm1.5,1.5h1.5v1.5h-1.5Zm-1.5,1.5h1.5v1.5h-1.5Zm0,2.992h1.5v1.5h-1.5Zm1.5,1.5h1.5v1.5h-1.5Zm-1.5,1.5h1.5v1.5h-1.5Zm1.5,1.5h1.5v1.5h-1.5Zm-1.5,1.5h1.5v1.5h-1.5Zm1.5,1.5h1.5v1.5h-1.5Zm-1.5,1.5h1.5v1.5h-1.5Zm1.5,1.5h1.5v1.5h-1.5ZM25.014,13.9h1.5v1.5h-1.5Zm-20.947,0h1.5v1.5h-1.5Zm1.5-1.5h1.5v1.5h-1.5Zm-2.992,0h1.5v1.5h-1.5Zm5.985,0h1.5v1.5h-1.5Zm1.5,1.5h1.5v1.5h-1.5Zm1.5-1.5h1.5v1.5h-1.5Zm4.489,1.5h1.5v1.5h-1.5Zm1.5-1.5h1.5v1.5h-1.5Zm1.5,1.5h1.5v1.5h-1.5Zm1.5-1.5h1.5v1.5h-1.5Zm1.5,1.5h1.5v1.5h-1.5Zm1.5-1.5h1.5v1.5h-1.5Zm1.5,4.489h1.5v1.5h-1.5Zm-8.977,0h1.5v1.5h-1.5Zm1.5-1.5h1.5v1.5h-1.5Zm1.5,1.5h1.5v1.5h-1.5Zm2.992,0h1.5v1.5h-1.5Zm1.5-1.5h1.5v1.5h-1.5Zm1.5,4.489h1.5v1.5h-1.5Zm-8.977,0h1.5v1.5h-1.5Zm1.5-1.5h1.5v1.5h-1.5Zm2.992,0h1.5v1.5h-1.5Zm1.5,1.5h1.5v1.5h-1.5Zm1.5-1.5h1.5v1.5h-1.5Zm1.5,4.489h1.5v1.5h-1.5Zm-7.481-1.5h1.5v1.5h-1.5Zm1.5,1.5h1.5v1.5h-1.5Zm1.5-1.5h1.5v1.5h-1.5Zm1.5,1.5h1.5v1.5h-1.5Zm-4.489,1.5h1.5v1.5h-1.5Zm2.992,0h1.5v1.5h-1.5Zm2.992,0h1.5v1.5h-1.5Z" transform="translate(-2.571 -1.928)"/>
</svg>
