<svg xmlns="http://www.w3.org/2000/svg" width="25.372" height="16.146" viewBox="0 0 25.372 16.146">
  <path id="Icon_material-group" data-name="Icon material-group" d="M18.8,14.42a3.46,3.46,0,1,0-3.46-3.46A3.445,3.445,0,0,0,18.8,14.42Zm-9.226,0a3.46,3.46,0,1,0-3.46-3.46A3.445,3.445,0,0,0,9.573,14.42Zm0,2.307c-2.687,0-8.073,1.349-8.073,4.037v2.883H17.646V20.763C17.646,18.076,12.26,16.726,9.573,16.726Zm9.226,0c-.334,0-.715.023-1.119.058a4.867,4.867,0,0,1,2.272,3.979v2.883h6.92V20.763C26.872,18.076,21.487,16.726,18.8,16.726Z" transform="translate(-1.5 -7.5)"/>
</svg>
