<?xml version="1.0" ?><svg data-name="Layer 12" id="Layer_12" viewBox="0 0 32 32" xmlns="http://www.w3.org/2000/svg"><title/><path d="M20.69,24H3.53a1,1,0,0,1-1-1V11.34H26.76v7.05a0.5,0.5,0,0,0,1,0V8a2,2,0,0,0-2-2H24.07V4.5a0.5,0.5,0,0,0-1,0V5.93h-5V4.62a0.5,0.5,0,1,0-1,0V5.93h-5V4.62a0.5,0.5,0,1,0-1,0V5.93h-5V4.62a0.5,0.5,0,1,0-1,0V5.93H3.53a2,2,0,0,0-2,2v15a2,2,0,0,0,2,2H20.69A0.5,0.5,0,0,0,20.69,24ZM3.53,6.93H5.18V8.24a0.5,0.5,0,0,0,1,0V6.93h5V8.24a0.5,0.5,0,0,0,1,0V6.93h5V8.24a0.5,0.5,0,0,0,1,0V6.93h5V8.12a0.5,0.5,0,1,0,1,0V6.93h1.65a1,1,0,0,1,1,1v2.38H2.5V8A1,1,0,0,1,3.53,6.93Z"/><rect height="1.92" width="1.92" x="9.21" y="13.03"/><rect height="1.92" width="1.92" x="13.71" y="13.03"/><rect height="1.92" width="1.92" x="18.21" y="13.02"/><rect height="1.92" width="1.92" x="4.71" y="16.7"/><rect height="1.92" width="1.92" x="9.21" y="16.7"/><rect height="1.92" width="1.92" x="13.71" y="16.7"/><rect height="1.92" width="1.92" x="4.71" y="20.41"/><rect height="1.92" width="1.92" x="9.21" y="20.41"/><rect height="1.92" width="1.92" x="13.71" y="20.39"/><rect height="1.92" width="1.92" x="18.21" y="20.39"/><rect height="1.92" width="1.92" x="18.21" y="16.69"/><rect height="1.92" width="1.92" x="22.63" y="13"/><rect height="1.92" width="1.92" x="22.63" y="16.67"/><path d="M26.32,19.65a4.18,4.18,0,1,0,4.17,4.17A4.18,4.18,0,0,0,26.32,19.65Zm0,7.35a3.18,3.18,0,1,1,3.17-3.18A3.18,3.18,0,0,1,26.32,27Z"/><path d="M27.5,22.42L25.77,24.2l-0.67-.54a0.5,0.5,0,1,0-.63.77l1,0.83a0.5,0.5,0,0,0,.67,0l2.05-2.11A0.5,0.5,0,0,0,27.5,22.42Z"/></svg>