<?xml version="1.0" encoding="utf-8"?>
<!-- Generator: Adobe Illustrator 19.0.0, SVG Export Plug-In . SVG Version: 6.00 Build 0)  -->
<svg version="1.1" id="Layer_12" xmlns="http://www.w3.org/2000/svg" xmlns:xlink="http://www.w3.org/1999/xlink" x="0px" y="0px"
	 viewBox="-289 381 32 32" style="enable-background:new -289 381 32 32;" xml:space="preserve">
<style type="text/css">
	.st0{fill:#FFFFFF;}
	.st1{fill:#D63447;}
</style>
<title></title>
<path class="st0" d="M-268.3,405h-17.2c-0.6,0-1-0.4-1-1v-11.7h24.2v7.1c0,0.3,0.2,0.5,0.5,0.5c0.3,0,0.5-0.2,0.5-0.5V389
	c0-1.1-0.9-2-2-2h-1.7v-1.5c0-0.3-0.2-0.5-0.5-0.5c-0.3,0-0.5,0.2-0.5,0.5v1.4h-5v-1.3c0-0.3-0.2-0.5-0.5-0.5
	c-0.3,0-0.5,0.2-0.5,0.5v1.3h-5v-1.3c0-0.3-0.2-0.5-0.5-0.5c-0.3,0-0.5,0.2-0.5,0.5v1.3h-5v-1.3c0-0.3-0.2-0.5-0.5-0.5
	c-0.3,0-0.5,0.2-0.5,0.5v1.3h-1.5c-1.1,0-2,0.9-2,2v15c0,1.1,0.9,2,2,2h17.2c0.3-0.1,0.4-0.4,0.3-0.6
	C-268.1,405.2-268.2,405.1-268.3,405z M-285.5,387.9h1.6v1.3c0,0.3,0.2,0.5,0.5,0.5c0.3,0,0.5-0.2,0.5-0.5v-1.3h5v1.3
	c0,0.3,0.2,0.5,0.5,0.5c0.3,0,0.5-0.2,0.5-0.5v-1.3h5v1.3c0,0.3,0.2,0.5,0.5,0.5c0.3,0,0.5-0.2,0.5-0.5v-1.3h5v1.2
	c0,0.3,0.2,0.5,0.5,0.5c0.3,0,0.5-0.2,0.5-0.5v-1.2h1.6c0.6,0,1,0.4,1,1v2.4h-24.3V389c0-0.6,0.4-1,0.9-1.1
	C-285.5,387.9-285.5,387.9-285.5,387.9z"/>
<rect x="-279.8" y="394" class="st0" width="1.9" height="1.9"/>
<rect x="-275.3" y="394" class="st0" width="1.9" height="1.9"/>
<rect x="-270.8" y="394" class="st0" width="1.9" height="1.9"/>
<rect x="-284.3" y="397.7" class="st0" width="1.9" height="1.9"/>
<rect x="-279.8" y="397.7" class="st0" width="1.9" height="1.9"/>
<rect x="-275.3" y="397.7" class="st0" width="1.9" height="1.9"/>
<rect x="-284.3" y="401.4" class="st0" width="1.9" height="1.9"/>
<rect x="-279.8" y="401.4" class="st0" width="1.9" height="1.9"/>
<rect x="-275.3" y="401.4" class="st0" width="1.9" height="1.9"/>
<rect x="-270.8" y="401.4" class="st0" width="1.9" height="1.9"/>
<rect x="-270.8" y="397.7" class="st0" width="1.9" height="1.9"/>
<rect x="-266.4" y="394" class="st0" width="1.9" height="1.9"/>
<rect x="-266.4" y="397.7" class="st0" width="1.9" height="1.9"/>
<path class="st1" d="M-262.7,400.6c-2.3,0-4.2,1.9-4.2,4.2c0,2.3,1.9,4.2,4.2,4.2c2.3,0,4.2-1.9,4.2-4.2c0,0,0,0,0,0
	C-258.5,402.5-260.4,400.7-262.7,400.6z M-262.7,408c-1.8,0-3.2-1.4-3.2-3.2s1.4-3.2,3.2-3.2s3.2,1.4,3.2,3.2c0,0,0,0,0,0
	C-259.5,406.6-260.9,408-262.7,408z"/>
<path class="st1" d="M-261.5,403.4l-1.7,1.8l-0.7-0.5c-0.2-0.2-0.5-0.2-0.7,0s-0.2,0.5,0,0.7c0,0,0.1,0,0.1,0.1l1,0.8
	c0.2,0.2,0.5,0.2,0.7,0l2-2.1c0.2-0.2,0.2-0.5,0-0.7C-261,403.2-261.3,403.2-261.5,403.4z"/>
</svg>
