<svg id="OBJECTS" xmlns="http://www.w3.org/2000/svg" width="329.192" height="84.504" viewBox="0 0 329.192 84.504">
  <path id="Path_1452" data-name="Path 1452" d="M.1,53.095c.428-.04.514.244.573.448A9.125,9.125,0,0,0,3.51,57.493a37.786,37.786,0,0,0,18.436,9.159A58.419,58.419,0,0,0,54.334,64.6c12.122-4.444,21.34-12.4,28.029-23.374.349-.573.606-1.238,1.488-1s.955.83.988,1.541q.309,5.926.619,11.786a92.509,92.509,0,0,0,1.521,14.261,16.849,16.849,0,0,0,2.285,6.123,5.965,5.965,0,0,0,2.015-2.818,34.376,34.376,0,0,0,2.634-9.409,74.166,74.166,0,0,0,.8-11.193,62.5,62.5,0,0,1,.612-9.409,8.12,8.12,0,0,1,.165-.889c.454-1.712,1.547-2.048,2.89-.849a7.447,7.447,0,0,1,2.067,3.569,30.945,30.945,0,0,1,1.04,6.808c.277,4.234.448,8.467.77,12.694a60.187,60.187,0,0,0,2.884,14.933,15.894,15.894,0,0,0,1.824,3.951c1.132,1.653,1.936,1.686,3.239.132a11.431,11.431,0,0,0,1.521-2.469,37.478,37.478,0,0,0,2.818-9.732,75.244,75.244,0,0,0,1.126-15.717,3.549,3.549,0,0,0-1.725-3.292c-3.49-2.351-4.826-5.926-4.813-10.034a4.28,4.28,0,0,1,.415-1.758,1.618,1.618,0,0,1,2.68-.658,6.176,6.176,0,0,1,1.686,2.588,31.7,31.7,0,0,1,2.107,7.677c.494,3,.481,3,3.358,3.806a16.414,16.414,0,0,0,3.569.658c1.646.079,2.114-.2,2.772-1.712a7.453,7.453,0,0,1,2.838-3.457c2.14-1.356,4.1-.658,4.793,1.771a11.852,11.852,0,0,1,.415,4.853c-.408,3.022-1.9,4.668-4.859,5.267a26.06,26.06,0,0,0,1.179,6.927,12.558,12.558,0,0,0,.527,1.356c1.37,2.983,3.108,3.555,5.926,1.975a16.026,16.026,0,0,0,4.24-3.661,57.627,57.627,0,0,0,7.058-10.976,4.017,4.017,0,0,0,.382-2.114,215.312,215.312,0,0,1,.184-25.415,81,81,0,0,1,2.5-16.461A29.123,29.123,0,0,1,153.532,4.3,10.344,10.344,0,0,1,156.587.658c1.732-1.185,3.292-.757,4.135,1.159a15.756,15.756,0,0,1,1.04,5.136c.408,5.267-.461,10.377-1.574,15.466a152.1,152.1,0,0,1-7.019,23.045,4.721,4.721,0,0,0-.415,1.942c.428,10.291.988,20.563,3.233,30.656a12.471,12.471,0,0,0,1.277,3.575c.849,1.475,1.455,1.567,2.634.4a12.135,12.135,0,0,0,2.528-3.951,101.1,101.1,0,0,0,3.687-10.818c.856-2.713,1.521-5.491,2.542-8.138s1.975-5.267,2.739-8.026a9.554,9.554,0,0,1,3.457-5.215,3.99,3.99,0,0,1,5.978,1.093,6.426,6.426,0,0,1,.942,4.346c0,.217,0,.507-.356.507a.461.461,0,0,1-.467-.454,9.152,9.152,0,0,0-.441-2.5c-.494-1.192-1.014-2.535-2.463-2.634-1.317-.086-1.883,1.152-2.5,2.12a10.212,10.212,0,0,0-1.317,4.109,38.544,38.544,0,0,0,1.238,16A7.671,7.671,0,0,0,176.05,70c.79,1.521,1.9,1.738,3.233.658a7.163,7.163,0,0,0,1.791-2.489,58.684,58.684,0,0,0,3.292-8.434c.8-2.535,1.554-5.09,2.324-7.631a5.926,5.926,0,0,1,1-2.12,1.975,1.975,0,0,1,1.738-.8c1.264.086,1.613.658,1.172,1.89a12.74,12.74,0,0,0-.244,8.184c.257.856.474,1.975,1.481,2.114s1.626-.909,2.133-1.725a10.37,10.37,0,0,0,1.251-4.681,1.231,1.231,0,0,0-.823-1.416,4.135,4.135,0,0,1-2.054-1.975c-.619-1.192-.514-2.377.224-2.8.849-.494,2.035,0,2.732,1.132a5.814,5.814,0,0,1,.777,2.4c.105.942.658,1.179,1.5,1.04a25.679,25.679,0,0,0,6.288-1.7,4.747,4.747,0,0,0,2.258-1.758,1.666,1.666,0,0,1,1.975-.928,1.916,1.916,0,0,1,1.468,1.837,39,39,0,0,1,.171,5.267,34.184,34.184,0,0,0,.138,3.753,13.94,13.94,0,0,0,1.067-3.786,37.878,37.878,0,0,1,2.713-8.066c.184-.382.369-.764.586-1.126,1.317-2.232,3.233-2.4,4.991-.441a8.224,8.224,0,0,1,1.837,4.471,10.172,10.172,0,0,0,.573,2.515c.527-1.442,1.04-2.884,1.587-4.319a21.354,21.354,0,0,1,2.337-4.5,8.849,8.849,0,0,1,1.271-1.528,3.4,3.4,0,0,1,5.557.658,9.218,9.218,0,0,1,1.389,4.609,42.557,42.557,0,0,1-.474,7.671c-.454,3.911-.77,7.829-1.014,11.759a22.037,22.037,0,0,0,.369,6.505,6.835,6.835,0,0,0,1.021,2.5,1.255,1.255,0,0,0,2.021.336A5.754,5.754,0,0,0,237.455,75a73.025,73.025,0,0,0,5-12.056,7.452,7.452,0,0,0,.151-2.166,17.7,17.7,0,0,1,1.732-7.9,7.756,7.756,0,0,1,2.094-2.713c1.725-1.317,3.411-.8,4.181,1.185a9.731,9.731,0,0,1,.619,4.458,3.792,3.792,0,0,1-3.569,3.832c-.56.1-.7.336-.711.816,0,3.233.191,6.466,1.633,9.4,1.83,3.733,4.53,5.136,8.23,4.3a24.362,24.362,0,0,0,7.947-3.444c4.273-2.772,8.132-6.1,12.122-9.218,7.368-5.886,14.867-11.522,23.124-16.066a74.626,74.626,0,0,1,23.045-7.9c2.067-.362,4.214-.527,6.143.784-4.286-1.429-8.316.086-12.359,1.1-10.62,2.634-19.957,7.9-28.734,14.314-5.781,4.207-11.305,8.731-16.9,13.168a44.792,44.792,0,0,1-10.324,6.7,16.271,16.271,0,0,1-7.019,1.62,7.071,7.071,0,0,1-3.147-.764,14.863,14.863,0,0,1-7.322-7.96l-.3-.77a2.035,2.035,0,0,0-.658,1.192,72.113,72.113,0,0,1-3.292,8.053,12.213,12.213,0,0,1-1.225,1.975c-1.883,2.383-4.76,2.331-6.624-.092a9.487,9.487,0,0,1-1.449-2.91,30.839,30.839,0,0,1-1.422-9.666,82.456,82.456,0,0,1,1.514-14.61,20.74,20.74,0,0,0,.323-5.063c-.119-1.646-.863-1.975-2.285-1.126a7.835,7.835,0,0,0-2.574,3,28.971,28.971,0,0,0-3.233,9.573c-.29,1.666-.5,3.345-.816,5-.158.81-.283,1.738-1.449,1.778a1.975,1.975,0,0,1-2.087-1.593,24.855,24.855,0,0,1-.533-7.611,35.556,35.556,0,0,0-.2-5.8c-.046-.481-.066-1.106-.527-1.277-.612-.224-.961.4-1.271.816a16.553,16.553,0,0,0-2.614,5.774,73.812,73.812,0,0,0-1.435,8.56,15.144,15.144,0,0,1-.349,1.778,1.878,1.878,0,0,1-3.174,1.113,4.339,4.339,0,0,1-1.416-1.857,11.542,11.542,0,0,1-.909-4.609c-.04-2.054.2-4.1.356-6.11-.54-.323-.856.079-1.212.224a21.728,21.728,0,0,1-7.164,1.85c-.764.053-1.067.27-1.047,1.06a11.45,11.45,0,0,1-.658,4.089,8.163,8.163,0,0,1-.849,1.8c-1.376,2.114-3.463,2.423-5.419.8a8.711,8.711,0,0,1-2.212-3.068c-.191-.421-.178-.961-.79-1.317-.2.658-.408,1.218-.566,1.817a56.563,56.563,0,0,1-3.634,10.054c-2.212,4.556-7.025,4.839-9.876.6a14.569,14.569,0,0,1-2.133-6.861c-.092-.889-.138-1.791-.211-2.818-.737.421-.7,1.067-.849,1.56-1.35,4.609-2.667,9.172-4,13.761a26.845,26.845,0,0,1-1.916,4.892,9.633,9.633,0,0,1-2.015,2.779,4.273,4.273,0,0,1-6.189-.1,14.329,14.329,0,0,1-3.351-5.965,54.068,54.068,0,0,1-2.166-10.469c-.342-2.634-.566-5.267-.856-7.947a3.9,3.9,0,0,0-.356-1.751,3.951,3.951,0,0,0-1.021,1.56,50.95,50.95,0,0,1-5.926,8.908,16.132,16.132,0,0,1-3.365,3.022,7.354,7.354,0,0,1-10.107-1.422,13.221,13.221,0,0,1-2.719-5.491,20.444,20.444,0,0,1-.454-8.994,8.227,8.227,0,0,0,.105-.9,2.812,2.812,0,0,0-.1-.494c-2.706.25-5.267-.494-7.947-1.317v3.885a71.758,71.758,0,0,1-2.5,21.524,16.645,16.645,0,0,1-1.877,4.313c-1.975,3.187-5.182,3.654-7.987,1.165a16.4,16.4,0,0,1-4.161-6.314A50.27,50.27,0,0,1,97.1,61.747c-.461-5.445-.1-10.9-.211-16.342a31.977,31.977,0,0,0-.184-3.8,8.365,8.365,0,0,0-.974,4.662c-.072,3.332,0,6.663,0,9.995A54.932,54.932,0,0,1,93.892,70.6,14.544,14.544,0,0,1,92.3,74.448a4.089,4.089,0,0,1-6.393.955,8.56,8.56,0,0,1-2.285-3.444A32.307,32.307,0,0,1,81.533,60.95a83.474,83.474,0,0,1,.658-16.777c-.816.25-1.1.882-1.488,1.37a65.515,65.515,0,0,1-12.6,12.51A55.064,55.064,0,0,1,40.2,68.357a58.541,58.541,0,0,1-25.521-3.371,35.265,35.265,0,0,1-12.306-7.9A10.41,10.41,0,0,1,.461,54.7C.191,54.208-.177,53.7.1,53.095ZM152.893,43c.23-.461.329-.612.388-.777a145.674,145.674,0,0,0,6-20.326,51.314,51.314,0,0,0,1.435-13.827,18.469,18.469,0,0,0-1.1-5.853c-.4-1-.816-1.086-1.607-.388a5.74,5.74,0,0,0-.81.968,15.1,15.1,0,0,0-2.239,5.313,64.969,64.969,0,0,0-1.639,10.324,225.337,225.337,0,0,0-.658,23.763A5.3,5.3,0,0,0,152.893,43ZM115.31,49.981c-.151-1.086-.23-1.916-.382-2.732a25.087,25.087,0,0,0-2.555-8.046c-.257-.454-.494-1.08-1.132-1.034-.77.059-.751.836-.928,1.37a3.634,3.634,0,0,0-.079,1.258A12.049,12.049,0,0,0,112.94,48.1a5.926,5.926,0,0,0,2.37,1.877Zm16.171-1.824a5.327,5.327,0,0,0-1.639,2.634,22.447,22.447,0,0,0-.981,5.669c-.059.612-.375,1.455.388,1.8s1.389-.244,1.877-.764a5.439,5.439,0,0,0,1.119-1.626A8.263,8.263,0,0,0,131.481,48.157Zm117.5,2.91c-.487.224-.6.658-.724,1.132a29.8,29.8,0,0,0-1.06,5.465c-.033.4-.257.922.151,1.179.514.323,1.04.04,1.488-.29a3.206,3.206,0,0,0,.928-1.086A6.417,6.417,0,0,0,248.977,51.067Zm-54.083,1.607a3.9,3.9,0,0,0-.7-2.779c-.145-.25-.349-.507-.7-.428s-.4.435-.369.711a2.686,2.686,0,0,0,1.765,2.5Z" transform="translate(-0.001 0.001)" fill="#fff"/>
</svg>
