<svg xmlns="http://www.w3.org/2000/svg" xmlns:xlink="http://www.w3.org/1999/xlink" width="500" height="500" viewBox="0 0 500 500">
  <defs>
    <linearGradient id="linear-gradient" x1="0.5" y1="-0.166" x2="0.5" y2="0.957" gradientUnits="objectBoundingBox">
      <stop offset="0" stop-color="#f57b51"/>
      <stop offset="1" stop-color="#d63447"/>
    </linearGradient>
    <linearGradient id="linear-gradient-3" x1="0.5" y1="-0.167" x2="0.5" y2="0.957" xlink:href="#linear-gradient"/>
    <linearGradient id="linear-gradient-4" x1="0.5" y1="-0.286" x2="0.5" y2="3.613" xlink:href="#linear-gradient"/>
    <linearGradient id="linear-gradient-5" x1="0.5" y1="0.107" x2="0.5" y2="2.815" xlink:href="#linear-gradient"/>
    <linearGradient id="linear-gradient-6" x1="0.5" y1="-0.219" x2="0.5" y2="3.477" xlink:href="#linear-gradient"/>
    <linearGradient id="linear-gradient-7" x1="0.5" y1="-0.592" x2="0.5" y2="6.504" xlink:href="#linear-gradient"/>
    <linearGradient id="linear-gradient-8" x1="0.5" y1="0.339" x2="0.5" y2="8.338" xlink:href="#linear-gradient"/>
    <linearGradient id="linear-gradient-9" x1="0.5" y1="-0.569" x2="0.5" y2="27.735" xlink:href="#linear-gradient"/>
    <linearGradient id="linear-gradient-10" x1="0.5" y1="-2.368" x2="0.5" y2="49.376" xlink:href="#linear-gradient"/>
    <clipPath id="clip-Artboard_1_copy_6">
      <rect width="500" height="500"/>
    </clipPath>
  </defs>
  <g id="Artboard_1_copy_6" data-name="Artboard 1 copy 6" clip-path="url(#clip-Artboard_1_copy_6)">
    <rect width="500" height="500" fill="#fff"/>
    <rect id="Rectangle_2" data-name="Rectangle 2" width="1216" height="816" fill="#383838"/>
    <g id="Group_10" data-name="Group 10" transform="translate(-358 -1079.886)">
      <g id="Group_7" data-name="Group 7">
        <path id="Path_19" data-name="Path 19" d="M420.413,1240.736h18.144v98.149q0,7.789,6.99,10.356a16.917,16.917,0,0,0,3.009.353h31.86q7.526,0,9.736-7.079a9.645,9.645,0,0,0,.354-2.657l-.09-99.122h18.5V1337.2q0,21.948-19.114,29.116a24.776,24.776,0,0,1-8.054,1.328H447.228q-16.638,0-25.487-18.407a37.427,37.427,0,0,1-1.328-8.674Z" fill="url(#linear-gradient)"/>
        <path id="Path_20" data-name="Path 20" d="M594.333,1240.736q-13.184,7.169-15.308,18.41H546.19v-18.41Zm19.383,0H634.69v18.41H609.114q-9.291,1.241-9.821,8.848v99.654h-17.7v-98.326q.086-18.32,17.612-26.551Q603.895,1240.735,613.716,1240.736Z" fill="url(#linear-gradient)"/>
        <path id="Path_21" data-name="Path 21" d="M671.967,1240.913l56.024,29.118q11.233,8.232,11.238,21.418v76.2H722.324v-74.873q-.261-6.9-9.736-10.709L671.967,1261Zm0,24.6,17.7,8.673v93.458h-17.7Zm114.878-24.691v20.531l-44.785,23.1q-.975-8.316-9.114-15.4Zm.085,24.867v101.955H769.408l-.09-93.1Z" fill="url(#linear-gradient-3)"/>
      </g>
      <g id="Group_8" data-name="Group 8">
        <path id="Path_22" data-name="Path 22" d="M434.016,1418.6a14.387,14.387,0,0,1-10.607-4.222Q419,1409.966,419,1402.8q0-7.482,4.687-11.891a15.419,15.419,0,0,1,20.659-.045q4.677,4.406,4.682,11.936,0,7.161-4.362,11.571A14.353,14.353,0,0,1,434.016,1418.6Zm0-1.653a8.265,8.265,0,0,0,6.792-3.3q2.982-3.766,2.986-10.881,0-7.256-3.122-11.019a8.58,8.58,0,0,0-13.316,0q-3.123,3.765-3.118,11.019,0,7.116,2.981,10.881A8.269,8.269,0,0,0,434.016,1416.943Z" fill="#f6eedf"/>
        <path id="Path_23" data-name="Path 23" d="M495.178,1417.082v.871h-7.39l-10.928-14.14h-2.572v9.136a5.121,5.121,0,0,0,.759,3.283q.756.85,3.377.85v.871H465.706v-.871q2.615,0,3.349-1.01.552-.781.551-3.627v-19.88a5.343,5.343,0,0,0-.711-3.3c-.475-.551-1.535-.826-3.189-.826v-.874h12.671a17.4,17.4,0,0,1,7.343,1.333,6.9,6.9,0,0,1,4.315,6.7,6.56,6.56,0,0,1-1.95,4.981q-1.95,1.859-6.359,2.732l9.458,11.613a6.771,6.771,0,0,0,1.748,1.63A4.264,4.264,0,0,0,495.178,1417.082Zm-20.89-26.17v11.3a19.905,19.905,0,0,0,6.8-.874,5.724,5.724,0,0,0,3.947-5.828,5.585,5.585,0,0,0-2-4.661,9.356,9.356,0,0,0-5.9-1.583,5.3,5.3,0,0,0-2.322.32A1.451,1.451,0,0,0,474.288,1390.912Z" fill="#f6eedf"/>
        <path id="Path_24" data-name="Path 24" d="M542.431,1401.7v.827a3.172,3.172,0,0,0-2.341.6,4.382,4.382,0,0,0-.871,2.937v9.227q0,.6-3.9,1.952a22.265,22.265,0,0,1-7.254,1.354,20.958,20.958,0,0,1-6.933-1.1,14.028,14.028,0,0,1-5.968-3.81,13.448,13.448,0,0,1-2.8-4.407,20.528,20.528,0,0,1-1.008-6.978,14.9,14.9,0,0,1,4.178-10.56,15.155,15.155,0,0,1,11.521-4.821,18.709,18.709,0,0,1,4.225.459q1.973.551,3.995,1.058a2.388,2.388,0,0,0,1.375-.439,1.724,1.724,0,0,0,.782-1.078h1.008v9.686h-.688a12.467,12.467,0,0,0-4.361-6.2,10.447,10.447,0,0,0-12.855,1.239q-3.949,3.858-3.947,11.615,0,6.2,3.236,9.847a10.989,10.989,0,0,0,8.653,3.65,11.867,11.867,0,0,0,4.362-.756c1.285-.506,1.931-1.156,1.931-1.952v-7.437c0-1.807-.264-2.937-.782-3.4s-1.606-.69-3.26-.69v-.827Z" fill="#f6eedf"/>
        <path id="Path_25" data-name="Path 25" d="M589.783,1417.082v.871H578.078v-.871a7.229,7.229,0,0,0,2.247-.231,1.458,1.458,0,0,0,.966-1.514,4.107,4.107,0,0,0-.208-1.1,18.9,18.9,0,0,0-.664-1.79l-1.884-4.409H566.51l-2.115,5.372a4.959,4.959,0,0,0-.367,1.745,1.69,1.69,0,0,0,1.2,1.7,5.816,5.816,0,0,0,1.927.231v.871H558.06v-.871a2.938,2.938,0,0,0,1.356-.275,4.1,4.1,0,0,0,.985-.735,12.907,12.907,0,0,0,1.747-2.939c.368-.766.9-1.958,1.606-3.58l9.548-22.543h.919l11.431,26.078a12.4,12.4,0,0,0,1.861,3.281A3.1,3.1,0,0,0,589.783,1417.082Zm-22.5-10.928H577.9l-5.328-12.625Z" fill="#f6eedf"/>
        <path id="Path_26" data-name="Path 26" d="M637.314,1387.561v.874q-2.573.274-3.259,1.008-1.1,1.148-1.1,4.868v24.146h-.782l-20.2-25.157v17.9q0,3.536.824,4.708t3.4,1.17v.871H605.407v-.871c1.8,0,3-.367,3.58-1.1s.871-2.327.871-4.776v-20.245a8.621,8.621,0,0,0-2.181-2.065,4.782,4.782,0,0,0-2.27-.459v-.874h7.852l17.673,22.084v-15.334q0-3.766-1.008-4.913-.827-.964-3.4-.963v-.874Z" fill="#f6eedf"/>
        <path id="Path_27" data-name="Path 27" d="M653.164,1417.953v-.871c1.9,0,3.118-.268,3.65-.805s.806-1.644.806-3.328v-20.384q0-2.617-.806-3.374c-.532-.5-1.752-.756-3.65-.756v-.874H666.8v.874q-2.664,0-3.58.756t-.918,3.374v20.384q0,2.571.918,3.351t3.58.782v.871Z" fill="#f6eedf"/>
        <path id="Path_28" data-name="Path 28" d="M708.321,1409.873h1.055l-1.1,8.08H682.381v-.687l20.061-27.96H692.3q-4.409,0-6.1,1.882a9.014,9.014,0,0,0-1.606,4.225h-1.2l.919-7.852h24.149v.69l-19.835,27.957h11.8q4.041,0,5.831-1.881A12.371,12.371,0,0,0,708.321,1409.873Z" fill="#f6eedf"/>
        <path id="Path_29" data-name="Path 29" d="M751.768,1410.2l-2.068,7.757H724.91v-.871a4.628,4.628,0,0,0,3.146-.805q.849-.8.848-3.328v-20.384q0-2.617-.829-3.374a4.817,4.817,0,0,0-3.165-.756v-.874h24.38v6.566h-1.013q-.508-3.031-1.813-3.926t-5.162-.9h-6.2a2.047,2.047,0,0,0-1.2.252c-.212.169-.321.6-.321,1.309v10.191h7.07q2.94,0,3.787-.848a6.641,6.641,0,0,0,1.263-3.514h1.055v10.652h-1.055q-.411-2.756-1.31-3.558t-3.74-.8h-7.07v11.295c0,.947.3,1.507.9,1.674a36.241,36.241,0,0,0,5.945.252q4.365,0,6.429-1.238a10.135,10.135,0,0,0,3.627-4.774Z" fill="#f6eedf"/>
        <path id="Path_30" data-name="Path 30" d="M797,1417.082v.871h-7.39l-10.928-14.14H776.11v9.136a5.121,5.121,0,0,0,.759,3.283q.754.85,3.377.85v.871H767.528v-.871q2.614,0,3.349-1.01.551-.781.551-3.627v-19.88a5.343,5.343,0,0,0-.711-3.3c-.476-.551-1.536-.826-3.189-.826v-.874H780.2a17.4,17.4,0,0,1,7.343,1.333,6.9,6.9,0,0,1,4.314,6.7,6.56,6.56,0,0,1-1.95,4.981q-1.95,1.859-6.358,2.732l9.458,11.613a6.786,6.786,0,0,0,1.747,1.63A4.271,4.271,0,0,0,797,1417.082Zm-20.89-26.17v11.3a19.909,19.909,0,0,0,6.8-.874,5.724,5.724,0,0,0,3.947-5.828,5.585,5.585,0,0,0-2-4.661,9.356,9.356,0,0,0-5.9-1.583,5.292,5.292,0,0,0-2.322.32A1.451,1.451,0,0,0,776.11,1390.912Z" fill="#f6eedf"/>
      </g>
      <path id="Path_31" data-name="Path 31" d="M670.92,1237.332l57.075,29.342s-20.494-17.4-57.075-36.577Z" fill="url(#linear-gradient-4)"/>
      <path id="Path_32" data-name="Path 32" d="M670.92,1223.465,728,1266.674,670.92,1214.02Z" fill="url(#linear-gradient-5)"/>
      <path id="Path_33" data-name="Path 33" d="M732.617,1266.674l52.855-28.538v-10.048Z" fill="url(#linear-gradient-6)"/>
      <circle id="Ellipse_4" data-name="Ellipse 4" cx="10.048" cy="10.048" r="10.048" transform="translate(722.565 1231.544)" fill="url(#linear-gradient-7)"/>
      <path id="Path_34" data-name="Path 34" d="M706.563,1225.038l-5.5-4.032-5.534,3.982,2.136-6.474-5.5-4.032,6.817.031,2.136-6.474,2.077,6.493,6.817.031-5.534,3.982Z" fill="#f6eedf"/>
      <path id="Path_35" data-name="Path 35" d="M735.451,1202l-2.853-2.093-2.872,2.067,1.109-3.36-2.853-2.093,3.538.016,1.109-3.36,1.078,3.37,3.538.016-2.872,2.067Z" fill="#f6eedf"/>
      <path id="Path_36" data-name="Path 36" d="M769.423,1230.42l-2.853-2.093-2.872,2.066,1.109-3.36-2.853-2.093,3.538.016,1.109-3.36,1.078,3.37,3.538.016-2.872,2.067Z" fill="#f6eedf"/>
      <path id="Path_37" data-name="Path 37" d="M751.961,1222.448l-9.071,2.124v4.815a2.043,2.043,0,0,1-2.884,1.862l-3.862-1.748a8.537,8.537,0,0,0-7.061,0l-3.863,1.748a2.043,2.043,0,0,1-2.884-1.862v-4.815l-9.071-2.124,19.348-8.842Z" fill="url(#linear-gradient-8)"/>
      <g id="Group_9" data-name="Group 9">
        <rect id="Rectangle_3" data-name="Rectangle 3" width="0.689" height="5.038" transform="translate(748.172 1222.519)" fill="url(#linear-gradient-9)"/>
      </g>
      <circle id="Ellipse_5" data-name="Ellipse 5" cx="1.378" cy="1.378" r="1.378" transform="translate(747.138 1226.18)" fill="url(#linear-gradient-10)"/>
    </g>
  </g>
</svg>
