<svg xmlns="http://www.w3.org/2000/svg" xmlns:xlink="http://www.w3.org/1999/xlink" width="187" height="111.518" viewBox="0 0 187 111.518">
  <defs>
    <linearGradient id="linear-gradient" x1="0.5" y1="-0.166" x2="0.5" y2="0.957" gradientUnits="objectBoundingBox">
      <stop offset="0" stop-color="#f57b51"/>
      <stop offset="1" stop-color="#d63447"/>
    </linearGradient>
    <linearGradient id="linear-gradient-3" x1="0.5" y1="-0.167" x2="0.5" y2="0.957" xlink:href="#linear-gradient"/>
    <linearGradient id="linear-gradient-4" x1="0.5" y1="-0.286" x2="0.5" y2="3.613" xlink:href="#linear-gradient"/>
    <linearGradient id="linear-gradient-5" x1="0.5" y1="0.107" x2="0.5" y2="2.815" xlink:href="#linear-gradient"/>
    <linearGradient id="linear-gradient-6" x1="0.5" y1="-0.219" x2="0.5" y2="3.477" xlink:href="#linear-gradient"/>
    <linearGradient id="linear-gradient-7" x1="0.5" y1="-0.592" x2="0.5" y2="6.504" xlink:href="#linear-gradient"/>
    <linearGradient id="linear-gradient-8" x1="0.5" y1="0.339" x2="0.5" y2="8.338" xlink:href="#linear-gradient"/>
    <linearGradient id="linear-gradient-9" x1="0.5" y1="-0.569" x2="0.5" y2="27.735" xlink:href="#linear-gradient"/>
    <linearGradient id="linear-gradient-10" x1="0.5" y1="-2.368" x2="0.5" y2="49.376" xlink:href="#linear-gradient"/>
  </defs>
  <g id="Group_10" data-name="Group 10" transform="translate(-419 -1193.176)">
    <g id="Group_7" data-name="Group 7" transform="translate(419.699 1216.704)">
      <path id="Path_19" data-name="Path 19" d="M420.413,1240.736h8.976v48.555a4.969,4.969,0,0,0,3.458,5.123,8.374,8.374,0,0,0,1.489.175H450.1a4.6,4.6,0,0,0,4.816-3.5,4.77,4.77,0,0,0,.175-1.314l-.044-49.037h9.151v47.724q0,10.858-9.456,14.4a12.257,12.257,0,0,1-3.984.657H433.679q-8.231,0-12.609-9.106a18.515,18.515,0,0,1-.657-4.291Z" transform="translate(-420.413 -1240.736)" fill="url(#linear-gradient)"/>
      <path id="Path_20" data-name="Path 20" d="M570.007,1240.736q-6.522,3.546-7.573,9.108H546.19v-9.108Zm9.589,0h10.376v9.108H577.319q-4.6.614-4.859,4.377v49.3H563.7v-48.643q.042-9.063,8.713-13.135A19.128,19.128,0,0,1,579.6,1240.736Z" transform="translate(-483.967 -1240.736)" fill="url(#linear-gradient)"/>
      <path id="Path_21" data-name="Path 21" d="M671.967,1240.869l27.716,14.4a12.568,12.568,0,0,1,5.559,10.6v37.7h-8.363v-37.04q-.129-3.415-4.816-5.3l-20.1-10.419Zm0,12.172,8.757,4.291v46.235h-8.757Zm56.831-12.215v10.157l-22.156,11.427q-.482-4.114-4.509-7.618Zm.042,12.3v50.438h-8.668l-.045-46.06Z" transform="translate(-547.521 -1240.781)" fill="url(#linear-gradient-3)"/>
    </g>
    <g id="Group_8" data-name="Group 8" transform="translate(419 1289.022)">
      <path id="Path_22" data-name="Path 22" d="M426.429,1402.589a7.117,7.117,0,0,1-5.247-2.089,8.612,8.612,0,0,1,.138-11.607,7.628,7.628,0,0,1,10.22-.022,8.678,8.678,0,0,1,.158,11.629A7.1,7.1,0,0,1,426.429,1402.589Zm0-.818a4.089,4.089,0,0,0,3.36-1.635,8.511,8.511,0,0,0,1.477-5.383,8.356,8.356,0,0,0-1.545-5.451,4.245,4.245,0,0,0-6.588,0,8.353,8.353,0,0,0-1.542,5.451,8.511,8.511,0,0,0,1.475,5.383A4.091,4.091,0,0,0,426.429,1401.772Z" transform="translate(-419 -1386.918)" fill="#f6eedf"/>
      <path id="Path_23" data-name="Path 23" d="M480.286,1402.165v.431H476.63l-5.406-7h-1.272v4.52a2.534,2.534,0,0,0,.375,1.624,2.307,2.307,0,0,0,1.671.42v.431h-6.292v-.431q1.293,0,1.657-.5a3.674,3.674,0,0,0,.273-1.794v-9.835a2.643,2.643,0,0,0-.352-1.635,2.13,2.13,0,0,0-1.578-.409v-.432h6.268a8.6,8.6,0,0,1,3.633.66,3.412,3.412,0,0,1,2.135,3.315,3.244,3.244,0,0,1-.965,2.464,6.315,6.315,0,0,1-3.146,1.352l4.679,5.745a3.351,3.351,0,0,0,.865.807A2.111,2.111,0,0,0,480.286,1402.165Zm-10.334-12.946v5.588a9.842,9.842,0,0,0,3.362-.433,2.831,2.831,0,0,0,1.953-2.883,2.762,2.762,0,0,0-.988-2.306,4.628,4.628,0,0,0-2.917-.783,2.619,2.619,0,0,0-1.149.158A.718.718,0,0,0,469.952,1389.219Z" transform="translate(-442.6 -1387.243)" fill="#f6eedf"/>
      <path id="Path_24" data-name="Path 24" d="M526.728,1394.231v.409a1.57,1.57,0,0,0-1.158.3,2.167,2.167,0,0,0-.431,1.453v4.565q0,.295-1.929.966a11.014,11.014,0,0,1-3.589.67,10.364,10.364,0,0,1-3.43-.545,6.937,6.937,0,0,1-2.952-1.885,6.654,6.654,0,0,1-1.387-2.18,10.157,10.157,0,0,1-.5-3.452,7.372,7.372,0,0,1,2.067-5.224,7.5,7.5,0,0,1,5.7-2.385,9.255,9.255,0,0,1,2.09.227q.976.272,1.976.523a1.183,1.183,0,0,0,.68-.217.854.854,0,0,0,.387-.533h.5v4.792h-.34a6.167,6.167,0,0,0-2.157-3.065,5.168,5.168,0,0,0-6.359.613q-1.954,1.909-1.953,5.746a7.079,7.079,0,0,0,1.6,4.871,5.437,5.437,0,0,0,4.281,1.806,5.872,5.872,0,0,0,2.158-.374c.636-.25.955-.572.955-.966v-3.679c0-.894-.131-1.453-.387-1.68a2.608,2.608,0,0,0-1.613-.341v-.409Z" transform="translate(-465.665 -1386.918)" fill="#f6eedf"/>
      <path id="Path_25" data-name="Path 25" d="M573.754,1401.887v.431h-5.791v-.431a3.578,3.578,0,0,0,1.112-.114.722.722,0,0,0,.478-.749,2.032,2.032,0,0,0-.1-.545,9.356,9.356,0,0,0-.328-.886l-.932-2.181H562.24l-1.046,2.657a2.453,2.453,0,0,0-.182.863.836.836,0,0,0,.592.84,2.879,2.879,0,0,0,.953.114v.431h-4.5v-.431a1.452,1.452,0,0,0,.671-.136,2.021,2.021,0,0,0,.487-.364,6.376,6.376,0,0,0,.864-1.454c.182-.379.445-.969.794-1.771l4.724-11.152h.455l5.655,12.9a6.141,6.141,0,0,0,.921,1.623A1.531,1.531,0,0,0,573.754,1401.887Zm-11.129-5.406h5.248l-2.636-6.246Z" transform="translate(-489.266 -1386.965)" fill="#f6eedf"/>
      <path id="Path_26" data-name="Path 26" d="M621.192,1387.561v.432a2.789,2.789,0,0,0-1.612.5,3.668,3.668,0,0,0-.546,2.408v11.945h-.387l-9.992-12.446v8.857a4.466,4.466,0,0,0,.408,2.329,1.957,1.957,0,0,0,1.68.579v.431h-5.336v-.431a2.2,2.2,0,0,0,1.771-.545,4.235,4.235,0,0,0,.431-2.363v-10.016a4.261,4.261,0,0,0-1.079-1.021,2.363,2.363,0,0,0-1.123-.227v-.432h3.884l8.743,10.925V1390.9a3.983,3.983,0,0,0-.5-2.431,2.209,2.209,0,0,0-1.682-.476v-.432Z" transform="translate(-513.19 -1387.243)" fill="#f6eedf"/>
      <path id="Path_27" data-name="Path 27" d="M653.164,1402.6v-.431a2.73,2.73,0,0,0,1.806-.4,2.4,2.4,0,0,0,.4-1.646v-10.084a2.4,2.4,0,0,0-.4-1.669,2.871,2.871,0,0,0-1.806-.374v-.432h6.746v.432a2.95,2.95,0,0,0-1.771.374,2.187,2.187,0,0,0-.454,1.669v10.084a2.189,2.189,0,0,0,.454,1.658,2.874,2.874,0,0,0,1.771.387v.431Z" transform="translate(-537.321 -1387.243)" fill="#f6eedf"/>
      <path id="Path_28" data-name="Path 28" d="M695.214,1398.6h.522l-.545,4h-12.81v-.34l9.924-13.832h-5.019a3.958,3.958,0,0,0-3.02.931,4.458,4.458,0,0,0-.795,2.09h-.592l.455-3.885h11.947v.341l-9.812,13.831h5.838a3.837,3.837,0,0,0,2.885-.93A6.119,6.119,0,0,0,695.214,1398.6Z" transform="translate(-552.084 -1387.243)" fill="#f6eedf"/>
      <path id="Path_29" data-name="Path 29" d="M738.2,1398.759l-1.023,3.837H724.91v-.431a2.288,2.288,0,0,0,1.556-.4,2.316,2.316,0,0,0,.419-1.646v-10.084a2.354,2.354,0,0,0-.41-1.669,2.384,2.384,0,0,0-1.566-.374v-.432h12.061v3.248h-.5a2.865,2.865,0,0,0-.9-1.942,4.992,4.992,0,0,0-2.554-.443h-3.067a1.011,1.011,0,0,0-.592.125c-.1.083-.159.3-.159.647v5.042h3.5a2.823,2.823,0,0,0,1.873-.419,3.286,3.286,0,0,0,.625-1.738h.522v5.27H735.2a3.074,3.074,0,0,0-.648-1.76,2.951,2.951,0,0,0-1.85-.4h-3.5v5.588c0,.469.147.746.443.828a17.946,17.946,0,0,0,2.941.125,6.371,6.371,0,0,0,3.18-.613,5.011,5.011,0,0,0,1.794-2.362Z" transform="translate(-573.574 -1387.243)" fill="#f6eedf"/>
      <path id="Path_30" data-name="Path 30" d="M782.108,1402.165v.431h-3.656l-5.406-7h-1.272v4.52a2.533,2.533,0,0,0,.375,1.624,2.306,2.306,0,0,0,1.671.42v.431h-6.292v-.431q1.293,0,1.657-.5a3.681,3.681,0,0,0,.272-1.794v-9.835a2.644,2.644,0,0,0-.352-1.635,2.132,2.132,0,0,0-1.578-.409v-.432H773.8a8.6,8.6,0,0,1,3.633.66,3.411,3.411,0,0,1,2.134,3.315A3.245,3.245,0,0,1,778.6,1394a6.314,6.314,0,0,1-3.145,1.352l4.679,5.745a3.359,3.359,0,0,0,.864.807A2.113,2.113,0,0,0,782.108,1402.165Zm-10.334-12.946v5.588a9.844,9.844,0,0,0,3.363-.433,2.831,2.831,0,0,0,1.953-2.883,2.762,2.762,0,0,0-.988-2.306,4.629,4.629,0,0,0-2.917-.783,2.618,2.618,0,0,0-1.149.158A.718.718,0,0,0,771.774,1389.219Z" transform="translate(-595.108 -1387.243)" fill="#f6eedf"/>
    </g>
    <path id="Path_31" data-name="Path 31" d="M670.92,1233.676l28.235,14.516s-10.139-8.609-28.235-18.095Z" transform="translate(-127.293 -18.656)" fill="url(#linear-gradient-4)"/>
    <path id="Path_32" data-name="Path 32" d="M670.92,1218.693l28.236,21.375L670.92,1214.02Z" transform="translate(-127.293 -10.532)" fill="url(#linear-gradient-5)"/>
    <path id="Path_33" data-name="Path 33" d="M732.618,1247.177l26.148-14.118v-4.971Z" transform="translate(-158.468 -17.641)" fill="url(#linear-gradient-6)"/>
    <circle id="Ellipse_4" data-name="Ellipse 4" cx="4.971" cy="4.971" r="4.971" transform="translate(569.176 1212.157)" fill="url(#linear-gradient-7)"/>
    <path id="Path_34" data-name="Path 34" d="M699.291,1216.449l-2.72-1.995-2.738,1.97,1.057-3.2-2.719-1.995,3.373.015,1.057-3.2,1.028,3.212,3.373.015-2.738,1.97Z" transform="translate(-138.031 -7.51)" fill="#f6eedf"/>
    <path id="Path_35" data-name="Path 35" d="M731.677,1197.54l-1.411-1.035-1.421,1.022.548-1.662-1.411-1.035,1.75.008.548-1.662.533,1.667,1.75.008-1.421,1.022Z" transform="translate(-156.126)" fill="#f6eedf"/>
    <path id="Path_36" data-name="Path 36" d="M765.649,1225.962l-1.411-1.035-1.421,1.022.548-1.662-1.411-1.035,1.75.008.548-1.662.533,1.667,1.75.008-1.421,1.022Z" transform="translate(-173.292 -14.361)" fill="#f6eedf"/>
    <path id="Path_37" data-name="Path 37" d="M732.408,1217.98l-4.488,1.051v2.382a1.011,1.011,0,0,1-1.427.921l-1.911-.865a4.224,4.224,0,0,0-3.493,0l-1.911.865a1.011,1.011,0,0,1-1.427-.921v-2.382l-4.488-1.051,9.572-4.374Z" transform="translate(-148.689 -10.323)" fill="url(#linear-gradient-8)"/>
    <g id="Group_9" data-name="Group 9" transform="translate(581.844 1207.692)">
      <rect id="Rectangle_3" data-name="Rectangle 3" width="0.341" height="2.492" transform="translate(0)" fill="url(#linear-gradient-9)"/>
    </g>
    <circle id="Ellipse_5" data-name="Ellipse 5" cx="0.682" cy="0.682" r="0.682" transform="translate(581.333 1209.503)" fill="url(#linear-gradient-10)"/>
  </g>
</svg>
