<svg xmlns="http://www.w3.org/2000/svg" xmlns:xlink="http://www.w3.org/1999/xlink" width="156.125" height="39" viewBox="0 0 156.125 39">
  <defs>
    <linearGradient id="linear-gradient" x1="0.5" y1="-0.569" x2="0.5" y2="27.735" gradientUnits="objectBoundingBox">
      <stop offset="0" stop-color="#f57b51"/>
      <stop offset="1" stop-color="#d63447"/>
    </linearGradient>
    <linearGradient id="linear-gradient-2" x1="0.5" y1="-2.368" x2="0.5" y2="49.376" xlink:href="#linear-gradient"/>
    <linearGradient id="linear-gradient-3" x1="0.5" y1="-0.286" x2="0.5" y2="3.613" xlink:href="#linear-gradient"/>
    <linearGradient id="linear-gradient-4" x1="0.5" y1="0.107" x2="0.5" y2="2.815" xlink:href="#linear-gradient"/>
    <linearGradient id="linear-gradient-5" x1="0.5" y1="-0.219" x2="0.5" y2="3.477" xlink:href="#linear-gradient"/>
    <linearGradient id="linear-gradient-6" x1="0.5" y1="-0.592" x2="0.5" y2="6.504" xlink:href="#linear-gradient"/>
    <linearGradient id="linear-gradient-7" x1="0.5" y1="0.339" x2="0.5" y2="8.338" xlink:href="#linear-gradient"/>
  </defs>
  <g id="Group_1731" data-name="Group 1731" transform="translate(-413 -1172.176)">
    <g id="Group_8" data-name="Group 8" transform="translate(458.006 1187.176)">
      <path id="Path_22" data-name="Path 22" d="M423.414,1396.23a4.23,4.23,0,0,1-3.118-1.241,5.117,5.117,0,0,1,.082-6.9,4.532,4.532,0,0,1,6.073-.013,5.157,5.157,0,0,1,.094,6.91A4.22,4.22,0,0,1,423.414,1396.23Zm0-.486a2.43,2.43,0,0,0,2-.971,5.057,5.057,0,0,0,.878-3.2,4.966,4.966,0,0,0-.918-3.239,2.523,2.523,0,0,0-3.914,0,4.964,4.964,0,0,0-.917,3.239,5.057,5.057,0,0,0,.876,3.2A2.431,2.431,0,0,0,423.414,1395.744Z" transform="translate(-419 -1386.918)" fill="#f6eedf"/>
      <path id="Path_23" data-name="Path 23" d="M474.37,1396.239v.256H472.2l-3.212-4.157h-.756v2.686a1.5,1.5,0,0,0,.223.965,1.37,1.37,0,0,0,.993.25v.256h-3.739v-.256q.769,0,.984-.3a2.183,2.183,0,0,0,.162-1.066v-5.844a1.57,1.57,0,0,0-.209-.971,1.266,1.266,0,0,0-.937-.243v-.257h3.725a5.113,5.113,0,0,1,2.159.392,2.027,2.027,0,0,1,1.268,1.97,1.928,1.928,0,0,1-.573,1.464,3.753,3.753,0,0,1-1.869.8l2.78,3.414a1.99,1.99,0,0,0,.514.479A1.254,1.254,0,0,0,474.37,1396.239Zm-6.141-7.693v3.32a5.849,5.849,0,0,0,2-.257,1.682,1.682,0,0,0,1.16-1.713,1.642,1.642,0,0,0-.587-1.37,2.751,2.751,0,0,0-1.734-.465,1.558,1.558,0,0,0-.683.094A.427.427,0,0,0,468.229,1388.546Z" transform="translate(-451.976 -1387.372)" fill="#f6eedf"/>
      <path id="Path_24" data-name="Path 24" d="M520.489,1391.264v.243a.933.933,0,0,0-.688.176,1.288,1.288,0,0,0-.256.863v2.713q0,.175-1.146.574a6.543,6.543,0,0,1-2.132.4,6.157,6.157,0,0,1-2.038-.324,4.121,4.121,0,0,1-1.754-1.12,3.956,3.956,0,0,1-.824-1.3,6.038,6.038,0,0,1-.3-2.051,4.381,4.381,0,0,1,1.228-3.1,4.456,4.456,0,0,1,3.387-1.417,5.5,5.5,0,0,1,1.242.135q.58.162,1.174.311a.7.7,0,0,0,.4-.129.507.507,0,0,0,.23-.317h.3v2.847h-.2a3.664,3.664,0,0,0-1.282-1.821,3.071,3.071,0,0,0-3.779.364,4.573,4.573,0,0,0-1.16,3.415,4.206,4.206,0,0,0,.951,2.895,3.231,3.231,0,0,0,2.544,1.073,3.493,3.493,0,0,0,1.282-.222c.378-.149.568-.34.568-.574v-2.186c0-.531-.078-.863-.23-1a1.549,1.549,0,0,0-.958-.2v-.243Z" transform="translate(-484.204 -1386.918)" fill="#f6eedf"/>
      <path id="Path_25" data-name="Path 25" d="M567.385,1395.85v.256h-3.441v-.256a2.128,2.128,0,0,0,.661-.068.429.429,0,0,0,.284-.445,1.207,1.207,0,0,0-.061-.324,5.545,5.545,0,0,0-.2-.526l-.554-1.3h-3.535l-.622,1.579a1.457,1.457,0,0,0-.108.513.5.5,0,0,0,.352.5,1.712,1.712,0,0,0,.567.068v.256H558.06v-.256a.863.863,0,0,0,.4-.081,1.2,1.2,0,0,0,.29-.216,3.78,3.78,0,0,0,.514-.864c.108-.225.265-.575.472-1.052l2.807-6.627h.27l3.36,7.666a3.652,3.652,0,0,0,.547.964A.911.911,0,0,0,567.385,1395.85Zm-6.613-3.212h3.118l-1.566-3.711Z" transform="translate(-517.181 -1386.983)" fill="#f6eedf"/>
      <path id="Path_26" data-name="Path 26" d="M614.787,1387.561v.257a1.656,1.656,0,0,0-.958.3,2.179,2.179,0,0,0-.324,1.431v7.1h-.23l-5.937-7.4v5.263a2.655,2.655,0,0,0,.242,1.384,1.163,1.163,0,0,0,1,.344v.256h-3.171v-.256a1.309,1.309,0,0,0,1.052-.324,2.517,2.517,0,0,0,.256-1.4v-5.951a2.53,2.53,0,0,0-.641-.607,1.4,1.4,0,0,0-.667-.135v-.257h2.308l5.2,6.492v-4.508a2.367,2.367,0,0,0-.3-1.444,1.313,1.313,0,0,0-1-.283v-.257Z" transform="translate(-550.61 -1387.372)" fill="#f6eedf"/>
      <path id="Path_27" data-name="Path 27" d="M653.164,1396.5v-.256a1.623,1.623,0,0,0,1.073-.237,1.43,1.43,0,0,0,.237-.978v-5.992a1.425,1.425,0,0,0-.237-.992,1.705,1.705,0,0,0-1.073-.222v-.257h4.009v.257a1.752,1.752,0,0,0-1.052.222,1.3,1.3,0,0,0-.27.992v5.992a1.3,1.3,0,0,0,.27.985,1.707,1.707,0,0,0,1.052.23v.256Z" transform="translate(-584.328 -1387.372)" fill="#f6eedf"/>
      <path id="Path_28" data-name="Path 28" d="M690.006,1394.12h.31l-.324,2.375h-7.612v-.2l5.9-8.219H685.3a2.351,2.351,0,0,0-1.794.553,2.647,2.647,0,0,0-.472,1.242h-.352l.27-2.308h7.1v.2l-5.831,8.218h3.469a2.28,2.28,0,0,0,1.714-.553A3.637,3.637,0,0,0,690.006,1394.12Z" transform="translate(-604.956 -1387.372)" fill="#f6eedf"/>
      <path id="Path_29" data-name="Path 29" d="M732.805,1394.215l-.608,2.28H724.91v-.256a1.361,1.361,0,0,0,.925-.237,1.377,1.377,0,0,0,.249-.978v-5.992a1.4,1.4,0,0,0-.244-.992,1.416,1.416,0,0,0-.93-.222v-.257h7.167v1.93h-.3a1.7,1.7,0,0,0-.533-1.154,2.968,2.968,0,0,0-1.517-.263h-1.822a.6.6,0,0,0-.352.074c-.062.05-.094.178-.094.385v3h2.078a1.678,1.678,0,0,0,1.113-.249,1.952,1.952,0,0,0,.371-1.033h.31v3.131h-.31a1.826,1.826,0,0,0-.385-1.046,1.753,1.753,0,0,0-1.1-.236H727.46v3.32c0,.278.087.443.263.492a10.684,10.684,0,0,0,1.748.074,3.786,3.786,0,0,0,1.89-.364,2.978,2.978,0,0,0,1.066-1.4Z" transform="translate(-634.983 -1387.372)" fill="#f6eedf"/>
      <path id="Path_30" data-name="Path 30" d="M776.192,1396.239v.256h-2.172l-3.213-4.157h-.756v2.686a1.505,1.505,0,0,0,.223.965,1.369,1.369,0,0,0,.993.25v.256h-3.739v-.256q.769,0,.985-.3a2.187,2.187,0,0,0,.162-1.066v-5.844a1.571,1.571,0,0,0-.209-.971,1.267,1.267,0,0,0-.937-.243v-.257h3.725a5.113,5.113,0,0,1,2.159.392,2.027,2.027,0,0,1,1.268,1.97,1.928,1.928,0,0,1-.573,1.464,3.752,3.752,0,0,1-1.869.8l2.78,3.414a2,2,0,0,0,.514.479A1.255,1.255,0,0,0,776.192,1396.239Zm-6.141-7.693v3.32a5.851,5.851,0,0,0,2-.257,1.682,1.682,0,0,0,1.16-1.713,1.642,1.642,0,0,0-.587-1.37,2.751,2.751,0,0,0-1.734-.465,1.557,1.557,0,0,0-.683.094A.426.426,0,0,0,770.051,1388.546Z" transform="translate(-665.073 -1387.372)" fill="#f6eedf"/>
      <path id="Path_1427" data-name="Path 1427" d="M423.414,1396.23a4.23,4.23,0,0,1-3.118-1.241,5.117,5.117,0,0,1,.082-6.9,4.532,4.532,0,0,1,6.073-.013,4.591,4.591,0,0,1,1.376,3.509,8.352,8.352,0,0,1-1.282,3.4A7.63,7.63,0,0,1,423.414,1396.23Zm0-.486a2.43,2.43,0,0,0,2-.971,5.057,5.057,0,0,0,.878-3.2,4.966,4.966,0,0,0-.918-3.239,2.523,2.523,0,0,0-3.914,0,4.964,4.964,0,0,0-.917,3.239,5.057,5.057,0,0,0,.876,3.2A2.431,2.431,0,0,0,423.414,1395.744Z" transform="translate(-419 -1386.918)" fill="#f6eedf"/>
    </g>
    <g id="Group_9" data-name="Group 9" transform="translate(436.168 1190.802)">
      <rect id="Rectangle_3" data-name="Rectangle 3" width="0.203" height="1.481" transform="translate(0)" fill="url(#linear-gradient)"/>
    </g>
    <circle id="Ellipse_5" data-name="Ellipse 5" cx="0.405" cy="0.405" r="0.405" transform="translate(435.865 1191.877)" fill="url(#linear-gradient-2)"/>
    <g id="Group_1733" data-name="Group 1733" transform="translate(0 0)">
      <g id="Group_1732" data-name="Group 1732" transform="translate(-0.459 -10)">
        <path id="Path_31" data-name="Path 31" d="M670.92,1232.224l16.778,8.626A99.654,99.654,0,0,0,670.92,1230.1Z" transform="translate(-257.461 -37.068)" fill="url(#linear-gradient-3)"/>
        <path id="Path_32" data-name="Path 32" d="M670.92,1216.8l16.778,12.7L670.92,1214.02Z" transform="translate(-257.461 -25.717)" fill="url(#linear-gradient-4)"/>
        <path id="Path_33" data-name="Path 33" d="M732.618,1239.431l15.537-8.389v-2.954Z" transform="translate(-301.021 -35.649)" fill="url(#linear-gradient-5)"/>
        <circle id="Ellipse_4" data-name="Ellipse 4" cx="2.954" cy="2.954" r="2.954" transform="translate(428.641 1193.454)" fill="url(#linear-gradient-6)"/>
        <path id="Path_34" data-name="Path 34" d="M696.4,1213.036l-1.616-1.185-1.627,1.171.628-1.9-1.616-1.185,2,.009.628-1.9.611,1.909,2,.009-1.627,1.171Z" transform="translate(-272.465 -21.494)" fill="#f6eedf"/>
        <path id="Path_35" data-name="Path 35" d="M730.177,1195.769l-.839-.615-.844.608.326-.988-.839-.615,1.04,0,.326-.988.317.99,1.04,0-.844.608Z" transform="translate(-297.749 -11)" fill="#f6eedf"/>
        <path id="Path_36" data-name="Path 36" d="M764.15,1224.191l-.839-.615-.844.607.326-.988-.839-.615,1.04,0,.326-.988.317.991,1.04,0-.844.607Z" transform="translate(-321.734 -31.067)" fill="#f6eedf"/>
        <path id="Path_37" data-name="Path 37" d="M724.64,1216.205l-2.667.624v1.415a.6.6,0,0,1-.848.547l-1.135-.514a2.511,2.511,0,0,0-2.076,0l-1.136.514a.6.6,0,0,1-.848-.547v-1.415l-2.667-.624,5.688-2.6Z" transform="translate(-287.358 -25.425)" fill="url(#linear-gradient-7)"/>
      </g>
      <text id="UTM" transform="translate(430 1207.176)" fill="#ffd6a6" font-size="15" font-family="SitkaBanner-Bold, Sitka Banner" font-weight="700"><tspan x="-15.183" y="0">UTM</tspan></text>
    </g>
  </g>
</svg>
