<svg xmlns="http://www.w3.org/2000/svg" xmlns:xlink="http://www.w3.org/1999/xlink" width="53" height="54" viewBox="0 0 53 54">
  <defs>
    <linearGradient id="linear-gradient" x1="0.708" y1="1.142" x2="0.336" y2="0.028" gradientUnits="objectBoundingBox">
      <stop offset="0"/>
      <stop offset="1" stop-color="#545454"/>
    </linearGradient>
    <filter id="Ellipse_145" x="0" y="0" width="53" height="54" filterUnits="userSpaceOnUse">
      <feOffset dy="3" input="SourceAlpha"/>
      <feGaussianBlur stdDeviation="3" result="blur"/>
      <feFlood flood-opacity="0.161"/>
      <feComposite operator="in" in2="blur"/>
      <feComposite in="SourceGraphic"/>
    </filter>
    <linearGradient id="linear-gradient-2" x1="0.25" y1="0.046" x2="0.805" y2="0.926" gradientUnits="objectBoundingBox">
      <stop offset="0" stop-color="#535252"/>
      <stop offset="1" stop-color="#111010"/>
    </linearGradient>
    <filter id="Path_1331" x="0.668" y="1.041" width="51.546" height="52.481" filterUnits="userSpaceOnUse">
      <feOffset dy="3" input="SourceAlpha"/>
      <feGaussianBlur stdDeviation="3" result="blur-2"/>
      <feFlood flood-opacity="0.161"/>
      <feComposite operator="in" in2="blur-2"/>
      <feComposite in="SourceGraphic"/>
    </filter>
    <linearGradient id="linear-gradient-3" x1="0.5" y1="-0.166" x2="0.5" y2="0.957" gradientUnits="objectBoundingBox">
      <stop offset="0" stop-color="#f57b51"/>
      <stop offset="1" stop-color="#d63447"/>
    </linearGradient>
    <linearGradient id="linear-gradient-5" x1="0.5" y1="-0.167" x2="0.5" y2="0.957" xlink:href="#linear-gradient-3"/>
    <linearGradient id="linear-gradient-6" x1="0.5" y1="-0.286" x2="0.5" y2="3.613" xlink:href="#linear-gradient-3"/>
    <linearGradient id="linear-gradient-7" x1="0.5" y1="0.107" x2="0.5" y2="2.815" xlink:href="#linear-gradient-3"/>
    <linearGradient id="linear-gradient-8" x1="0.5" y1="-0.219" x2="0.5" y2="3.477" xlink:href="#linear-gradient-3"/>
    <linearGradient id="linear-gradient-9" x1="0.5" y1="-0.592" x2="0.5" y2="6.504" xlink:href="#linear-gradient-3"/>
    <linearGradient id="linear-gradient-10" x1="0.5" y1="0.339" x2="0.5" y2="8.338" xlink:href="#linear-gradient-3"/>
    <linearGradient id="linear-gradient-11" x1="0.5" y1="-0.569" x2="0.5" y2="27.735" xlink:href="#linear-gradient-3"/>
    <linearGradient id="linear-gradient-12" x1="0.5" y1="-2.368" x2="0.5" y2="49.376" xlink:href="#linear-gradient-3"/>
  </defs>
  <g id="Group_1717" data-name="Group 1717" transform="translate(12719 -4770.625)">
    <g transform="matrix(1, 0, 0, 1, -12719, 4770.62)" filter="url(#Ellipse_145)">
      <ellipse id="Ellipse_145-2" data-name="Ellipse 145" cx="17.5" cy="18" rx="17.5" ry="18" transform="translate(9 6)" fill="url(#linear-gradient)"/>
    </g>
    <g transform="matrix(1, 0, 0, 1, -12719, 4770.62)" filter="url(#Path_1331)">
      <g id="Path_1331-2" data-name="Path 1331" transform="translate(9.67 7.04)" fill="url(#linear-gradient-2)">
        <path d="M 16.77293014526367 33.98139953613281 C 12.428879737854 33.98139953613281 8.344099998474121 32.24179840087891 5.271059989929199 29.08305931091309 C 2.194400072097778 25.92058944702148 0.5000001192092896 21.71488952636719 0.5000001192092896 17.24069976806641 C 0.5000001192092896 12.76651000976563 2.194400072097778 8.560810089111328 5.271059989929199 5.398339748382568 C 8.344099998474121 2.239599704742432 12.428879737854 0.4999997615814209 16.77293014526367 0.4999997615814209 C 21.11697959899902 0.4999997615814209 25.20175933837891 2.239599704742432 28.27479934692383 5.398339748382568 C 31.35145950317383 8.560810089111328 33.04586029052734 12.76651000976563 33.04586029052734 17.24069976806641 C 33.04586029052734 21.71488952636719 31.35145950317383 25.92058944702148 28.27479934692383 29.08305931091309 C 25.20175933837891 32.24179840087891 21.11697959899902 33.98139953613281 16.77293014526367 33.98139953613281 Z" stroke="none"/>
        <path d="M 16.77293014526367 1 C 12.56504058837891 1 8.607540130615234 2.685850143432617 5.629440307617188 5.746999740600586 C 2.644100189208984 8.81559944152832 1 12.89747047424316 1 17.24069976806641 C 1 21.58393096923828 2.644100189208984 25.66580009460449 5.629440307617188 28.73439979553223 C 8.607540130615234 31.7955493927002 12.56504058837891 33.48139953613281 16.77293014526367 33.48139953613281 C 20.98081970214844 33.48139953613281 24.93832015991211 31.7955493927002 27.91641998291016 28.73439979553223 C 30.90176010131836 25.66580009460449 32.54586029052734 21.58393096923828 32.54586029052734 17.24069976806641 C 32.54586029052734 12.89747047424316 30.90176010131836 8.81559944152832 27.91641998291016 5.746999740600586 C 24.93832015991211 2.685850143432617 20.98081970214844 1 16.77293014526367 1 M 16.77293014526367 0 C 26.0363597869873 0 33.54586029052734 7.718929290771484 33.54586029052734 17.24069976806641 C 33.54586029052734 26.76247024536133 26.0363597869873 34.48139953613281 16.77293014526367 34.48139953613281 C 7.509500503540039 34.48139953613281 0 26.76247024536133 0 17.24069976806641 C 0 7.718929290771484 7.509500503540039 0 16.77293014526367 0 Z" stroke="none" fill="#f57b51"/>
      </g>
    </g>
    <g id="Group_1716" data-name="Group 1716" transform="translate(-12705.056 4787.422)">
      <g id="Group_7" data-name="Group 7" transform="translate(0.093 3.145)">
        <path id="Path_19" data-name="Path 19" d="M420.413,1240.736h1.2v6.489a.664.664,0,0,0,.462.685,1.121,1.121,0,0,0,.2.023h2.107a.614.614,0,0,0,.644-.468.636.636,0,0,0,.023-.176l-.006-6.554h1.223v6.378a1.863,1.863,0,0,1-1.264,1.925,1.638,1.638,0,0,1-.533.088h-2.282a1.831,1.831,0,0,1-1.685-1.217,2.476,2.476,0,0,1-.088-.573Z" transform="translate(-420.413 -1240.736)" fill="url(#linear-gradient-3)"/>
        <path id="Path_20" data-name="Path 20" d="M549.373,1240.736a1.788,1.788,0,0,0-1.012,1.217H546.19v-1.217Zm1.282,0h1.387v1.217H550.35q-.614.082-.649.585v6.589h-1.17v-6.5a1.835,1.835,0,0,1,1.164-1.756A2.559,2.559,0,0,1,550.655,1240.736Z" transform="translate(-537.874 -1240.736)" fill="url(#linear-gradient-3)"/>
        <path id="Path_21" data-name="Path 21" d="M671.967,1240.832l3.7,1.925a1.679,1.679,0,0,1,.743,1.416v5.038H675.3v-4.95q-.017-.456-.644-.708l-2.686-1.393Zm0,1.627,1.17.573v6.179h-1.17Zm7.6-1.633v1.357l-2.961,1.527a1.606,1.606,0,0,0-.6-1.018Zm.006,1.644v6.741H678.41l-.006-6.156Z" transform="translate(-655.335 -1240.82)" fill="url(#linear-gradient-5)"/>
      </g>
      <g id="Group_8" data-name="Group 8" transform="translate(0 12.81)">
        <path id="Path_22" data-name="Path 22" d="M419.993,1389.012a.95.95,0,0,1-.7-.279,1.151,1.151,0,0,1,.018-1.551,1.02,1.02,0,0,1,1.366,0,1.16,1.16,0,0,1,.021,1.554A.948.948,0,0,1,419.993,1389.012Zm0-.109a.546.546,0,0,0,.449-.219,1.137,1.137,0,0,0,.2-.719,1.117,1.117,0,0,0-.206-.729.567.567,0,0,0-.88,0,1.116,1.116,0,0,0-.206.729,1.137,1.137,0,0,0,.2.719A.546.546,0,0,0,419.993,1388.9Z" transform="translate(-419 -1386.918)" fill="#f6eedf"/>
        <path id="Path_23" data-name="Path 23" d="M467.655,1389.513v.058h-.489l-.723-.935h-.17v.6a.339.339,0,0,0,.05.217.309.309,0,0,0,.223.056v.058h-.841v-.058q.173,0,.221-.067a.491.491,0,0,0,.036-.24v-1.314a.352.352,0,0,0-.047-.218.284.284,0,0,0-.211-.055v-.058h.838a1.15,1.15,0,0,1,.486.088.456.456,0,0,1,.285.443.433.433,0,0,1-.129.329.845.845,0,0,1-.42.181l.625.768a.449.449,0,0,0,.116.108A.281.281,0,0,0,467.655,1389.513Zm-1.381-1.73v.747a1.313,1.313,0,0,0,.449-.058.378.378,0,0,0,.261-.385.369.369,0,0,0-.132-.308.618.618,0,0,0-.39-.1.348.348,0,0,0-.154.021A.1.1,0,0,0,466.273,1387.783Z" transform="translate(-462.618 -1387.519)" fill="#f6eedf"/>
        <path id="Path_24" data-name="Path 24" d="M513.408,1387.9v.054a.209.209,0,0,0-.155.04.29.29,0,0,0-.058.194v.61q0,.039-.258.129a1.48,1.48,0,0,1-.48.089,1.386,1.386,0,0,1-.458-.073.925.925,0,0,1-.395-.252.893.893,0,0,1-.185-.292,1.358,1.358,0,0,1-.067-.461.986.986,0,0,1,.276-.7,1,1,0,0,1,.762-.319,1.242,1.242,0,0,1,.279.03q.13.036.264.07a.158.158,0,0,0,.091-.029.114.114,0,0,0,.052-.071h.067v.64H513.1a.824.824,0,0,0-.288-.41.692.692,0,0,0-.85.082,1.029,1.029,0,0,0-.261.768.945.945,0,0,0,.214.651.726.726,0,0,0,.572.241.783.783,0,0,0,.289-.05c.085-.033.128-.076.128-.129v-.492c0-.119-.018-.194-.052-.225a.35.35,0,0,0-.216-.046v-.054Z" transform="translate(-505.247 -1386.918)" fill="#f6eedf"/>
        <path id="Path_25" data-name="Path 25" d="M560.157,1389v.058h-.774V1389a.478.478,0,0,0,.149-.015.1.1,0,0,0,.064-.1.268.268,0,0,0-.014-.073,1.236,1.236,0,0,0-.044-.118l-.125-.292h-.8l-.14.355a.328.328,0,0,0-.024.115.112.112,0,0,0,.079.112.385.385,0,0,0,.127.015v.058h-.6V1389a.193.193,0,0,0,.09-.018.266.266,0,0,0,.065-.048.856.856,0,0,0,.115-.194c.024-.051.06-.129.106-.237l.631-1.49h.061l.756,1.724a.822.822,0,0,0,.123.217A.2.2,0,0,0,560.157,1389Zm-1.487-.723h.7l-.352-.835Z" transform="translate(-548.866 -1387.004)" fill="#f6eedf"/>
        <path id="Path_26" data-name="Path 26" d="M607.517,1387.561v.058a.374.374,0,0,0-.216.067.49.49,0,0,0-.073.322v1.6h-.052l-1.335-1.663v1.184a.6.6,0,0,0,.055.311.261.261,0,0,0,.225.077v.058h-.713v-.058a.294.294,0,0,0,.237-.073.565.565,0,0,0,.058-.316v-1.339a.57.57,0,0,0-.144-.136.316.316,0,0,0-.15-.03v-.058h.519l1.169,1.46v-1.014a.532.532,0,0,0-.067-.325.3.3,0,0,0-.225-.064v-.058Z" transform="translate(-593.082 -1387.519)" fill="#f6eedf"/>
        <path id="Path_27" data-name="Path 27" d="M653.164,1389.57v-.058a.366.366,0,0,0,.241-.053.322.322,0,0,0,.053-.22v-1.348a.321.321,0,0,0-.053-.223.385.385,0,0,0-.241-.05v-.058h.9v.058a.4.4,0,0,0-.237.05.293.293,0,0,0-.061.223v1.348a.293.293,0,0,0,.061.222.384.384,0,0,0,.237.052v.058Z" transform="translate(-637.682 -1387.519)" fill="#f6eedf"/>
        <path id="Path_28" data-name="Path 28" d="M684.1,1389.036h.07l-.073.534h-1.712v-.045l1.326-1.849h-.671a.53.53,0,0,0-.4.124.6.6,0,0,0-.106.279h-.079l.061-.519h1.6v.046l-1.311,1.849h.78a.513.513,0,0,0,.386-.124A.818.818,0,0,0,684.1,1389.036Z" transform="translate(-664.967 -1387.519)" fill="#f6eedf"/>
        <path id="Path_29" data-name="Path 29" d="M726.686,1389.058l-.137.513H724.91v-.058a.307.307,0,0,0,.208-.053.31.31,0,0,0,.056-.22v-1.348a.315.315,0,0,0-.055-.223.319.319,0,0,0-.209-.05v-.058h1.612V1388h-.067a.383.383,0,0,0-.12-.26.667.667,0,0,0-.341-.059h-.41a.135.135,0,0,0-.079.017c-.014.011-.021.04-.021.087v.674h.467a.377.377,0,0,0,.25-.056.44.44,0,0,0,.084-.232h.07v.7h-.07a.411.411,0,0,0-.087-.235.394.394,0,0,0-.247-.053h-.467v.747c0,.063.02.1.059.111a2.379,2.379,0,0,0,.393.017.852.852,0,0,0,.425-.082.671.671,0,0,0,.24-.316Z" transform="translate(-704.684 -1387.519)" fill="#f6eedf"/>
        <path id="Path_30" data-name="Path 30" d="M769.477,1389.513v.058h-.489l-.723-.935h-.17v.6a.339.339,0,0,0,.05.217.308.308,0,0,0,.223.056v.058h-.841v-.058q.173,0,.221-.067a.493.493,0,0,0,.036-.24v-1.314a.353.353,0,0,0-.047-.218.285.285,0,0,0-.211-.055v-.058h.838a1.15,1.15,0,0,1,.485.088.456.456,0,0,1,.285.443.433.433,0,0,1-.129.329.844.844,0,0,1-.42.181l.625.768a.449.449,0,0,0,.116.108A.281.281,0,0,0,769.477,1389.513Zm-1.381-1.73v.747a1.314,1.314,0,0,0,.449-.058.378.378,0,0,0,.261-.385.369.369,0,0,0-.132-.308.618.618,0,0,0-.39-.1.348.348,0,0,0-.154.021A.1.1,0,0,0,768.1,1387.783Z" transform="translate(-744.484 -1387.519)" fill="#f6eedf"/>
      </g>
      <path id="Path_31" data-name="Path 31" d="M670.92,1230.575l3.774,1.94a22.415,22.415,0,0,0-3.774-2.418Z" transform="translate(-654.264 -1227.656)" fill="url(#linear-gradient-6)"/>
      <path id="Path_32" data-name="Path 32" d="M670.92,1214.644l3.774,2.857-3.774-3.481Z" transform="translate(-654.264 -1212.642)" fill="url(#linear-gradient-7)"/>
      <path id="Path_33" data-name="Path 33" d="M732.618,1230.639l3.495-1.887v-.664Z" transform="translate(-711.882 -1225.779)" fill="url(#linear-gradient-8)"/>
      <circle id="Ellipse_4" data-name="Ellipse 4" cx="0.664" cy="0.664" r="0.664" transform="translate(20.071 2.537)" fill="url(#linear-gradient-9)"/>
      <path id="Path_34" data-name="Path 34" d="M693.123,1209.163l-.363-.266-.366.263.141-.428-.363-.267.451,0,.141-.428.137.429.451,0-.366.263Z" transform="translate(-674.11 -1207.056)" fill="#f6eedf"/>
      <path id="Path_35" data-name="Path 35" d="M728.476,1193.759l-.189-.138-.19.137.073-.222-.189-.138h.234l.073-.222.071.223h.234l-.19.137Z" transform="translate(-707.553 -1193.176)" fill="#f6eedf"/>
      <path id="Path_36" data-name="Path 36" d="M762.448,1222.181l-.189-.138-.19.137.073-.222-.189-.138h.234l.073-.222.071.223h.234l-.19.137Z" transform="translate(-739.279 -1219.718)" fill="#f6eedf"/>
      <path id="Path_37" data-name="Path 37" d="M715.823,1214.191l-.6.141v.318a.135.135,0,0,1-.191.123l-.255-.116a.564.564,0,0,0-.467,0l-.255.116a.135.135,0,0,1-.191-.123v-.318l-.6-.141,1.279-.585Z" transform="translate(-693.809 -1212.255)" fill="url(#linear-gradient-10)"/>
      <g id="Group_9" data-name="Group 9" transform="translate(21.764 1.94)">
        <rect id="Rectangle_3" data-name="Rectangle 3" width="0.046" height="0.333" transform="translate(0)" fill="url(#linear-gradient-11)"/>
      </g>
      <circle id="Ellipse_5" data-name="Ellipse 5" cx="0.091" cy="0.091" r="0.091" transform="translate(21.696 2.182)" fill="url(#linear-gradient-12)"/>
    </g>
  </g>
</svg>
