<svg xmlns="http://www.w3.org/2000/svg" width="24.479" height="21.24" viewBox="0 0 24.479 21.24">
  <path id="shop" d="M23.167,34H1.658a.44.44,0,0,1-.444-.436V23.086A2.328,2.328,0,0,1,0,21.045V13.2a.44.44,0,0,1,.444-.436H24.035a.44.44,0,0,1,.444.436v7.849a2.324,2.324,0,0,1-.867,1.807V33.564A.44.44,0,0,1,23.167,34Zm-13.29-.871H22.723V23.306a2.43,2.43,0,0,1-.588.084h-.086a2.4,2.4,0,0,1-1.946-.985,2.4,2.4,0,0,1-1.946.985h-.039a2.4,2.4,0,0,1-1.946-.985,2.4,2.4,0,0,1-1.946.985h-.039a2.4,2.4,0,0,1-1.946-.985,2.4,2.4,0,0,1-1.946.985h-.039a2.4,2.4,0,0,1-1.946-.985,2.4,2.4,0,0,1-1.946.985H6.322a2.4,2.4,0,0,1-1.946-.985,2.4,2.4,0,0,1-1.946.985H2.391a2.46,2.46,0,0,1-.288-.017v9.755H3.932V25.281a.44.44,0,0,1,.444-.436H9.434a.44.44,0,0,1,.444.436v7.848Zm-5.058,0h4.17V25.716H4.82ZM20.547,21.045a1.49,1.49,0,0,0,1.5,1.474h.039a1.515,1.515,0,0,0,.832-.247,1.466,1.466,0,0,0,.67-1.227V13.631H20.547Zm-3.932,0a1.49,1.49,0,0,0,1.5,1.474h.039a1.49,1.49,0,0,0,1.5-1.474V13.631H16.615v7.413Zm-3.932,0a1.49,1.49,0,0,0,1.5,1.474h.039a1.49,1.49,0,0,0,1.5-1.474V13.631H12.683Zm-3.932,0a1.49,1.49,0,0,0,1.5,1.474h.039a1.49,1.49,0,0,0,1.5-1.474V13.631H8.752Zm-3.932,0a1.49,1.49,0,0,0,1.5,1.474h.039a1.49,1.49,0,0,0,1.5-1.474V13.631H4.82ZM2.361,22.518H2.43a1.49,1.49,0,0,0,1.5-1.474V13.631H.888v7.413a1.469,1.469,0,0,0,.937,1.365A1.516,1.516,0,0,0,2.361,22.518Zm17.453,7.567H13.222a.44.44,0,0,1-.444-.436V25.281a.44.44,0,0,1,.444-.436h6.591a.44.44,0,0,1,.444.436v4.369A.44.44,0,0,1,19.814,30.085Zm-6.147-.871h5.7v-3.5h-5.7v3.5Z" transform="translate(0 -12.76)"/>
</svg>
