<svg xmlns="http://www.w3.org/2000/svg" width="431" height="385" viewBox="0 0 431 385">
  <g id="class" transform="translate(1 1.5)">
    <path id="Path_1706" data-name="Path 1706" d="M393.648,382H35.355A34.893,34.893,0,0,1,.5,347.145V78.855A34.893,34.893,0,0,1,35.355,44H393.648A34.89,34.89,0,0,1,428.5,78.855V347.148A34.892,34.892,0,0,1,393.648,382ZM35.355,52A26.885,26.885,0,0,0,8.5,78.855V347.148A26.888,26.888,0,0,0,35.355,374H393.648A26.885,26.885,0,0,0,420.5,347.148V78.855A26.885,26.885,0,0,0,393.648,52Zm0,0" stroke="#000" stroke-width="3"/>
    <path id="Path_1707" data-name="Path 1707" d="M424.5,140H4.5a4,4,0,0,1-4-4V78.855A34.893,34.893,0,0,1,35.355,44H393.648A34.89,34.89,0,0,1,428.5,78.855V136a4,4,0,0,1-4,4Zm-416-8h412V78.855A26.885,26.885,0,0,0,393.648,52H35.355A26.885,26.885,0,0,0,8.5,78.855Zm0,0" stroke="#000" stroke-width="3"/>
    <path id="Path_1708" data-name="Path 1708" d="M360.5,169h0Zm-310,18" fill="#6bdddd"/>
    <path id="Path_1709" data-name="Path 1709" d="M312.949,341H360.5a18,18,0,0,0,18-18V285H312.949Zm0,0"/>
    <path id="Path_1711" data-name="Path 1711" d="M181.852,285H247.4v56H181.852Zm0,0"/>
    <path id="Path_1715" data-name="Path 1715" d="M50.5,229h65.551v56H50.5Zm0,0"/>
    <path id="Path_1718" data-name="Path 1718" d="M247.4,229h65.551v56H247.4Zm0,0"/>
    <g id="Group_1955" data-name="Group 1955">
      <path id="Path_1723" data-name="Path 1723" d="M360.5,345H68.5a22.027,22.027,0,0,1-22-22V187a22.027,22.027,0,0,1,22-22h292a22.027,22.027,0,0,1,22,22V323A22.027,22.027,0,0,1,360.5,345ZM68.5,173a14.017,14.017,0,0,0-14,14V323a14.017,14.017,0,0,0,14,14h292a14.017,14.017,0,0,0,14-14V187a14.017,14.017,0,0,0-14-14Zm0,0" stroke="#000" stroke-width="3"/>
      <path id="Path_1724" data-name="Path 1724" d="M378.5,289H50.5a4,4,0,0,1-4-4V229a4,4,0,0,1,4-4h328a4,4,0,0,1,4,4v56A4,4,0,0,1,378.5,289Zm-324-8h320V233H54.5Zm0,0" stroke="#000" stroke-width="3"/>
      <path id="Path_1725" data-name="Path 1725" d="M360.5,345H68.5a22.027,22.027,0,0,1-22-22V285a4,4,0,0,1,4-4h328a4,4,0,0,1,4,4v38A22.027,22.027,0,0,1,360.5,345Zm-306-56v34a14.017,14.017,0,0,0,14,14h292a14.017,14.017,0,0,0,14-14V289Zm0,0" stroke="#000" stroke-width="3"/>
      <path id="Path_1726" data-name="Path 1726" d="M360.5,345H312.949a4,4,0,0,1-4-4V285a4,4,0,0,1,4-4H378.5a4,4,0,0,1,4,4v38A22.027,22.027,0,0,1,360.5,345Zm-43.551-8H360.5a14.017,14.017,0,0,0,14-14V289H316.949Zm0,0" stroke="#000" stroke-width="3"/>
      <path id="Path_1727" data-name="Path 1727" d="M312.949,345H247.4a4,4,0,0,1-4-4V285a4,4,0,0,1,4-4h65.551a4,4,0,0,1,4,4v56A4,4,0,0,1,312.949,345ZM251.4,337h57.551V289H251.4Zm0,0" stroke="#000" stroke-width="3"/>
      <path id="Path_1728" data-name="Path 1728" d="M247.4,345H181.851a4,4,0,0,1-4-4V285a4,4,0,0,1,4-4H247.4a4,4,0,0,1,4,4v56a4,4,0,0,1-4,4Zm-61.547-8H243.4V289H185.851Zm0,0" stroke="#000" stroke-width="3"/>
      <path id="Path_1729" data-name="Path 1729" d="M181.852,345h-65.8a4,4,0,0,1-4-4V285a4,4,0,0,1,4-4h65.8a4,4,0,0,1,4,4v56A4,4,0,0,1,181.852,345Zm-61.8-8h57.8V289h-57.8Zm0,0" stroke="#000" stroke-width="3"/>
      <path id="Path_1730" data-name="Path 1730" d="M116.051,345H68.5a22.027,22.027,0,0,1-22-22V285a4,4,0,0,1,4-4h65.551a4,4,0,0,1,4,4v56a4,4,0,0,1-4,4ZM54.5,289v34a14.017,14.017,0,0,0,14,14h43.551V289Zm0,0" stroke="#000" stroke-width="3"/>
      <path id="Path_1731" data-name="Path 1731" d="M116.051,289H50.5a4,4,0,0,1-4-4V229a4,4,0,0,1,4-4h65.551a4,4,0,0,1,4,4v56A4,4,0,0,1,116.051,289ZM54.5,281h57.551V233H54.5Zm0,0" stroke="#000" stroke-width="3"/>
      <path id="Path_1732" data-name="Path 1732" d="M181.852,289h-65.8a4,4,0,0,1-4-4V229a4,4,0,0,1,4-4h65.8a4,4,0,0,1,4,4v56A4,4,0,0,1,181.852,289Zm-61.8-8h57.8V233h-57.8Zm0,0" stroke="#000" stroke-width="3"/>
      <path id="Path_1733" data-name="Path 1733" d="M247.4,289H181.851a4,4,0,0,1-4-4V229a4,4,0,0,1,4-4H247.4a4,4,0,0,1,4,4v56a4,4,0,0,1-4,4Zm-61.547-8H243.4V233H185.851Zm0,0" stroke="#000" stroke-width="3"/>
      <path id="Path_1734" data-name="Path 1734" d="M312.949,289H247.4a4,4,0,0,1-4-4V229a4,4,0,0,1,4-4h65.551a4,4,0,0,1,4,4v56A4,4,0,0,1,312.949,289ZM251.4,281h57.551V233H251.4Zm0,0" stroke="#000" stroke-width="3"/>
      <path id="Path_1735" data-name="Path 1735" d="M378.5,289H50.5a4,4,0,0,1-4-4V229a4,4,0,0,1,4-4h328a4,4,0,0,1,4,4v56A4,4,0,0,1,378.5,289Zm-324-8h320V233H54.5Zm0,0" stroke="#000" stroke-width="3"/>
    </g>
    <path id="Path_1738" data-name="Path 1738" d="M82.5,98a24.026,24.026,0,0,1-24-24V24a24,24,0,0,1,48,0V74A24.026,24.026,0,0,1,82.5,98Zm0-90a16.021,16.021,0,0,0-16,16V74a16,16,0,0,0,32,0V24A16.021,16.021,0,0,0,82.5,8Zm0,0" stroke="#000" stroke-width="3"/>
    <path id="Path_1739" data-name="Path 1739" d="M170.5,98a24.026,24.026,0,0,1-24-24V24a24,24,0,0,1,48,0V74A24.026,24.026,0,0,1,170.5,98Zm0-90a16.021,16.021,0,0,0-16,16V74a16,16,0,0,0,32,0V24A16.021,16.021,0,0,0,170.5,8Zm0,0" stroke="#000" stroke-width="3"/>
    <path id="Path_1740" data-name="Path 1740" d="M258.5,98a24.026,24.026,0,0,1-24-24V24a24,24,0,0,1,48,0V74A24.026,24.026,0,0,1,258.5,98Zm0-90a16.021,16.021,0,0,0-16,16V74a16,16,0,0,0,32,0V24A16.021,16.021,0,0,0,258.5,8Zm0,0" stroke="#000" stroke-width="3"/>
    <path id="Path_1741" data-name="Path 1741" d="M346.5,98a24.026,24.026,0,0,1-24-24V24a24,24,0,0,1,48,0V74A24.026,24.026,0,0,1,346.5,98Zm0-90a16.021,16.021,0,0,0-16,16V74a16,16,0,0,0,32,0V24A16.021,16.021,0,0,0,346.5,8Zm0,0" stroke="#000" stroke-width="3"/>
  </g>
</svg>
