<svg id="Flat" height="512" viewBox="0 0 512 512" width="512" xmlns="http://www.w3.org/2000/svg"><path d="m167.44 355.41-71.99 85.81a.01.01 0 0 1 -.01-.01 200.077 200.077 0 0 1 -44.67-253.22l97.01 56a88.028 88.028 0 0 0 19.66 111.42z" fill="#8e9c4c"/><path d="m193.89 205.29a88.161 88.161 0 0 0 -56.57 98l-110.31 19.45a200.092 200.092 0 0 1 128.57-222.73z" fill="#8e9c4c"/><path d="m224 376v112h-.56c-.58 0-1.16 0-1.73-.01a199.169 199.169 0 0 1 -126.26-46.77.01.01 0 0 1 -.01-.01c-.11-.09-.22-.19-.33-.28a199.726 199.726 0 0 1 -68.1-118.19l110.31-19.45a88.065 88.065 0 0 0 86.68 72.71z" fill="#fcb442"/><path d="m352 441.21a199.149 199.149 0 0 1 -126.27 46.78c-.57.01-1.15.01-1.73.01h-.56c-.58 0-1.16 0-1.73-.01a199.114 199.114 0 0 1 -126.82-46.77.01.01 0 0 1 -.01-.01l.23-.28 72.18-85.65a87.964 87.964 0 0 0 113.12.25z" fill="#fc8d36"/><path d="m420.99 322.73v.01a200.051 200.051 0 0 1 -195.26 165.25c-.57.01-1.15.01-1.73.01v-112a87.584 87.584 0 0 0 56.41-20.47l.15-.12a87.922 87.922 0 0 0 30.12-52.12z" fill="#e74444"/><path d="m424 288a200.717 200.717 0 0 1 -3.01 34.73v.01a199.782 199.782 0 0 1 -68.43 118.47l-72-85.8a88.014 88.014 0 0 0 19.66-111.41v-.01l97.01-56a199 199 0 0 1 26.77 100.01z" fill="#b01641"/><path d="m424 288a200.717 200.717 0 0 1 -3.01 34.73v.01l-110.31-19.45a88.629 88.629 0 0 0 1.32-15.29 87.561 87.561 0 0 0 -11.78-44v-.01a88.328 88.328 0 0 0 -46.12-38.71l38.32-105.27a200.01 200.01 0 0 1 131.58 187.99z" fill="#b75382"/><path d="m300.22 244v-.01a87.848 87.848 0 0 0 -76.22-43.99v-112a199.9 199.9 0 0 1 68.42 12v.01a200.6 200.6 0 0 1 104.81 87.98z" fill="#80588f"/><path d="m224 88v112a87.892 87.892 0 0 0 -76.22 43.99l-97.01-56a199.685 199.685 0 0 1 173.23-99.99z" fill="#298057"/><path d="m292.42 100v.01l-38.32 105.27a88.386 88.386 0 0 0 -60.21.01l-38.31-105.28a200.975 200.975 0 0 1 136.84-.01z" fill="#2b70a8"/><path d="m477.547 89.815-59.128-24.49-40.519 97.814-14.594 35.219a24.087 24.087 0 0 0 .549 19.592l-5.4 13.038a24 24 0 1 0 44.345 18.374l5.407-13.049a24.023 24.023 0 0 0 14.231-13.458zm-69.893 126.925a8 8 0 0 1 -6.339 4.859 8 8 0 0 0 -6.346 4.869l-6.95 16.77a8 8 0 1 1 -14.777-6.128l6.94-16.759a8.006 8.006 0 0 0 -1.044-7.93 8.033 8.033 0 0 1 -1.048-7.937l29.567 12.248z" fill="#a4d4f4"/><path d="m458.27 23.617a24 24 0 0 1 24 24v34.238a0 0 0 0 1 0 0h-48a0 0 0 0 1 0 0v-34.238a24 24 0 0 1 24-24z" fill="#757c80" transform="matrix(.924 .383 -.383 .924 55.065 -171.358)"/><path d="m404.922 68.961h80v32h-80z" fill="#2b70a8" transform="matrix(.924 .383 -.383 .924 66.381 -163.797)"/><path d="m224 176a112 112 0 1 0 112 112 112 112 0 0 0 -112-112zm0 176a64 64 0 1 1 64-64 64 64 0 0 1 -64 64z" fill="#fae8d8"/><g fill="#b75382"><path d="m380.6 264.178a23.988 23.988 0 0 0 2.776-.178h-5.621a23.684 23.684 0 0 0 2.845.178z"/><path d="m407.654 216.74 24.493-59.14-29.558-12.24-24.5 59.121a8.029 8.029 0 0 0 1.047 7.939 8.006 8.006 0 0 1 1.044 7.93l-6.94 16.759a8 8 0 1 0 14.777 6.128l6.95-16.77a8 8 0 0 1 6.346-4.869 8 8 0 0 0 6.341-4.858z"/></g></svg>