<svg xmlns="http://www.w3.org/2000/svg" width="25" height="25" viewBox="0 0 25 25">
  <path id="Icon_awesome-lock" data-name="Icon awesome-lock" d="M21.429,10.5H20.143V7.125C20.143,3.2,16.489,0,12,0S3.857,3.2,3.857,7.125V10.5H2.571A2.428,2.428,0,0,0,0,12.75v9A2.428,2.428,0,0,0,2.571,24H21.429A2.428,2.428,0,0,0,24,21.75v-9A2.428,2.428,0,0,0,21.429,10.5Zm-5.571,0H8.143V7.125A3.645,3.645,0,0,1,12,3.75a3.645,3.645,0,0,1,3.857,3.375Z" transform="translate(0.5 0.5)" fill="none" stroke="#000" stroke-width="1"/>
</svg>
