<svg xmlns="http://www.w3.org/2000/svg" width="27" height="27" viewBox="0 0 27 27">
  <g id="Group_1915" data-name="Group 1915" transform="translate(-68 -133)">
    <g id="Path_1562" data-name="Path 1562" transform="translate(68 133)" fill="#535252">
      <path d="M 13.5 26.5 C 10.02758026123047 26.5 6.76298999786377 25.14776039123535 4.307610034942627 22.69239044189453 C 1.852239966392517 20.23700904846191 0.5 16.97241973876953 0.5 13.5 C 0.5 10.02758026123047 1.852239966392517 6.76298999786377 4.307610034942627 4.307610034942627 C 6.76298999786377 1.852239966392517 10.02758026123047 0.5 13.5 0.5 C 16.97241973876953 0.5 20.23700904846191 1.852239966392517 22.69239044189453 4.307610034942627 C 25.14776039123535 6.76298999786377 26.5 10.02758026123047 26.5 13.5 C 26.5 16.97241973876953 25.14776039123535 20.23700904846191 22.69239044189453 22.69239044189453 C 20.23700904846191 25.14776039123535 16.97241973876953 26.5 13.5 26.5 Z" stroke="none"/>
      <path d="M 13.5 1 C 10.16113090515137 1 7.022109985351563 2.300230026245117 4.661169052124023 4.661169052124023 C 2.300230026245117 7.022109985351563 1 10.16113090515137 1 13.5 C 1 16.83887100219727 2.300230026245117 19.97789001464844 4.661169052124023 22.33882904052734 C 7.022109985351563 24.69976997375488 10.16113090515137 26 13.5 26 C 16.83887100219727 26 19.97789001464844 24.69976997375488 22.33882904052734 22.33882904052734 C 24.69976997375488 19.97789001464844 26 16.83887100219727 26 13.5 C 26 10.16113090515137 24.69976997375488 7.022109985351563 22.33882904052734 4.661169052124023 C 19.97789001464844 2.300230026245117 16.83887100219727 1 13.5 1 M 13.5 0 C 20.95584106445313 0 27 6.044160842895508 27 13.5 C 27 20.95584106445313 20.95584106445313 27 13.5 27 C 6.044160842895508 27 0 20.95584106445313 0 13.5 C 0 6.044160842895508 6.044160842895508 0 13.5 0 Z" stroke="none" fill="#fff"/>
    </g>
    <path id="Icon_awesome-camera" data-name="Icon awesome-camera" d="M16.811,5.927v9.456a1.576,1.576,0,0,1-1.576,1.576H1.576A1.576,1.576,0,0,1,0,15.383V5.927A1.576,1.576,0,0,1,1.576,4.351H4.465l.4-1.08A1.574,1.574,0,0,1,6.343,2.25h4.121a1.574,1.574,0,0,1,1.474,1.021l.407,1.08h2.889A1.576,1.576,0,0,1,16.811,5.927Zm-4.465,4.728a3.94,3.94,0,1,0-3.94,3.94A3.943,3.943,0,0,0,12.345,10.655Zm-1.051,0A2.889,2.889,0,1,1,8.405,7.766,2.894,2.894,0,0,1,11.295,10.655Z" transform="translate(73 136.75)" fill="#fff"/>
  </g>
</svg>
