<svg xmlns="http://www.w3.org/2000/svg" xmlns:xlink="http://www.w3.org/1999/xlink" width="24" height="24" viewBox="0 0 24 24">
  <defs>
    <linearGradient id="linear-gradient" x1="0.5" y1="-0.166" x2="0.5" y2="0.957" gradientUnits="objectBoundingBox">
      <stop offset="0" stop-color="#f57b51"/>
      <stop offset="1" stop-color="#d63447"/>
    </linearGradient>
    <linearGradient id="linear-gradient-3" x1="0.5" y1="-0.167" x2="0.5" y2="0.957" xlink:href="#linear-gradient"/>
    <linearGradient id="linear-gradient-4" x1="0.5" y1="-0.286" x2="0.5" y2="3.613" xlink:href="#linear-gradient"/>
    <linearGradient id="linear-gradient-5" x1="0.5" y1="0.107" x2="0.5" y2="2.815" xlink:href="#linear-gradient"/>
    <linearGradient id="linear-gradient-6" x1="0.5" y1="-0.219" x2="0.5" y2="3.477" xlink:href="#linear-gradient"/>
    <linearGradient id="linear-gradient-7" x1="0.5" y1="-0.592" x2="0.5" y2="6.504" xlink:href="#linear-gradient"/>
    <linearGradient id="linear-gradient-8" x1="0.5" y1="0.339" x2="0.5" y2="8.338" xlink:href="#linear-gradient"/>
    <linearGradient id="linear-gradient-9" x1="0.5" y1="-0.569" x2="0.5" y2="27.735" xlink:href="#linear-gradient"/>
    <linearGradient id="linear-gradient-10" x1="0.5" y1="-2.368" x2="0.5" y2="49.376" xlink:href="#linear-gradient"/>
  </defs>
  <g id="Group_1717" data-name="Group 1717" transform="translate(0 0.028)">
    <circle id="Ellipse_145" data-name="Ellipse 145" cx="12" cy="12" r="12" transform="translate(0 -0.028)" fill="#535252"/>
    <g id="Group_1716" data-name="Group 1716" transform="translate(3.348 6.907)">
      <g id="Group_7" data-name="Group 7" transform="translate(0.063 2.129)">
        <path id="Path_19" data-name="Path 19" d="M420.413,1240.736h.812v4.394a.45.45,0,0,0,.313.464.749.749,0,0,0,.135.016H423.1a.416.416,0,0,0,.436-.317.431.431,0,0,0,.016-.119l0-4.437h.828v4.319a1.261,1.261,0,0,1-.856,1.3,1.109,1.109,0,0,1-.361.06h-1.545a1.24,1.24,0,0,1-1.141-.824,1.675,1.675,0,0,1-.059-.388Z" transform="translate(-420.413 -1240.736)" fill="url(#linear-gradient)"/>
        <path id="Path_20" data-name="Path 20" d="M548.345,1240.736a1.21,1.21,0,0,0-.685.824h-1.47v-.824Zm.868,0h.939v.824h-1.145q-.416.056-.44.4v4.461h-.792v-4.4a1.242,1.242,0,0,1,.788-1.189A1.73,1.73,0,0,1,549.213,1240.736Z" transform="translate(-540.559 -1240.736)" fill="url(#linear-gradient)"/>
        <path id="Path_21" data-name="Path 21" d="M671.967,1240.83l2.508,1.3a1.137,1.137,0,0,1,.5.959v3.411h-.757v-3.352q-.012-.309-.436-.479l-1.819-.943Zm0,1.1.792.388v4.184h-.792Zm5.143-1.105v.919l-2,1.034a1.088,1.088,0,0,0-.408-.69Zm0,1.113v4.564h-.784l0-4.168Z" transform="translate(-660.705 -1240.822)" fill="url(#linear-gradient-3)"/>
      </g>
      <g id="Group_8" data-name="Group 8" transform="translate(0 8.673)">
        <path id="Path_22" data-name="Path 22" d="M419.672,1388.336a.644.644,0,0,1-.475-.189.779.779,0,0,1,.012-1.05.69.69,0,0,1,.925,0,.785.785,0,0,1,.014,1.052A.642.642,0,0,1,419.672,1388.336Zm0-.074a.369.369,0,0,0,.3-.148.769.769,0,0,0,.134-.487.757.757,0,0,0-.14-.494.384.384,0,0,0-.6,0,.756.756,0,0,0-.14.494.769.769,0,0,0,.133.487A.37.37,0,0,0,419.672,1388.262Z" transform="translate(-419 -1386.918)" fill="#f6eedf"/>
        <path id="Path_23" data-name="Path 23" d="M467.025,1388.882v.039h-.331l-.489-.633h-.115v.409a.229.229,0,0,0,.034.147.209.209,0,0,0,.151.038v.039h-.569v-.039c.078,0,.128-.015.15-.045a.332.332,0,0,0,.025-.162v-.89a.239.239,0,0,0-.032-.148.192.192,0,0,0-.143-.037v-.039h.567a.778.778,0,0,1,.329.06.309.309,0,0,1,.193.3.294.294,0,0,1-.087.223.573.573,0,0,1-.285.122l.423.52a.3.3,0,0,0,.078.073A.192.192,0,0,0,467.025,1388.882Zm-.935-1.172v.506a.889.889,0,0,0,.3-.039.256.256,0,0,0,.177-.261.25.25,0,0,0-.089-.209.418.418,0,0,0-.264-.071.236.236,0,0,0-.1.014A.065.065,0,0,0,466.09,1387.711Z" transform="translate(-463.615 -1387.532)" fill="#f6eedf"/>
        <path id="Path_24" data-name="Path 24" d="M512.744,1387.58v.037a.142.142,0,0,0-.1.027.2.2,0,0,0-.039.132v.413q0,.027-.174.087a1,1,0,0,1-.325.061.943.943,0,0,1-.31-.049.629.629,0,0,1-.267-.171.605.605,0,0,1-.125-.2.921.921,0,0,1-.045-.313.667.667,0,0,1,.187-.473.68.68,0,0,1,.516-.216.834.834,0,0,1,.189.021l.179.047a.107.107,0,0,0,.062-.02.077.077,0,0,0,.035-.048h.045v.434h-.031a.557.557,0,0,0-.2-.277.468.468,0,0,0-.576.055.7.7,0,0,0-.177.52.64.64,0,0,0,.145.441.492.492,0,0,0,.387.163.526.526,0,0,0,.2-.034c.057-.022.086-.052.086-.087v-.333c0-.081-.012-.132-.035-.152a.238.238,0,0,0-.146-.031v-.037Z" transform="translate(-507.219 -1386.918)" fill="#f6eedf"/>
        <path id="Path_25" data-name="Path 25" d="M559.48,1388.356v.039h-.524v-.039a.32.32,0,0,0,.1-.01.065.065,0,0,0,.043-.068.179.179,0,0,0-.009-.049.8.8,0,0,0-.03-.08l-.084-.2h-.538l-.095.241a.222.222,0,0,0-.016.078.075.075,0,0,0,.054.076.257.257,0,0,0,.086.01v.039h-.407v-.039a.132.132,0,0,0,.061-.012.185.185,0,0,0,.044-.033.577.577,0,0,0,.078-.132c.017-.034.04-.088.072-.16l.427-1.009h.041l.512,1.167a.562.562,0,0,0,.083.147A.139.139,0,0,0,559.48,1388.356Zm-1.007-.489h.475l-.239-.565Z" transform="translate(-551.835 -1387.006)" fill="#f6eedf"/>
        <path id="Path_26" data-name="Path 26" d="M606.835,1387.561v.039a.254.254,0,0,0-.146.045.332.332,0,0,0-.049.218v1.081h-.035l-.9-1.126v.8a.4.4,0,0,0,.037.211.177.177,0,0,0,.152.052v.039h-.483v-.039a.2.2,0,0,0,.16-.049.383.383,0,0,0,.039-.214v-.906a.386.386,0,0,0-.1-.092.213.213,0,0,0-.1-.021v-.039h.352l.791.989v-.687a.36.36,0,0,0-.045-.22.2.2,0,0,0-.152-.043v-.039Z" transform="translate(-597.062 -1387.532)" fill="#f6eedf"/>
        <path id="Path_27" data-name="Path 27" d="M653.164,1388.922v-.039a.248.248,0,0,0,.163-.036.218.218,0,0,0,.036-.149v-.913a.217.217,0,0,0-.036-.151.26.26,0,0,0-.163-.034v-.039h.611v.039a.267.267,0,0,0-.16.034.2.2,0,0,0-.041.151v.913a.2.2,0,0,0,.041.15.26.26,0,0,0,.16.035v.039Z" transform="translate(-642.681 -1387.532)" fill="#f6eedf"/>
        <path id="Path_28" data-name="Path 28" d="M683.542,1388.56h.047l-.049.362h-1.159v-.031l.9-1.252h-.454a.358.358,0,0,0-.273.084.4.4,0,0,0-.072.189h-.054l.041-.351h1.081v.031l-.888,1.252h.528a.347.347,0,0,0,.261-.084A.554.554,0,0,0,683.542,1388.56Z" transform="translate(-670.59 -1387.532)" fill="#f6eedf"/>
        <path id="Path_29" data-name="Path 29" d="M726.112,1388.574l-.093.347h-1.11v-.039a.207.207,0,0,0,.141-.036.209.209,0,0,0,.038-.149v-.913a.214.214,0,0,0-.037-.151.216.216,0,0,0-.142-.034v-.039H726v.294h-.045a.26.26,0,0,0-.081-.176.451.451,0,0,0-.231-.04h-.277a.092.092,0,0,0-.054.011c-.01.008-.014.027-.014.059v.456h.316a.257.257,0,0,0,.17-.038.3.3,0,0,0,.057-.157h.047v.477h-.047a.278.278,0,0,0-.059-.159.267.267,0,0,0-.168-.036H725.3v.506c0,.042.013.068.04.075a1.6,1.6,0,0,0,.266.011.577.577,0,0,0,.288-.055.456.456,0,0,0,.162-.214Z" transform="translate(-711.215 -1387.532)" fill="#f6eedf"/>
        <path id="Path_30" data-name="Path 30" d="M768.847,1388.882v.039h-.331l-.489-.633h-.115v.409a.23.23,0,0,0,.034.147.209.209,0,0,0,.151.038v.039h-.569v-.039c.078,0,.128-.015.15-.045a.334.334,0,0,0,.025-.162v-.89a.24.24,0,0,0-.032-.148.193.193,0,0,0-.143-.037v-.039h.567a.778.778,0,0,1,.329.06.309.309,0,0,1,.193.3.294.294,0,0,1-.087.223.573.573,0,0,1-.285.122l.423.52a.3.3,0,0,0,.078.073A.192.192,0,0,0,768.847,1388.882Zm-.935-1.172v.506a.89.89,0,0,0,.3-.039.256.256,0,0,0,.177-.261.25.25,0,0,0-.089-.209.418.418,0,0,0-.264-.071.236.236,0,0,0-.1.014A.065.065,0,0,0,767.912,1387.711Z" transform="translate(-751.925 -1387.532)" fill="#f6eedf"/>
      </g>
      <path id="Path_31" data-name="Path 31" d="M670.92,1230.421l2.555,1.313a15.179,15.179,0,0,0-2.555-1.637Z" transform="translate(-659.642 -1228.444)" fill="url(#linear-gradient-4)"/>
      <path id="Path_32" data-name="Path 32" d="M670.92,1214.443l2.555,1.934-2.555-2.357Z" transform="translate(-659.642 -1213.087)" fill="url(#linear-gradient-5)"/>
      <path id="Path_33" data-name="Path 33" d="M732.617,1229.815l2.366-1.278v-.45Z" transform="translate(-718.578 -1226.525)" fill="url(#linear-gradient-6)"/>
      <ellipse id="Ellipse_4" data-name="Ellipse 4" cx="0.45" cy="0.45" rx="0.45" ry="0.45" transform="translate(13.59 1.718)" fill="url(#linear-gradient-7)"/>
      <path id="Path_34" data-name="Path 34" d="M692.816,1208.8l-.246-.18-.248.178.1-.29-.246-.18h.305l.1-.29.093.291h.305l-.248.178Z" transform="translate(-679.942 -1207.373)" fill="#f6eedf"/>
      <path id="Path_35" data-name="Path 35" d="M728.316,1193.57l-.128-.094-.129.093.05-.151-.128-.094h.158l.05-.15.048.151h.158l-.129.093Z" transform="translate(-714.149 -1193.176)" fill="#f6eedf"/>
      <path id="Path_36" data-name="Path 36" d="M762.289,1221.992l-.128-.094-.129.093.05-.15-.128-.094h.158l.05-.15.048.151h.158l-.129.093Z" transform="translate(-746.601 -1220.325)" fill="#f6eedf"/>
      <path id="Path_37" data-name="Path 37" d="M715,1214l-.406.1v.216a.091.091,0,0,1-.129.083l-.173-.078a.382.382,0,0,0-.316,0l-.173.078a.092.092,0,0,1-.129-.083v-.216l-.406-.1.866-.4Z" transform="translate(-700.091 -1212.691)" fill="url(#linear-gradient-8)"/>
      <g id="Group_9" data-name="Group 9" transform="translate(14.736 1.314)">
        <rect id="Rectangle_3" data-name="Rectangle 3" width="0.031" height="0.226" transform="translate(0)" fill="url(#linear-gradient-9)"/>
      </g>
      <ellipse id="Ellipse_5" data-name="Ellipse 5" cx="0.062" cy="0.062" rx="0.062" ry="0.062" transform="translate(14.69 1.478)" fill="url(#linear-gradient-10)"/>
    </g>
  </g>
</svg>
